<?xml version="1.0" encoding="utf-8"?>
<!--Designed by Vexels.com - 2017 All Rights Reserved - https://vexels.com/terms-and-conditions/-->
<svg version="1.1" id="Layer_1" xmlns="http://www.w3.org/2000/svg" xmlns:xlink="http://www.w3.org/1999/xlink" x="0px" y="0px"
	 viewBox="0 0 1200 1200" enable-background="new 0 0 1200 1200" xml:space="preserve">
<g>
	<g>
		<path fill="#8E8E8E" d="M596.645,991.681c-19.266,63.048-40.981,134.856-99.125,134.856c-28.722,0-51.14-18.566-51.14-47.286
			c0-30.477,23.819-57.798,50.437-57.798c3.504,0,6.655,0.353,10.159,1.399c3.151,1.053,5.253,3.857,5.253,7.008
			c0,4.903-4.553,8.407-9.457,7.354c-1.752-0.347-3.501-0.699-5.603-0.699c-19.266,0-36.077,21.718-36.077,42.03
			c0,21.718,16.462,33.276,36.077,33.276c49.038,0,69-70.749,85.465-124.344c8.054-26.968,16.112-52.888,25.918-72.154
			c7.005-13.31,18.213-23.117,31.877-26.621c4.903-1.052,8.054,1.752,8.754,6.302c0,5.256-3.151,7.708-5.952,8.407
			c-8.057,1.405-17.514,10.512-21.368,18.919C612.407,940.544,604.703,965.76,596.645,991.681z M618.363,1150
			c-33.276,0-58.145-17.514-58.145-45.881c0-22.77,16.811-38.532,36.077-38.532c16.461,0,28.373,11.558,33.975,28.02
			c1.402,4.556-1.752,9.806-6.655,9.806c-3.151,0-5.956-1.746-7.005-4.903c-3.854-9.807-11.209-18.214-20.315-18.214
			c-11.559,0-21.368,10.512-21.368,23.822c0,21.012,21.368,31.171,43.435,31.171c60.946,0,93.169-87.916,93.169-151.317
			c0-57.792-22.067-99.122-77.757-101.926c-63.751,0-100.178,49.737-100.877,116.989c0,4.204-3.154,7.354-7.358,7.354
			c-3.851,0-7.355-3.151-7.355-7.354c0.7-77.058,44.484-131.699,115.59-131.699c65.15,3.151,92.47,50.79,92.47,116.636
			C726.245,1057.88,688.066,1150,618.363,1150z"/>
	</g>
	<g>
		<path fill="#8E8E8E" d="M768.981,68.567l-18.214,51.836c-15.412,44.135-35.378,101.58-37.829,108.235
			c-22.767,61.995-32.923,90.721-33.626,108.935c-0.7,17.514,5.956,30.824,23.819,30.824c3.854,0,7.355,3.498,7.355,7.701
			c-0.35,3.857-3.501,7.355-7.704,7.355c-26.971-0.7-38.179-20.312-38.179-45.881c0-21.018,12.608-56.746,34.325-113.838
			l5.956-16.462h-90.371c-1.749,4.903-3.151,9.454-4.553,14.01c-17.864,54.994-35.375,107.882-97.023,107.882
			c-39.229,0-60.596-27.321-60.596-63.048c0-42.383,36.777-73.56,75.659-74.259c4.204,0,7.355,3.504,7.355,7.355
			c0,4.204-3.151,7.708-7.355,7.708c-31.174,0-60.946,25.568-60.946,59.544c0,27.673,16.112,47.991,46.233,47.991
			c50.44,0,66.202-47.991,82.314-97.729c1.049-3.151,2.102-6.655,3.151-9.454h-14.71c-4.204,0-7.358-3.504-7.358-7.361
			c0-4.197,3.154-7.701,7.358-7.701h19.613l5.956-18.214c8.057-25.222,17.864-57.099,31.524-81.967l1.053-2.099
			c-15.063-3.504-28.723-7.707-41.683-11.558c-22.417-7.008-43.432-13.663-66.902-13.663c-23.117,0-45.884,22.77-45.884,46.24
			c0,25.915,16.811,37.473,40.631,37.473c10.156,0,21.365-2.798,31.874-7.355c1.053-0.346,2.102-0.699,3.504-0.699
			c4.904,0,7.005,4.557,7.005,7.355c0,2.804-1.402,5.256-4.204,6.655c-12.261,5.609-25.921,8.76-38.529,8.76
			c-33.976,0-54.993-20.665-54.993-51.143C473.004,78.02,502.779,50,533.601,50c25.921,0,47.636,6.655,71.455,14.01
			c14.362,4.557,29.772,9.46,46.936,12.611c8.058-7.708,14.713-12.611,22.418-16.815c1.052-0.699,2.451-1.052,3.504-1.052
			c5.253,0,7.355,4.556,7.355,7.361c0,2.798-1.402,5.25-4.204,6.655c-11.209,6.302-21.718,15.409-26.971,26.268
			c-12.611,23.469-22.417,54.64-30.475,79.509l-4.201,13.663h90.718c7.704-22.071,17.864-51.49,26.971-76.711
			c9.457-27.32,17.164-49.737,18.214-52.189c1.052-2.804,3.854-4.556,6.655-4.556C767.931,58.754,770.733,64.01,768.981,68.567z"/>
	</g>
	<g>
		<g>
			<path fill="#3D3D3D" d="M985.997,311.747c-2.86,0.371-3.86,2.314-3.659,4.959c-1.067-0.977-2.289-1.852-3.055-3.025
				c-1.87-2.866-3.074-6.248-5.264-8.81c-7.781-9.109-15.898-17.928-23.807-26.93c-2.77-3.154-6.852-6.339-1.083-10.521
				c0.408-0.296,0.531-1.891,0.194-2.176c-4.371-3.673-0.249-3.875,1.925-4.847c7.545-3.373,14.523-2.561,20.118,3.68
				c5.635,6.283,10.532,13.233,16.231,19.45c6.118,6.674,6.68,13.901,3.898,21.993C990.494,308.428,989.778,311.257,985.997,311.747
				z"/>
		</g>
		<g>
			<path fill="#3D3D3D" d="M983.167,317.77c-0.276-0.232-0.561-0.455-0.832-0.69c-0.016-0.135,0.011-0.243,0.002-0.375
				c0.078,0.072,0.164,0.139,0.241,0.212C982.78,317.197,982.967,317.489,983.167,317.77z"/>
		</g>
		<g>
			<path fill="#3D3D3D" d="M433.411,718.441c0.03-0.018,0.059-0.036,0.09-0.054c0.046-0.013,0.09-0.025,0.136-0.038
				c0.004,0.039,0.008,0.077,0.013,0.116C433.573,718.463,433.489,718.447,433.411,718.441z"/>
		</g>
		<g>
			<path fill="#3D3D3D" d="M414.124,728.933c0.282-0.633,0.387-1.549,0.874-1.856c4.747-2.982,9.491-5.983,14.4-8.676
				c1.023-0.561,2.627-0.062,4.012,0.039c-5.936,3.52-11.864,7.051-17.823,10.528C415.229,729.178,414.618,728.955,414.124,728.933z
				"/>
		</g>
		<g>
			<path fill="#3D3D3D" d="M220.883,906.006c-1.641,6.933-0.641,13.789,2.818,19.306c3.469,5.534,9.195,9.428,16.124,10.966
				c1.564,0.347,3.199,0.576,4.858,0.68c8.716,0.546,19.058,1.157,29.682,1.552c3.811,0.142,7.728,0.669,11.975,1.612
				c7.801,1.731,15.523,4.609,22.992,7.392c0.728,0.272,1.443,0.588,2.158,0.899c1.591,0.692,3.395,1.476,5.479,2.053
				c0.65,0.18,1.295,0.341,1.938,0.484c11.303,2.509,21.258-1.033,27.311-9.718c5.089-7.298,8.736-14.102,11.152-20.8
				c10.197-28.292,25.784-56.487,49.048-88.731c8.114-11.245,17.687-22.018,26.945-32.437l1.316-1.483l2.156-2.429
				c14.767-16.641,30.037-33.848,47.476-47.681c15.291-12.129,31.761-24.326,48.955-36.253c5.961-4.135,12.409-8.048,18.647-11.833
				c8.811-5.347,17.922-10.877,26.379-17.407c8.854-6.838,18.202-13.439,27.243-19.823c6.172-4.358,12.553-8.865,18.782-13.446
				c20.575-15.135,41.3-30.744,61.342-45.838l2.959-2.229l4.575-3.436c8.274-6.204,16.83-12.619,24.945-19.493
				c13.607-11.524,26.928-23.35,39.591-35.149c11.323-10.55,22.611-21.455,33.527-32.001c5.256-5.078,10.512-10.156,15.789-15.211
				c3.231-3.096,6.428-6.232,9.626-9.367c7.344-7.2,14.937-14.646,22.736-21.35c10.251-8.814,21.09-17.431,31.571-25.765
				c4.867-3.869,9.734-7.739,14.569-11.645c47.825,42.619,60.233,116.818,62.674,135.638
				c9.714-2.716,142.426-58.838,184.559-155.781c-23.976-6.476-44.58-16.115-67.208-31.526c-3.785-2.261-7.249-4.696-10.224-7.412
				c-0.811-0.741-1.582-1.467-2.382-2.203c-4.366-3.704-8.786-7.812-13.291-12.489c-14.679-14.144-27.521-27.702-38.893-41.06
				c2.846-3.313,4.879-7.683,5.78-12.583c1.326-7.204,0.018-14.262-3.589-19.366c-6.844-9.682-14.546-18.736-21.994-27.492
				l-1.603-1.884c-2.522-2.968-5.715-4.342-8.045-5.344c-0.558-0.24-1.121-0.468-1.634-0.745l-2.477-1.335l-2.801,0.264
				c-1.128,0.106-2.42,0.124-3.788,0.143c-4.93,0.068-12.486,0.172-18.367,5.795c-0.637-0.521-1.242-1.026-1.825-1.525
				c-3.004-2.571-6.29-4.265-9.768-5.038c-5.064-1.124-10.366-0.226-15.332,2.597l-0.856,0.486
				c-3.986,2.26-8.504,4.821-12.431,8.375c-16.054,14.533-33.06,30.202-51.992,47.904c-5.419,5.068-10.69,10.355-15.788,15.469
				c-2.194,2.201-4.387,4.403-6.596,6.59l-0.714,0.697c-1.074,1.04-2.291,2.219-3.463,3.712
				c-8.724,11.105-9.536,16.267-2.986,27.491c-0.272,0.379-0.533,0.751-0.786,1.109c-0.944,1.34-1.835,2.606-2.679,3.483
				l-3.089,3.21c-9.355,9.724-19.028,19.779-28.799,29.296c-30.005,29.22-54.582,52.907-77.348,74.544
				c-13.97,13.277-25.817,23.929-37.286,33.521c-19.692,16.473-39.519,32.474-58.932,47.558
				c-15.72,12.213-32.207,24.116-48.15,35.627l-3.011,2.175c-5.78,4.174-11.843,8.283-17.706,12.256
				c-4.774,3.237-9.713,6.583-14.541,9.992c-5.68,4.01-11.306,8.197-16.747,12.245c-2.826,2.102-5.651,4.205-8.492,6.288
				l-7.731,5.68c-8.173,6.009-16.346,12.017-24.576,17.946c-14.898,10.729-33.438,24.082-51.306,36.677
				c-22.365,15.764-43.067,33.637-62.355,50.593c-22.628,19.894-40.686,36.218-56.833,51.374
				c-18.248,17.13-32.311,32.718-44.257,49.057c-11.087,15.162-19.805,29.24-26.652,43.037
				C225.71,889.574,222.898,897.494,220.883,906.006z M789.924,435.964c0.882-1.375,1.819-2.732,2.88-3.971
				c10.466-12.228,20.955-24.438,31.465-36.628c0.513-0.594,1.291-0.958,2.001-1.469c0.052,0.634,0.29,1.236,0.1,1.629
				c-0.713,1.471-1.356,3.054-2.401,4.273c-10.641,12.415-21.356,24.766-32.056,37.131c-0.175,0.202-0.4,0.448-0.636,0.491
				c-0.453,0.083-0.93,0.036-1.398,0.044C789.883,436.956,789.693,436.325,789.924,435.964z M772.959,484.272
				c-10.737,7.503-21.503,14.966-32.34,22.323c-1.544,1.048-3.486,1.535-5.281,2.177c-0.453,0.162-1.05-0.075-1.58-0.128
				c0.254-0.622,0.328-1.532,0.792-1.821c6.004-3.758,12.173-7.261,18.08-11.164c6.378-4.213,12.515-8.789,18.778-13.177
				c0.865-0.605,1.852-1.037,2.781-1.55c0.255,0.223,0.509,0.446,0.764,0.669C774.298,482.504,773.824,483.667,772.959,484.272z
				 M669.14,574.122c-7.099,4.454-15.103,7.477-22.757,11.011c-0.565,0.261-1.679-0.67-2.539-1.047
				c0.582-0.499,1.09-1.145,1.757-1.474c5.388-2.655,10.985-4.934,16.182-7.917c22.125-12.701,41.871-28.734,61.757-44.561
				c13.036-10.375,26.105-20.709,39.143-31.08c1.482-1.179,2.863-2.485,4.29-3.732c0.429,0.387,0.856,0.774,1.285,1.16
				c-0.338,0.784-0.46,1.838-1.049,2.309c-5.541,4.432-11.284,8.617-16.739,13.149C724.195,533.769,698.151,555.918,669.14,574.122z
				 M620.744,623.019c0.423-0.88,0.639-1.98,1.303-2.606c4.677-4.417,11.035-7.151,13.608-13.665
				c11.86-7.586,23.732-15.153,35.571-22.771c2.522-1.623,4.896-3.475,7.407-5.115c0.551-0.359,1.401-0.261,2.113-0.374
				c-0.315,0.67-0.451,1.571-0.973,1.974c-4.533,3.501-9.054,7.027-13.731,10.329c-12.217,8.621-25.829,15.337-36.01,26.737
				c-1.787,2.002-4.154,3.524-6.397,5.056C622.91,623.078,621.721,622.893,620.744,623.019z M607.265,619.031
				c0.783-0.852,1.403-2.042,2.37-2.501c7.321-3.476,14.68-6.879,22.113-10.104c0.965-0.419,2.387,0.214,3.618,0.409
				c-8.109,4.003-16.199,8.051-24.36,11.947C609.959,619.282,608.522,618.968,607.265,619.031z M549.144,652.206
				c0.492-0.517,0.889-1.283,1.49-1.512c6.857-2.603,13.743-5.128,20.624-7.663c0.497-0.183,1.023-0.287,1.54-0.418
				c0.415,0.284,0.83,0.567,1.246,0.851c-0.498,0.598-0.879,1.503-1.514,1.745c-7.084,2.709-14.196,5.347-21.343,7.884
				C550.674,653.275,549.831,652.523,549.144,652.206z M470.706,709.883c0.73-1.049,0.945-1.74,1.342-1.871
				c8.798-2.903,17.612-5.753,26.438-8.567c0.391-0.124,0.918,0.179,1.381,0.283c-0.423,0.607-0.719,1.565-1.286,1.769
				c-8.226,2.951-16.476,5.83-24.755,8.626C473.025,710.393,471.999,710.001,470.706,709.883z M344.399,808.845
				c6.65-4.706,13.354-9.337,20.061-13.962c0.425-0.293,0.986-0.388,1.469-0.569c0.232,0.114,0.632,0.296,0.626,0.31
				c-0.279,0.675-0.411,1.601-0.93,1.958c-6.71,4.617-13.471,9.161-20.239,13.691c-0.421,0.281-1.026,0.289-1.545,0.424
				C344.017,810.065,343.984,809.139,344.399,808.845z M345.508,794.02c0.534-0.825,0.891-1.888,1.629-2.439
				c6.344-4.725,12.519-9.74,19.206-13.932c11.09-6.951,22.519-13.359,33.812-19.984c0.908-0.532,1.874-0.967,3.385-1.741
				c0.013,1.165,0.271,2.022-0.019,2.294c-0.984,0.925-2.11,1.735-3.278,2.426c-9.155,5.406-18.46,10.571-27.466,16.214
				c-8.313,5.208-16.301,10.937-24.477,16.37C347.534,793.738,346.447,793.768,345.508,794.02z M270.505,902.596
				c5.594-6.944,11.261-13.83,16.929-20.714c0.331-0.4,0.836-0.656,1.628-1.258c-0.297,1.081-0.293,1.959-0.72,2.492
				c-5.574,6.955-11.204,13.866-16.844,20.768c-0.314,0.384-0.85,0.589-1.282,0.877
				C270.299,904.029,270.115,903.081,270.505,902.596z M259.322,869.141c4.695-5.319,9.699-10.364,14.538-15.558
				c1.642-1.763,3.11-3.687,4.658-5.537c-0.001,0.001-0.003,0.001-0.003,0.001c2.076-1.424,4.131-2.884,6.257-4.231
				c0.58-0.368,1.407-0.346,2.121-0.503c-0.192,0.707-0.17,1.604-0.606,2.093c-8,8.956-16.019,17.896-24.152,26.731
				c-0.778,0.845-2.332,0.976-3.525,1.439C258.817,872.07,258.485,870.089,259.322,869.141z M229.922,908.146
				c1.748-7.384,4.266-14.763,7.636-21.55c7.281-14.671,16.099-28.377,25.829-41.684c12.787-17.488,27.458-33.067,43.117-47.767
				c18.542-17.406,37.506-34.376,56.608-51.17c19.86-17.459,39.911-34.709,61.573-49.977c17.209-12.129,34.299-24.427,51.384-36.731
				c10.847-7.813,21.595-15.765,32.374-23.673c8.371-6.141,16.623-12.448,25.102-18.435c10.695-7.551,21.717-14.642,32.327-22.306
				c17.278-12.478,34.596-24.925,51.422-37.997c20.019-15.555,39.748-31.501,59.193-47.767
				c12.964-10.843,25.472-22.267,37.725-33.913c25.982-24.694,51.75-49.615,77.429-74.623
				c10.942-10.657,21.503-21.711,32.099-32.717c2.414-2.508,4.126-5.678,6.412-8.328c1.645-1.907,1-3.143-0.161-4.994
				c-6.186-9.859-6.101-10.664,0.813-19.466c1.009-1.284,2.245-2.393,3.41-3.548c7.381-7.308,14.609-14.782,22.193-21.874
				c17.176-16.06,34.449-32.021,51.881-47.801c3.41-3.086,7.606-5.377,11.644-7.673c2.967-1.687,5.898-2.232,8.728-1.604
				c1.969,0.437,3.89,1.442,5.742,3.027c2.081,1.781,4.234,3.481,6.414,5.142c0.782,0.596,1.571,1.064,2.332,1.232
				c1.142,0.254,2.217-0.169,3.098-1.848c4.264-8.121,11.924-6.078,19.047-6.748c2.369,1.277,5.381,2.013,7.009,3.928
				c7.956,9.362,16.01,18.708,23.09,28.723c4.459,6.309,2.37,18.323-3.778,22.453c-4.735,3.18-2.445,4.754-0.262,7.36
				c15.939,19.018,33.323,36.624,51.456,53.508c0.444,0.439,0.831,0.833,1.289,1.283c30.284,29.739,70.848,45.625,70.849,45.634
				c-30.941,61.794-103.706,106.389-158.494,133.973c-11.503-56.653-34.439-90.95-39.174-97.93
				c-6.541-9.515-14.158-20.211-14.927-21.279c-14.889-20.667-29.515-41.562-48.217-59.107c-4.787-4.491-9.834-8.716-14.892-12.903
				c-0.803-0.666-2.305-0.489-3.483-0.701c0.416,0.897,0.638,1.976,1.282,2.656c1.996,2.109,5.927,4.161,5.826,6.059
				c-0.149,2.776-2.858,5.653-4.974,8.047c-23.572,26.672-47.246,53.254-70.871,79.878c-1.813,2.043-3.615,4.123-5.18,6.356
				c-9.667,13.784-20.566,26.665-29.866,40.716c-0.15,0.229-0.302,0.46-0.482,0.664c-1.58,1.791-3.168,3.575-4.753,5.362
				c0.793-2.434,1.098-5.191,2.461-7.246c7.704-11.624,15.679-23.068,23.497-34.617c0.479-0.706,0.408-1.782,0.593-2.686
				c-0.662,0.433-1.512,0.726-1.958,1.321c-5.57,7.447-11.085,14.935-16.603,22.421c-1.459,1.979-2.754,4.096-4.34,5.964
				c-7.59,8.936-14.876,18.174-23.01,26.589c-6.621,6.849-13.89,13.229-21.575,18.858c-15.5,11.353-31.001,22.571-42.162,38.625
				c-0.596,0.857-1.938,1.195-2.932,1.775c0.257-0.998,0.343-2.085,0.801-2.98c6.274-12.262,16.569-20.93,26.696-29.744
				c9.295-8.089,19.287-15.514,27.746-24.398c14.131-14.842,27.301-30.6,40.808-46.032c0.779-0.889,0.956-2.306,1.411-3.478
				c-0.842,0.653-1.783,1.211-2.511,1.973c-9.641,10.079-19.986,19.597-28.695,30.429c-12.621,15.698-27.461,28.825-42.976,41.397
				c-3.39,2.748-6.257,6.131-9.485,9.091c-12.066,11.065-24.55,21.705-36.158,33.228c-8.52,8.457-15.894,18.067-23.858,27.093
				c-0.71,0.805-2.011,1.089-3.037,1.615c0.309-0.966,0.389-2.098,0.958-2.872c10.722-14.601,22.878-27.916,36.1-40.291
				c3.184-2.979,6.053-6.307,8.917-9.605c0.741-0.852,0.917-2.195,1.353-3.312c-0.886,0.58-1.902,1.028-2.638,1.759
				c-6.986,6.942-13.903,13.951-20.88,20.903c-15.307,15.254-30.66,30.464-45.947,45.738c-5.221,5.216-10.274,10.6-15.499,15.812
				c-0.522,0.521-1.699,0.386-2.572,0.556c0.279-0.724,0.391-1.591,0.866-2.148c4.088-4.785,7.982-9.773,12.425-14.21
				c14.703-14.686,29.616-29.163,44.42-43.749c0.721-0.709,1.171-1.694,1.746-2.551c-1.133,0.34-2.544,0.36-3.358,1.067
				c-11.344,9.865-22.633,19.795-33.881,29.77c-7.965,7.064-16.35,13.746-23.651,21.447c-10.502,11.078-20.199,22.92-30.206,34.465
				c-0.889,1.026-1.392,2.398-2.321,3.374c-0.632,0.663-1.696,0.914-2.568,1.349c0.305-0.942,0.415-2.015,0.945-2.807
				c13.921-20.802,30.174-39.55,49.288-55.764c0.627-0.531,1.418-0.924,1.9-1.558c0.892-1.171,1.611-2.473,2.402-3.72
				c-1.391,0.732-2.94,1.267-4.146,2.23c-5.352,4.27-10.828,8.422-15.846,13.064c-8.223,7.609-16.089,15.605-24.188,23.353
				c-2.755,2.635-5.823,4.939-8.632,7.521c-8.599,7.903-17.414,15.599-25.61,23.902c-5.547,5.62-10.185,12.137-15.261,18.226
				c-0.478,0.574-1.191,0.952-1.793,1.422c0.103-0.748-0.018-1.641,0.351-2.221c1.906-2.992,3.927-5.91,5.925-8.842
				c1.831-2.684,3.685-5.353,5.529-8.029c-0.5,0.21-1.044,0.351-1.493,0.64c-7.742,4.998-14.952,10.45-21.759,16.883
				c-7.603,7.187-17.503,11.954-26.482,17.648c-0.443,0.281-1.651-0.644-2.501-1.007c0.095,0.891,0.191,1.781,0.286,2.672
				c2.992-0.839,5.98-1.695,8.979-2.507c1.741-0.471,3.503-0.866,5.254-1.296c-1.321,1.455-2.549,3.013-4.002,4.324
				c-0.773,0.698-1.95,0.934-2.912,1.439c-10.608,5.562-21.313,10.95-31.748,16.818c-3.215,1.808-5.331,5.592-8.562,7.348
				c-16.694,9.074-30.896,21.606-45.226,33.661c-25.612,21.542-52.14,42.144-75.007,66.794c-0.882,0.951-1.475,2.171-2.194,3.274
				c-2.294,1.206-4.626,2.346-6.849,3.671c-1.16,0.69-1.991,2.309-3.165,2.543c-11.44,2.285-15.556,12.145-20.702,20.498
				c-5.868,9.526-11.173,19.482-15.797,29.672c-0.841,1.856-1.514,3.608-2.036,5.27
				C229.758,909.286,229.783,908.732,229.922,908.146z"/>
		</g>
		<g>
			<path fill="#3D3D3D" d="M840.808,343.548c0,0,5.328-5.292,7.564-7.536c0.396-0.397,0.808-0.804,1.205-1.203
				c33.416,17.297,69.994,29.425,105.367,38.465c27.909,7.132,55.355,10.41,83.143,8.194c0.172,0.16,0.35,0.322,0.522,0.483
				c6.62,7.773,18.956,27.813,57.98,40.588c-27.003,43.96-75.742,83.59-134.318,113.505
				c-13.959-42.942-32.863-111.39-123.338-181.561c-0.059-0.092-0.117-0.186-0.175-0.28c-0.686-1.093-2.104-3.353-2.795-4.718
				c0.778-1.184,2.249-3.06,3.058-4.086C839.547,344.727,840.192,344.148,840.808,343.548z"/>
		</g>
	</g>
	<g>
		<g>
			<path fill="#3D3D3D" d="M978.76,906.006c-2.015-8.512-4.827-16.432-8.353-23.54c-6.849-13.797-15.566-27.875-26.652-43.037
				c-11.947-16.338-26.009-31.926-44.257-49.057c-16.146-15.156-34.205-31.48-56.833-51.374
				c-19.288-16.956-39.989-34.829-62.354-50.593c-17.869-12.594-36.409-25.947-51.307-36.677
				c-8.229-5.928-16.403-11.936-24.576-17.945l-7.732-5.68c-2.84-2.083-5.665-4.186-8.492-6.289
				c-0.447-0.334-0.928-0.673-1.378-1.008c-2.174,2.054-4.52,4.171-7.016,6.34c3.796,2.819,7.58,5.65,11.391,8.446
				c10.779,7.908,21.527,15.86,32.373,23.673c17.086,12.304,34.175,24.602,51.384,36.732c21.662,15.268,41.714,32.518,61.572,49.977
				c19.105,16.794,38.066,33.765,56.609,51.17c15.66,14.7,30.331,30.28,43.117,47.767c9.73,13.307,18.548,27.013,25.83,41.685
				c3.369,6.788,5.887,14.166,7.636,21.55c0.138,0.586,0.164,1.14,0.249,1.71c-0.522-1.662-1.193-3.414-2.035-5.27
				c-4.624-10.19-9.93-20.146-15.797-29.672c-5.146-8.353-9.262-18.213-20.702-20.498c-1.175-0.234-2.005-1.853-3.165-2.543
				c-2.223-1.324-4.555-2.464-6.849-3.67c-0.719-1.103-1.312-2.323-2.195-3.275c-22.866-24.65-49.395-45.252-75.006-66.793
				c-14.332-12.055-28.533-24.587-45.227-33.661c-3.231-1.756-5.347-5.54-8.561-7.348c-10.435-5.868-21.141-11.256-31.748-16.818
				c-0.964-0.505-2.138-0.741-2.913-1.439c-1.452-1.311-2.681-2.869-4.001-4.324c1.753,0.43,3.513,0.825,5.255,1.296
				c2.999,0.812,5.987,1.668,8.98,2.507c0.095-0.891,0.191-1.781,0.286-2.672c-0.851,0.363-2.058,1.287-2.501,1.007
				c-8.979-5.694-18.88-10.461-26.482-17.647c-6.808-6.434-14.018-11.885-21.758-16.883c-0.449-0.289-0.993-0.43-1.493-0.64
				c1.843,2.675,3.697,5.344,5.528,8.028c1.998,2.932,4.02,5.85,5.927,8.842c0.369,0.58,0.247,1.472,0.352,2.221
				c-0.602-0.47-1.317-0.848-1.794-1.422c-5.075-6.089-9.713-12.606-15.26-18.226c-8.197-8.303-17.012-15.999-25.61-23.902
				c-2.81-2.582-5.878-4.886-8.632-7.521c-3.382-3.234-6.716-6.517-10.059-9.792c-1.075,0.846-2.168,1.693-3.266,2.543
				c8.207,9.327,15.765,19.227,22.736,29.644c0.531,0.792,0.64,1.865,0.946,2.807c-0.872-0.435-1.938-0.686-2.568-1.348
				c-0.93-0.976-1.433-2.348-2.322-3.374c-7.311-8.436-14.556-16.939-21.972-25.279c-2.797,2.135-5.644,4.272-8.518,6.4
				c0.326,0.332,0.629,0.73,0.954,1.071c-0.687,0.318-1.53,1.07-2.041,0.889c-0.35-0.124-0.694-0.261-1.044-0.386
				c-11.471,8.436-23.233,16.641-33.72,23.773c2.563,1.894,5.155,3.763,7.655,5.695c8.458,6.531,17.568,12.06,26.379,17.407
				c6.237,3.784,12.686,7.698,18.646,11.833c17.196,11.927,33.664,24.124,48.956,36.253c17.439,13.832,32.71,31.039,47.476,47.681
				l2.157,2.429l1.317,1.483c9.257,10.419,18.831,21.193,26.945,32.437c23.265,32.245,38.85,60.44,49.047,88.732
				c2.417,6.699,6.063,13.502,11.154,20.8c6.052,8.685,16.008,12.227,27.311,9.718c0.643-0.143,1.287-0.303,1.938-0.484
				c2.084-0.577,3.887-1.361,5.478-2.053c0.715-0.311,1.431-0.627,2.159-0.898c7.468-2.783,15.191-5.66,22.992-7.391
				c4.248-0.943,8.164-1.47,11.977-1.612c10.622-0.395,20.966-1.007,29.681-1.552c1.659-0.104,3.292-0.333,4.857-0.68
				c6.931-1.538,12.657-5.433,16.126-10.966C979.402,919.795,980.403,912.939,978.76,906.006z M725.818,710.122
				c-8.278-2.796-16.53-5.675-24.756-8.626c-0.565-0.203-0.862-1.162-1.285-1.769c0.464-0.104,0.99-0.407,1.381-0.282
				c8.826,2.815,17.641,5.664,26.439,8.567c0.397,0.132,0.612,0.822,1.341,1.871C727.646,710.001,726.62,710.393,725.818,710.122z
				 M799.4,760.645c-1.168-0.691-2.294-1.501-3.278-2.426c-0.29-0.273-0.034-1.13-0.019-2.295c1.511,0.774,2.477,1.209,3.384,1.741
				c11.294,6.625,22.724,13.033,33.814,19.984c6.686,4.192,12.86,9.206,19.205,13.932c0.737,0.55,1.094,1.613,1.629,2.438
				c-0.939-0.252-2.026-0.281-2.793-0.792c-8.176-5.432-16.163-11.161-24.477-16.369C817.861,771.217,808.555,766.051,799.4,760.645
				z M854.258,810.274c-6.768-4.53-13.527-9.074-20.238-13.691c-0.52-0.358-0.653-1.283-0.932-1.959
				c-0.006-0.014,0.395-0.196,0.627-0.31c0.483,0.181,1.044,0.276,1.469,0.569c6.707,4.625,13.411,9.256,20.062,13.962
				c0.416,0.294,0.382,1.22,0.558,1.852C855.285,810.562,854.681,810.554,854.258,810.274z M928.145,903.884
				c-5.639-6.902-11.27-13.813-16.842-20.768c-0.428-0.533-0.425-1.411-0.72-2.492c0.791,0.602,1.297,0.858,1.628,1.258
				c5.668,6.883,11.335,13.769,16.929,20.714c0.391,0.485,0.208,1.433,0.29,2.165C928.996,904.473,928.459,904.269,928.145,903.884z
				 M937.51,872.135c-8.134-8.835-16.152-17.774-24.153-26.731c-0.436-0.489-0.414-1.385-0.606-2.093
				c0.715,0.157,1.542,0.135,2.122,0.503c2.127,1.347,4.181,2.807,6.26,4.232l-0.006-0.003c1.549,1.851,3.016,3.776,4.658,5.538
				c4.84,5.194,9.844,10.24,14.538,15.558c0.836,0.949,0.505,2.929,0.713,4.433C939.841,873.111,938.288,872.98,937.51,872.135z"/>
		</g>
		<g>
			<path fill="#3D3D3D" d="M511.024,600.84l2.959,2.229c0.844,0.636,1.721,1.291,2.567,1.929
				c6.046-4.042,12.364-8.456,18.745-13.053c-0.563-0.387-1.137-0.76-1.695-1.154c-4.677-3.301-9.197-6.828-13.731-10.329
				c-0.52-0.403-0.657-1.304-0.971-1.974c0.713,0.112,1.562,0.015,2.112,0.374c2.512,1.64,4.886,3.492,7.408,5.115
				c3.16,2.033,6.33,4.049,9.494,6.077c3.326-2.415,6.654-4.866,9.961-7.328c-5.947-2.61-11.924-5.187-17.37-8.604
				c-29.01-18.204-55.054-40.353-81.329-62.18c-5.457-4.532-11.198-8.717-16.74-13.149c-0.589-0.471-0.711-1.525-1.049-2.309
				c0.429-0.387,0.857-0.773,1.285-1.161c1.427,1.247,2.808,2.553,4.289,3.732c13.039,10.371,26.108,20.705,39.144,31.08
				c19.886,15.827,39.632,31.861,61.757,44.561c4.02,2.308,8.269,4.216,12.487,6.181c1.794-1.344,3.573-2.685,5.341-4.024
				c-11.138-15.828-26.488-26.962-41.853-38.215c-7.683-5.629-14.953-12.009-21.573-18.858c-8.134-8.416-15.421-17.653-23.01-26.589
				c-1.586-1.869-2.881-3.985-4.34-5.965c-5.519-7.486-11.034-14.974-16.603-22.421c-0.447-0.596-1.296-0.888-1.959-1.321
				c0.185,0.904,0.116,1.98,0.593,2.686c7.818,11.549,15.793,22.993,23.498,34.617c1.362,2.056,1.667,4.813,2.46,7.246
				c-1.585-1.786-3.173-3.571-4.753-5.362c-0.18-0.204-0.329-0.436-0.481-0.665c-9.299-14.051-20.198-26.932-29.866-40.716
				c-1.566-2.232-3.368-4.312-5.18-6.356c-23.626-26.624-47.298-53.206-70.871-79.878c-2.116-2.394-4.825-5.272-4.973-8.048
				c-0.103-1.898,3.829-3.95,5.824-6.059c0.645-0.68,0.868-1.76,1.283-2.656c-1.179,0.212-2.679,0.035-3.483,0.701
				c-5.059,4.188-10.104,8.412-14.891,12.903c-18.702,17.545-33.329,38.44-48.217,59.107c-0.769,1.068-8.387,11.764-14.927,21.279
				c-4.735,6.981-27.672,41.277-39.176,97.93c-54.786-27.584-127.551-72.178-158.493-133.973
				c0.002-0.009,40.567-15.894,70.849-45.634c0.458-0.449,0.845-0.844,1.291-1.282c18.131-16.884,35.516-34.49,51.455-53.508
				c2.183-2.606,4.473-4.18-0.262-7.36c-6.147-4.13-8.237-16.144-3.777-22.453c7.079-10.015,15.133-19.361,23.089-28.723
				c1.628-1.915,4.64-2.651,7.008-3.928c7.124,0.67,14.783-1.373,19.048,6.749c0.881,1.678,1.955,2.101,3.098,1.848
				c0.76-0.169,1.549-0.637,2.331-1.232c2.18-1.661,4.333-3.361,6.415-5.142c1.85-1.585,3.773-2.589,5.741-3.027
				c2.83-0.628,5.762-0.083,8.729,1.603c4.037,2.297,8.233,4.587,11.644,7.672c17.432,15.781,34.704,31.742,51.881,47.802
				c7.582,7.091,14.811,14.565,22.193,21.874c1.165,1.155,2.402,2.264,3.409,3.548c6.914,8.801,7,9.607,0.814,19.466
				c-1.16,1.851-1.805,3.086-0.161,4.994c2.286,2.65,3.998,5.82,6.411,8.328c10.598,11.006,21.158,22.06,32.1,32.717
				c25.68,25.008,51.448,49.929,77.429,74.623c12.253,11.646,24.761,23.07,37.726,33.913c19.304,16.15,38.893,31.979,58.766,47.427
				c2.652-2.102,5.159-4.1,7.49-5.967c-0.447-0.347-0.917-0.681-1.364-1.028c-19.414-15.084-39.241-31.084-58.933-47.557
				c-11.469-9.593-23.317-20.244-37.286-33.521c-22.765-21.637-47.343-45.324-77.348-74.545c-9.771-9.516-19.445-19.572-28.8-29.296
				l-3.089-3.21c-0.844-0.876-1.734-2.143-2.679-3.483c-0.253-0.358-0.515-0.73-0.786-1.109c6.55-11.224,5.738-16.386-2.985-27.491
				c-1.173-1.493-2.389-2.671-3.463-3.712l-0.715-0.697c-2.209-2.187-4.404-4.388-6.596-6.59
				c-5.098-5.113-10.369-10.401-15.789-15.469c-18.932-17.702-35.937-33.371-51.992-47.904c-3.927-3.555-8.445-6.116-12.431-8.375
				l-0.855-0.486c-4.967-2.823-10.269-3.721-15.333-2.597c-3.478,0.772-6.765,2.467-9.769,5.037
				c-0.582,0.499-1.188,1.005-1.824,1.526c-5.881-5.624-13.438-5.728-18.367-5.796c-1.368-0.019-2.66-0.036-3.788-0.143
				l-2.801-0.264l-2.479,1.335c-0.513,0.277-1.076,0.505-1.633,0.745c-2.331,1.002-5.522,2.375-8.046,5.344l-1.601,1.884
				c-7.45,8.756-15.15,17.81-21.995,27.492c-3.609,5.103-4.914,12.162-3.59,19.365c0.902,4.9,2.935,9.27,5.781,12.583
				c-11.372,13.359-24.215,26.916-38.893,41.06c-4.505,4.677-8.925,8.785-13.292,12.489c-0.801,0.736-1.57,1.463-2.381,2.203
				c-2.976,2.717-6.439,5.151-10.226,7.412c-22.627,15.41-43.231,25.049-67.207,31.526
				c42.133,96.943,174.844,153.065,184.559,155.781c2.441-18.82,14.85-93.019,62.674-135.638c4.834,3.906,9.702,7.775,14.569,11.644
				c10.48,8.334,21.319,16.951,31.571,25.765c7.799,6.704,15.392,14.15,22.737,21.35c3.197,3.135,6.394,6.271,9.625,9.367
				c5.277,5.056,10.534,10.134,15.789,15.211c10.916,10.547,22.204,21.452,33.528,32.001c12.663,11.8,25.983,23.626,39.591,35.149
				c8.115,6.874,16.672,13.289,24.945,19.493L511.024,600.84z M409.764,437.463c-0.468-0.007-0.945,0.04-1.397-0.044
				c-0.236-0.043-0.462-0.288-0.636-0.491c-10.699-12.365-21.414-24.716-32.055-37.131c-1.046-1.219-1.689-2.802-2.402-4.273
				c-0.191-0.393,0.049-0.995,0.099-1.629c0.711,0.511,1.489,0.875,2.002,1.469c10.51,12.19,20.999,24.399,31.464,36.628
				c1.063,1.239,1.998,2.596,2.881,3.971C409.951,436.325,409.76,436.956,409.764,437.463z M424.689,481.6
				c0.256-0.223,0.511-0.446,0.765-0.669c0.93,0.513,1.916,0.944,2.782,1.55c6.263,4.387,12.4,8.964,18.777,13.177
				c5.908,3.902,12.078,7.406,18.081,11.164c0.464,0.289,0.539,1.199,0.793,1.821c-0.531,0.054-1.128,0.291-1.581,0.129
				c-1.796-0.643-3.738-1.128-5.281-2.177c-10.837-7.358-21.604-14.82-32.34-22.323C425.821,483.667,425.345,482.503,424.689,481.6z
				"/>
		</g>
		<g>
			<path fill="#3D3D3D" d="M560.863,561.152c0.436,1.117,0.611,2.46,1.352,3.312c1.285,1.48,2.58,2.96,3.895,4.418
				c0.632-0.488,1.268-0.979,1.893-1.462c-1.5-1.502-2.997-3.012-4.503-4.508C562.765,562.181,561.747,561.732,560.863,561.152z"/>
		</g>
		<g>
			<path fill="#3D3D3D" d="M535.652,546.205c-15.514-12.573-30.355-25.699-42.977-41.398c-8.708-10.831-19.053-20.349-28.693-30.428
				c-0.728-0.762-1.669-1.32-2.511-1.973c0.454,1.171,0.631,2.588,1.41,3.477c13.507,15.432,26.677,31.19,40.809,46.032
				c8.46,8.884,18.449,16.309,27.745,24.398c9.915,8.63,19.94,17.167,26.247,29.028c1.772-1.346,3.523-2.685,5.251-4.013
				c-5.93-5.344-11.913-10.638-17.795-16.033C541.91,552.336,539.042,548.953,535.652,546.205z"/>
		</g>
		<g>
			<path fill="#3D3D3D" d="M248.397,260.397c-7.545-3.373-14.523-2.56-20.118,3.68c-5.635,6.284-10.532,13.233-16.231,19.45
				c-6.117,6.674-6.68,13.901-3.898,21.993c1.001,2.908,1.717,5.736,5.498,6.227c2.86,0.371,3.859,2.314,3.659,4.958
				c1.066-0.977,2.29-1.851,3.055-3.025c1.871-2.866,3.074-6.248,5.264-8.811c7.781-9.109,15.898-17.927,23.807-26.93
				c2.769-3.154,6.851-6.339,1.081-10.521c-0.408-0.296-0.531-1.891-0.193-2.176C254.692,261.57,250.571,261.369,248.397,260.397z"
				/>
		</g>
		<g>
			<path fill="#3D3D3D" d="M785.519,728.933c-0.281-0.633-0.386-1.549-0.874-1.856c-4.746-2.982-9.49-5.983-14.399-8.676
				c-1.025-0.561-2.628-0.062-4.013,0.039c5.936,3.52,11.863,7.051,17.823,10.528C784.415,729.178,785.025,728.955,785.519,728.933z
				"/>
		</g>
		<g>
			<path fill="#3D3D3D" d="M766.233,718.441c-0.03-0.018-0.06-0.036-0.09-0.053c-0.047-0.013-0.092-0.026-0.136-0.038
				c-0.004,0.038-0.008,0.077-0.013,0.116C766.071,718.463,766.155,718.446,766.233,718.441z"/>
		</g>
		<g>
			<path fill="#3D3D3D" d="M161.557,381.468c-0.172,0.16-0.35,0.322-0.522,0.483c-6.621,7.773-18.956,27.812-57.98,40.587
				c27.002,43.96,75.741,83.59,134.318,113.505c13.957-42.942,32.862-111.39,123.336-181.561c0.06-0.092,0.118-0.186,0.176-0.28
				c0.687-1.093,2.103-3.353,2.795-4.718c-0.778-1.184-2.249-3.06-3.057-4.086c-0.526-0.671-1.171-1.25-1.786-1.85
				c0,0-5.328-5.292-7.563-7.536c-0.397-0.397-0.808-0.804-1.207-1.203c-33.415,17.297-69.994,29.425-105.366,38.465
				C216.79,380.406,189.345,383.683,161.557,381.468z"/>
		</g>
		<g>
			<path fill="#3D3D3D" d="M216.476,317.77c0.277-0.232,0.561-0.455,0.833-0.69c0.017-0.135-0.011-0.244-0.002-0.375
				c-0.078,0.072-0.165,0.139-0.241,0.212C216.864,317.197,216.676,317.489,216.476,317.77z"/>
		</g>
	</g>
	<g>
		<circle fill="#97BA9C" cx="390.494" cy="216.726" r="20.388"/>
		<circle fill="#97BA9C" cx="824.037" cy="216.726" r="20.388"/>
	</g>
	<g>
		<circle fill="#97BA9C" cx="390.494" cy="1004.264" r="20.388"/>
		<circle fill="#97BA9C" cx="824.037" cy="1004.264" r="20.388"/>
	</g>
	<g>
		<g>
			<g>
				<g>
					<path fill="#726767" d="M102.568,639.21v8.271H74.761v13.793h24.974v7.831H74.761v13.936h28.701v8.277H65.964V639.21H102.568z"
						/>
					<path fill="#726767" d="M145.396,646.07c-2.56,0-4.659,0.52-6.299,1.566c-1.641,1.04-2.461,2.619-2.461,4.73
						c0,2.117,0.82,3.727,2.461,4.847c1.641,1.121,5.129,2.322,10.472,3.615c5.343,1.294,9.37,3.108,12.079,5.442
						c2.709,2.334,4.061,5.776,4.061,10.326c0,4.544-1.712,8.234-5.141,11.069c-3.43,2.835-7.928,4.247-13.493,4.247
						c-8.153,0-15.384-2.804-21.696-8.419l5.52-6.637c5.265,4.575,10.735,6.86,16.399,6.86c2.832,0,5.08-0.607,6.745-1.827
						c1.665-1.219,2.498-2.835,2.498-4.847s-0.783-3.578-2.346-4.699c-1.566-1.114-4.262-2.136-8.088-3.052
						c-3.829-0.922-6.736-1.764-8.723-2.538c-1.99-0.768-3.755-1.777-5.293-3.015c-3.083-2.34-4.621-5.919-4.621-10.735
						c0-4.822,1.752-8.537,5.256-11.15c3.501-2.606,7.837-3.913,13.007-3.913c3.33,0,6.636,0.551,9.915,1.641
						c3.281,1.096,6.113,2.637,8.5,4.625l-4.699,6.63c-1.538-1.387-3.628-2.532-6.262-3.43
						C150.55,646.515,147.953,646.07,145.396,646.07z"/>
					<path fill="#726767" d="M211.183,647.258v44.06h-8.797v-44.06h-15.802v-8.048h40.405v8.048H211.183z"/>
					<path fill="#726767" d="M290.875,646.032c5.021,4.544,7.531,10.871,7.531,18.969c0,8.104-2.436,14.511-7.308,19.235
						c-4.869,4.724-12.326,7.082-22.364,7.082h-17.294V639.21h17.892C278.673,639.21,285.855,641.482,290.875,646.032z
						 M289.535,665.224c0-11.923-6.835-17.891-20.501-17.891h-8.797v35.709h9.766c6.312,0,11.144-1.498,14.499-4.507
						C287.857,675.525,289.535,671.093,289.535,665.224z"/>
				</g>
				<g>
					<path fill="#726767" d="M917.568,639.21h18.938v52.108h-8.352v-44.283h-10.586V639.21z"/>
					<path fill="#726767" d="M978.548,684.013c4.619,0,8.023-1.566,10.215-4.699c2.185-3.126,3.3-7.355,3.349-12.673
						c-1.238,1.393-3.027,2.699-5.368,3.912c-2.334,1.22-4.916,1.826-7.751,1.826c-4.674,0-8.587-1.547-11.738-4.655
						c-3.157-3.108-4.736-7.231-4.736-12.376c0-5.145,1.702-9.28,5.108-12.413s7.689-4.699,12.858-4.699
						c8.352,0,14.115,3.727,17.297,11.187c1.789,4.272,2.681,9.095,2.681,14.462c0,5.368-0.57,9.837-1.715,13.416
						c-1.145,3.578-2.706,6.414-4.693,8.5c-3.882,4.073-8.636,6.11-14.276,6.11c-5.646,0-10.754-1.764-15.322-5.293l4.396-6.482
						c1.145,0.99,2.674,1.888,4.587,2.681C975.353,683.617,977.056,684.013,978.548,684.013z M980.151,664.63
						c3.003,0,5.516-0.83,7.528-2.495c2.012-1.666,3.021-3.826,3.021-6.488c0-2.656-0.972-4.946-2.909-6.859
						s-4.359-2.866-7.268-2.866c-2.91,0-5.306,0.854-7.194,2.569c-1.888,1.715-2.836,3.913-2.836,6.6
						c0,2.681,0.86,4.946,2.575,6.785C974.784,663.713,977.143,664.63,980.151,664.63z"/>
					<path fill="#726767" d="M1030.953,642.113c3.331-2.631,7.503-3.95,12.524-3.95s9.194,1.319,12.524,3.95
						c3.331,2.637,4.996,5.956,4.996,9.955s-1.863,7.541-5.59,10.624c5.015,3.182,7.528,7.652,7.528,13.415
						c0,4.476-1.789,8.228-5.368,11.261c-3.578,3.034-8.277,4.544-14.09,4.544s-10.512-1.51-14.09-4.544
						c-3.578-3.034-5.368-6.785-5.368-11.261c0-5.764,2.507-10.233,7.528-13.415c-3.727-3.083-5.59-6.625-5.59-10.624
						S1027.623,644.751,1030.953,642.113z M1036.172,682.112c2.285,1.467,4.724,2.198,7.305,2.198s5.021-0.731,7.305-2.198
						c2.284-1.467,3.429-3.566,3.429-6.302c0-2.73-1.096-4.841-3.281-6.333c-2.186-1.492-4.668-2.235-7.454-2.235
						s-5.269,0.743-7.454,2.235c-2.192,1.492-3.281,3.603-3.281,6.333C1032.743,678.547,1033.888,680.646,1036.172,682.112z
						 M1036.878,658.408c1.863,1.517,4.067,2.272,6.599,2.272s4.736-0.755,6.599-2.272c1.863-1.517,2.792-3.38,2.792-5.596
						c0-2.21-0.929-4.061-2.792-5.553c-1.863-1.486-4.067-2.235-6.599-2.235s-4.736,0.749-6.599,2.235
						c-1.863,1.492-2.792,3.343-2.792,5.553C1034.086,655.027,1035.015,656.891,1036.878,658.408z"/>
					<path fill="#726767" d="M1109.751,659.559c1.492-2.037,2.235-4.098,2.235-6.185c0-2.087-0.792-3.863-2.384-5.33
						c-1.591-1.468-3.603-2.198-6.036-2.198c-4.278,0-7.832,2.186-10.661,6.556l-7.082-4.099c2.284-3.429,4.81-6.011,7.565-7.751
						c2.761-1.74,6.308-2.612,10.661-2.612c4.346,0,8.166,1.381,11.441,4.135c3.281,2.761,4.922,6.525,4.922,11.298
						c0,2.681-0.693,5.244-2.086,7.677c-1.393,2.433-3.95,5.566-7.677,9.392l-12.227,12.45h23.63v8.426h-35.635v-7.454
						l15.806-15.879C1105.752,664.407,1108.259,661.596,1109.751,659.559z"/>
				</g>
			</g>
			<rect x="66.86" y="714.713" fill="#726767" width="220.033" height="6.345"/>
		</g>
		<rect x="914.003" y="714.713" fill="#726767" width="220.033" height="6.345"/>
	</g>
</g>
</svg>
