<?xml version="1.0" encoding="utf-8"?>
<!--Designed by Vexels.com - 2017 All Rights Reserved - https://vexels.com/terms-and-conditions/-->
<svg version="1.1" id="Layer_1" xmlns="http://www.w3.org/2000/svg" xmlns:xlink="http://www.w3.org/1999/xlink" x="0px" y="0px"
	 viewBox="0 0 1200 1200" enable-background="new 0 0 1200 1200" xml:space="preserve">
<g>
	<g>
		<g>
			<path fill="#757575" d="M489.449,260.302h8.091v18.062h21.081v-18.062h8.092v42.278h-8.092v-17.154H497.54v17.154h-8.091V260.302
				z"/>
			<path fill="#757575" d="M555.28,260.302h8.092v42.278h-8.092V260.302z"/>
			<path fill="#757575" d="M620.57,281.563h7.062v16.066c-2.213,1.65-4.829,2.987-7.848,4.017c-3.019,1.024-5.98,1.539-8.882,1.539
				c-4.144,0-7.922-0.966-11.323-2.902c-3.401-1.931-6.091-4.558-8.06-7.879c-1.974-3.322-2.961-6.993-2.961-11.021
				c0-4.027,1.003-7.683,3.019-10.962c2.011-3.284,4.76-5.879,8.245-7.794c3.481-1.91,7.338-2.865,11.562-2.865
				c3.024,0,6.001,0.541,8.94,1.629s5.476,2.579,7.609,4.468l-4.59,5.98c-1.608-1.528-3.47-2.717-5.587-3.56
				c-2.112-0.849-4.234-1.268-6.372-1.268c-2.653,0-5.099,0.631-7.338,1.9c-2.234,1.268-3.995,3.014-5.279,5.226
				c-1.289,2.213-1.937,4.632-1.937,7.248c0,2.658,0.658,5.094,1.963,7.306c1.311,2.213,3.072,3.969,5.285,5.253
				c2.213,1.289,4.669,1.937,7.37,1.937c1.448,0,2.966-0.233,4.558-0.695c1.592-0.467,3.109-1.12,4.563-1.963V281.563z"/>
			<path fill="#757575" d="M655.111,260.302h8.091v18.062h21.081v-18.062h8.092v42.278h-8.092v-17.154h-21.081v17.154h-8.091
				V260.302z"/>
			<path fill="#757575" d="M453.575,379.888c-1.613,1.449-3.465,2.584-5.561,3.412c-2.09,0.822-4.144,1.236-6.16,1.236
				c-2.653,0-5.131-0.775-7.428-2.324c-2.292-1.549-4.245-3.735-5.858-6.553c-4.186,0-7.991-0.966-11.413-2.902
				c-3.422-1.931-6.123-4.558-8.091-7.879c-1.974-3.321-2.961-6.993-2.961-11.021c0-4.027,0.987-7.693,2.961-10.994
				c1.968-3.3,4.68-5.895,8.123-7.789c3.438-1.894,7.253-2.838,11.445-2.838c4.186,0,8.001,0.944,11.445,2.838
				c3.438,1.894,6.149,4.489,8.123,7.789c1.969,3.301,2.955,6.967,2.955,10.994c0,3.141-0.616,6.091-1.841,8.845
				c-1.226,2.759-2.95,5.147-5.163,7.158c-2.218,2.016-4.77,3.523-7.673,4.531c2.133,2.255,4.25,3.38,6.341,3.38
				c2.175,0,4.712-1.125,7.614-3.38L453.575,379.888z M416.338,361.163c1.311,2.213,3.062,3.969,5.253,5.253
				c2.197,1.289,4.584,1.937,7.158,1.937c2.536,0,4.892-0.647,7.068-1.937c2.175-1.284,3.895-3.04,5.163-5.253
				c1.268-2.213,1.905-4.648,1.905-7.307c0-2.658-0.637-5.083-1.905-7.279c-1.268-2.191-2.987-3.926-5.163-5.195
				c-2.176-1.268-4.532-1.9-7.068-1.9c-2.573,0-4.972,0.631-7.184,1.9c-2.218,1.268-3.969,3.003-5.253,5.195
				c-1.289,2.197-1.937,4.621-1.937,7.279C414.375,356.515,415.032,358.95,416.338,361.163z"/>
			<path fill="#757575" d="M486.971,365.514c1.894,1.889,4.43,2.839,7.609,2.839c3.184,0,5.688-0.95,7.524-2.839
				c1.831-1.894,2.743-4.51,2.743-7.853v-24.885h8.097v24.885c0,3.661-0.748,6.855-2.234,9.572c-1.491,2.717-3.618,4.802-6.372,6.25
				c-2.759,1.449-6.012,2.175-9.758,2.175c-3.783,0-7.073-0.727-9.874-2.175c-2.796-1.449-4.94-3.534-6.431-6.25
				c-1.491-2.717-2.234-5.911-2.234-9.572v-24.885h8.092v24.885C484.132,361.004,485.076,363.619,486.971,365.514z"/>
			<path fill="#757575" d="M570.677,375.054l-3.746-8.941h-20.651l-3.746,8.941h-8.394l18.539-42.278h8.394l18.3,42.278H570.677z
				 M549.178,359.168h14.857l-7.37-17.754L549.178,359.168z"/>
			<path fill="#757575" d="M602.63,332.776h8.092v34.971h18.242v7.306H602.63V332.776z"/>
			<path fill="#757575" d="M653.419,332.776h8.092v42.278h-8.092V332.776z"/>
			<path fill="#757575" d="M685.308,332.776h34.489v7.19h-13.169v35.088h-8.155v-35.088h-13.164V332.776z"/>
			<path fill="#757575" d="M777.652,332.776l-15.398,28.445v13.833h-8.097v-13.53l-15.759-28.748h8.214l11.535,19.871l11.355-19.871
				H777.652z"/>
		</g>
	</g>
	<g>
		<g>
			<g>
				<g>
					<path fill="#898989" d="M68.79,635.587h13.679v8.895H59.894v-88.962h22.576v8.894H68.79v30.25h7.785v8.894H68.79V635.587z"/>
				</g>
				<g>
					<path fill="#898989" d="M115.829,569.529c0-3.41-1.261-5.115-3.78-5.115c-2.522,0-3.782,1.705-3.782,5.115v12.124
						c0,3.853,2.742,9.412,8.229,16.68c5.487,7.268,8.229,13.529,8.229,18.791v7.785c0,13.048-4.225,19.572-12.676,19.572
						c-8.451,0-12.678-6.524-12.678-19.572v-11.01h8.896v16.569c0,3.414,1.259,5.119,3.782,5.119c2.518,0,3.78-1.705,3.78-5.119
						v-10.23c0-5.485-2.742-11.75-8.229-18.791c-5.487-7.042-8.229-13.94-8.229-20.685v-5.67c0-13.048,4.227-19.572,12.678-19.572
						c8.451,0,12.676,6.524,12.676,19.572v8.118h-8.896V569.529z"/>
				</g>
				<g>
					<path fill="#898989" d="M139.737,555.519h26.69v8.894h-8.896v80.067h-8.897v-80.067h-8.896V555.519z"/>
				</g>
				<g>
					<path fill="#898989" d="M208.126,624.909c0,13.048-4.447,19.572-13.344,19.572h-13.346v-88.962h13.346
						c8.896,0,13.344,6.524,13.344,19.572V624.909z M199.23,569.529c0-3.41-1.483-5.115-4.447-5.115h-4.449v71.173h4.449
						c2.964,0,4.447-1.705,4.447-5.119V569.529z"/>
				</g>
			</g>
			<g>
				<rect x="59.511" y="661.974" fill="#898989" width="147.944" height="8.752"/>
			</g>
			<g>
				<rect x="59.511" y="529.274" fill="#898989" width="147.944" height="8.752"/>
			</g>
		</g>
		<g>
			<g>
				<path fill="#898989" d="M991.29,564.414c3.262,0,4.893-2.259,4.893-6.783v-2.112h8.897v88.962h-8.897v-71.173h-4.893V564.414z"
					/>
			</g>
			<g>
				<path fill="#898989" d="M1023.314,616.791h8.897v13.677c0,3.414,1.483,5.119,4.449,5.119c2.964,0,4.447-1.705,4.447-5.119
					v-21.684c-1.335,1.113-2.818,1.668-4.447,1.668c-8.896,0-13.346-6.524-13.346-19.572v-15.788
					c0-13.048,4.449-19.572,13.346-19.572s13.344,6.524,13.344,19.572v49.818c0,13.048-4.448,19.572-13.344,19.572
					s-13.346-6.524-13.346-19.572V616.791z M1032.211,596.332c0,3.484,1.483,5.226,4.449,5.226c2.89,0,4.373-1.594,4.447-4.782
					v-27.246c0-3.41-1.483-5.115-4.447-5.115c-2.966,0-4.449,1.705-4.449,5.115V596.332z"/>
			</g>
			<g>
				<path fill="#898989" d="M1094.926,583.986c0,8.007-1.816,13.048-5.448,15.123c3.632,2.079,5.448,7.12,5.448,15.127v10.673
					c0,13.048-4.445,19.572-13.344,19.572c-8.894,0-13.344-6.524-13.344-19.572v-10.673c0-8.007,1.816-13.048,5.45-15.127
					c-3.634-2.075-5.45-7.116-5.45-15.123v-8.895c0-13.048,4.449-19.572,13.344-19.572c8.899,0,13.344,6.524,13.344,19.572V583.986z
					 M1086.032,569.529c0-3.41-1.483-5.115-4.449-5.115c-2.966,0-4.447,1.705-4.447,5.115v20.016c0,3.266,1.518,4.971,4.558,5.119
					c2.892,0,4.338-1.705,4.338-5.119V569.529z M1086.032,608.673c0-3.262-1.446-4.967-4.338-5.115c-3.04,0-4.558,1.705-4.558,5.115
					v21.795c0,3.414,1.481,5.119,4.447,5.119c2.966,0,4.449-1.705,4.449-5.119V608.673z"/>
			</g>
			<g>
				<path fill="#898989" d="M1113.163,627.58c0-7.712,2.892-15.94,8.677-24.687c6.002-8.825,9.042-16.98,9.116-24.465v-8.899
					c0-3.41-1.5-5.115-4.503-5.115c-3.003,0-4.503,1.705-4.503,5.115v13.681h-8.787v-8.118c0-13.048,4.449-19.572,13.348-19.572
					c8.895,0,13.344,6.524,13.344,19.572v4.893c0,8.003-2.95,16.384-8.841,25.131c-5.895,8.747-8.878,16.643-8.952,23.684v6.787
					h17.793v8.895h-26.692V627.58z"/>
			</g>
			<g>
				<rect x="992.545" y="661.974" fill="#898989" width="147.944" height="8.752"/>
			</g>
			<g>
				<rect x="992.545" y="529.274" fill="#898989" width="147.944" height="8.752"/>
			</g>
		</g>
	</g>
	<g>
		<g>
			<path fill="#1E120D" d="M304.382,571.703H333.4V444.021h29.018v290.188H333.4V600.722h-29.018v133.487h-29.018V444.021h29.018
				V571.703z"/>
			<path fill="#1E120D" d="M385.627,734.209V444.021h29.023v290.188H385.627z"/>
			<path fill="#1E120D" d="M466.882,734.209h-29.024V444.021h44.623c32.154,0,48.242,22.253,48.242,66.744v11.609
				c0,44.496-15.96,66.744-47.881,66.744h-15.96V734.209z M482.843,560.099c12.57,0,18.857-6.532,18.857-19.59v-47.881
				c0-13.058-6.41-19.584-19.218-19.584h-15.599v87.055H482.843z"/>
			<path fill="#1E120D" d="M603.267,489.726c0-11.121-4.117-16.682-12.331-16.682c-8.224,0-12.337,5.561-12.337,16.682v39.54
				c0,12.575,8.946,30.711,26.843,54.407c17.892,23.702,26.843,44.135,26.843,61.305v25.389c0,42.564-13.785,63.841-41.349,63.841
				c-27.57,0-41.355-21.277-41.355-63.841v-35.911h29.018v54.047c0,11.127,4.112,16.687,12.337,16.687
				c8.213,0,12.331-5.561,12.331-16.687v-33.369c0-17.892-8.951-38.325-26.843-61.305c-17.897-22.969-26.843-45.456-26.843-67.465
				v-18.502c0-42.559,13.785-63.841,41.355-63.841c27.564,0,41.349,21.282,41.349,63.841v26.482h-29.018V489.726z"/>
			<path fill="#1E120D" d="M644.982,444.021h87.05v29.024h-29.013v261.164h-29.024V473.044h-29.013V444.021z"/>
			<path fill="#1E120D" d="M773.742,705.191h44.618v29.018h-73.636V444.021h73.636v29.024h-44.618v98.659h25.389v29.018h-25.389
				V705.191z"/>
			<path fill="#1E120D" d="M866.236,734.209h-29.018V444.021h44.618c32.159,0,48.242,20.317,48.242,60.939v31.921
				c0,26.843-7.497,45.95-22.492,57.315l21.765,140.014h-29.379l-18.502-133.487h-15.233V734.209z M882.196,571.703
				c12.57,0,18.863-6.527,18.863-19.585v-59.49c0-13.058-6.41-19.584-19.223-19.584h-15.599v98.659H882.196z"/>
		</g>
	</g>
	<g>
		<g>
			<path fill="#AAAAAA" d="M823.031,840.892c-0.414-0.169-0.824-0.338-1.238-0.382c-1.102-0.117-2.064,0.399-2.615,1.335
				c-6.893,13.913-16.576,24.918-32.499,29.282c0.838-2.25,1.256-3.372,2.093-5.609c4.458-11.583,6.683-17.286,11.121-28.492
				c4.437-10.67,8.166-18.876,10.374-23.717c0.69-1.787-1.231-3.821-2.882-4.06c-1.1-0.159-2.199,0.44-2.615,1.396
				c-9.257,21.135-8.442,19.227-10.249,24.067c-5.556,14.247-14.45,27.599-21.782,27.224c-7.883-0.404-9.111-5.265-9.096-9.135
				c0.019-4.81,2.392-8.913,8.529-24.371c3.069-7.767,4.602-11.611,7.663-19.215c0.696-1.622-0.399-3.723-2.745-4.012
				c-1.104-0.135-2.211,0.389-2.627,1.391c-3.121,7.656-4.684,11.527-7.812,19.344c-1.883,4.531-3.496,8.343-4.833,11.686
				c-8.196,16.286-13.164,23.159-19.544,22.891c-2.907-0.123-4.146-1.955-4.129-5.928c0.045-10.558,10.921-27.707,10.972-39.782
				c0.03-7.19-2.986-13.099-12.958-14.036c-4.57-0.429-8.878,1.802-12.915,5.649c0.449-1.075,0.673-1.613,1.122-2.687
				c0.7-1.748-0.676-3.946-2.758-4.121c-1.245-0.104-2.358,0.501-2.781,1.725c-3.068,8.121-7.205,19.545-11.527,31.553
				c-0.081,0.122-0.206,0.181-0.275,0.316c-0.056,0.167-0.084,0.25-0.14,0.416c-4.622,10.179-11.337,25.239-19.94,25.017
				c-2.912-0.075-4.154-1.815-4.14-6.094c0.021-6.28,4.644-18.565,9.696-32.65c2.805-7.465,4.208-11.181,7.015-18.57
				c0.701-1.654-0.402-3.987-2.622-4.136c-1.25-0.083-2.365,0.552-2.787,1.661c-0.701,1.799-1.542,3.875-2.383,6.238
				c-2.481-5.259-6.781-7.949-12.619-8.267c-12.364-0.672-23.313,17.513-28.178,34.695c-2.332,7.96-8.639,16.977-15.889,16.886
				c-2.5-0.031-4.861-1.073-6.527-2.982c5.012-7.802,10.741-23.954,10.76-33.968c0.017-9-2.891-16.645-11.665-16.814
				c-5.152-0.1-9.612,2.752-13.512,6.938c0.445-1.218,0.668-1.827,1.113-3.045c0.701-1.888-0.693-4.089-2.781-4.108
				c-1.254-0.011-2.369,0.71-2.786,2.016c-0.335,0.931-0.503,1.397-0.839,2.329c-1.357,3.661-6.941,19.815-13.227,37.949
				c-6.233,14.124-11.249,20.823-17.237,20.86c-2.915,0.018-4.166-1.864-4.171-6.081c-0.015-12.521,10.676-29.37,10.667-43.359
				c-0.005-7.723-3.075-13.7-13.102-13.51c-6.544,0.123-13.632,6.997-17.655,13.773c-0.016-7.685-4.482-13.212-12.831-12.88
				c-4.729,0.188-9.172,3.704-13.191,8.763c0.414-1.454,0.874-2.642,1.381-3.938c0.721-1.842-0.707-3.99-2.795-3.886
				c-1.252,0.062-2.36,0.835-2.774,2.144c-3.759,11.235-7.551,22.416-11.339,33.548c-0.021,0.051-0.077,0.074-0.096,0.127
				c-4.815,12.012-9.651,17.537-15.476,17.747c-3.19,0.115-5.552-0.779-7.085-2.68c6.334-11.214,10.722-25.315,10.687-34.222
				c-0.033-8.489-4.949-14.685-13.939-14.128c-6.829,0.423-13.691,6.066-19.487,16.123c-2.735,4.745-6.456,11.728-8.945,20.021
				c-8.906,22.341-20.351,35.291-39.441,36.096c-13.559,0.571-21.587-6.161-21.616-19.776c-0.016-7.383,2.587-16.002,5.732-25.848
				c2.344-0.004,3.997-0.052,6.068-0.273c23.442-2.505,50.525-17.961,50.425-40.98c-0.047-10.821-5.926-18.214-17.232-16.816
				c-19.588,2.423-35.332,31.128-42.996,52.485c-11.435-0.906-19.401-5.944-19.408-16.97c-0.004-6.817,3.552-16.14,8.479-22.107
				c0.548-0.605,0.683-1.26,0.682-1.893c-0.002-1.63-1.373-2.365-2.881-2.063c-0.821,0.164-1.641,0.58-2.188,1.314
				c-6.017,7.948-9.848,17.614-9.848,25.962c0,12.516,9.054,19.671,23.11,21.103c-3.285,9.922-5.752,18.841-5.739,26.541
				c0.027,15.641,9.439,25.453,27.43,24.82c16.247-0.573,27.842-8.908,36.794-23.454c0.235,7.504,3.366,12.881,12.068,12.586
				c6.652-0.225,13.696-6.137,18.797-13.334c3.062,2.404,6.672,3.547,10.556,3.422c3.04-0.098,5.833-1.075,8.453-2.962
				c-0.909,2.668-1.828,5.366-2.732,8.026c-0.549,1.568,0.337,3.332,1.818,3.777c1.435,0.43,3.189-0.359,3.737-2.081
				c3.733-11.06,5.6-16.618,9.339-27.78c0.003-0.007,0.009-0.021,0.011-0.028c0.082-0.196,0.167-0.357,0.249-0.556
				c0.011-0.025,0.001-0.05,0.011-0.076c1.652-3.782,9.005-17.997,11.327-21.705c4.015-6.053,8.174-10.842,12.068-10.989
				c5.008-0.188,6.963,2.506,6.975,7.855c0.012,5.068-2.059,11.639-4.956,20.524c-0.137,0.292-9.227,28.762-9.366,29.197
				c-0.688,1.885,0.708,4.017,2.788,3.982c1.249-0.021,2.356-0.758,2.769-2.066c-0.138,0.289,9.098-28.206,9.373-29.082
				c4.003-11.81,14.82-31.109,22.895-31.253c5.569-0.099,7.245,3.238,7.248,7.465c0.012,11.944-10.814,30.118-10.795,43.353
				c0.01,7.126,3.351,12.182,10.152,12.146c3.428-0.018,6.481-1.445,9.23-3.711c-4.083,12.01-12.373,34.293-17.255,48.677
				c-0.691,1.894,0.697,4.076,2.775,4.074c1.248-0.001,2.356-0.73,2.772-2.044c1.382-4.371,12.362-34.5,18.608-52.738
				c1.527,3.939,4.773,5.883,9.997,6.128c7.96,0.373,15.133-5.498,20.838-13.456c2.083,2.201,5.551,3.833,9.577,3.878
				c4.835,0.054,9.528-2.575,13.375-6.549c-0.001,0.114-0.016,0.241-0.016,0.354c-0.019,8.689,3.575,15.675,11.346,15.795
				c5.969,0.091,11.807-3.845,17.386-11.715c-0.023,7.013,3.29,12.083,9.946,12.232c3.97,0.089,7.438-1.591,10.498-4.283
				c-0.066,0.185-0.137,0.381-0.203,0.565c-0.559,1.681,0.307,3.347,1.789,3.864c1.433,0.5,3.19-0.198,3.752-1.873
				c3.819-10.758,5.796-16.287,9.516-26.604c0.002-0.005,0.005-0.011,0.007-0.016c0.009-0.027,0.015-0.044,0.023-0.067
				c0.094-0.262,0.177-0.492,0.274-0.761c4.487-11.679,15.107-29.66,23.554-28.91c5.402,0.48,7.188,3.795,7.171,7.755
				c-0.051,11.873-10.922,27.079-10.978,40.034c-0.029,6.755,3.275,11.686,9.922,11.929c5.928,0.218,10.72-2.843,15.819-9.957
				c1.109,5.49,5.126,10.771,14.65,11.194c3.874,0.172,7.339-1.25,10.528-3.955c-1.394,3.685-2.092,5.536-3.487,9.255
				c-3.739,0.766-7.478,1.289-10.942,1.701c-16.62,2.335-23.44,8.491-23.476,17.072c-0.034,8.033,5.357,13.206,13.662,13.207
				c15.613,0.002,25.305-27.235,25.305-27.235s31.145-9.178,40.235-33.045c0.14-0.355,0.277-0.709,0.277-1.079
				C824.82,842.429,824.132,841.499,823.031,840.892z M442.148,773.193c7.601-1.063,11.36,4.06,11.393,11.826
				c0.083,19.349-24.64,32.593-45.041,34.928c-1.241,0.142-2.481,0.285-3.584,0.284C411.349,802.49,425.849,775.471,442.148,773.193
				z M467.603,860.066c-4.438-0.003-6.109-3.187-6.13-8.127c-0.061-14.134,7.306-27.978,10.8-34.171
				c4.021-7.128,8.959-12.5,14.233-12.885c4.716-0.343,8.241,2.528,8.221,8.443C494.645,837.506,475.484,860.073,467.603,860.066z
				 M604.611,857.954c-3.862-0.001-5.279-2.481-5.279-7.584c0-4.818,0.974-6.709,3.059-12.835
				c5.563-14.726,14.069-36.996,25.485-36.787c4.177,0.077,6.356,4.235,5.414,10.285
				C628.803,839.861,613.189,857.955,604.611,857.954z M659.469,858.042c-4.166-0.074-5.462-4.332-5.386-10.636
				c0.172-14.177,12.385-45.088,25.003-44.584c4.943,0.198,8.6,4.313,8.856,10.874c-1.347,3.574-2.021,5.366-3.368,8.957
				C678.97,836.946,670.713,858.24,659.469,858.042z M759.026,899.13c-4.683,0.08-8.089-3.081-7.867-7.627
				c0.291-5.989,6.001-9.649,18.744-11.404c2.494-0.321,4.987-0.778,7.618-1.217C772.909,892.006,766.458,899.002,759.026,899.13z"
				/>
		</g>
		<g>
			<path fill="#AAAAAA" d="M520.215,935.497c-32.722,0-59.313-6.418-73.912-14.542c-9.487-5.281-14.329-11.272-13.999-17.329
				c0.208-3.789,2.643-9.233,13.076-13.631c32.145-13.552,64.068-8.063,104.484-1.126c25.738,4.425,55.679,9.565,92.238,10.827
				c10.25-5.315,20.468-11.452,30.557-18.495c1.315-0.923,3.133-0.602,4.054,0.721c0.918,1.317,0.597,3.13-0.721,4.053
				c-7.333,5.118-14.748,9.768-22.185,13.98c43.962,0.405,97.384-4.977,163.763-23.5c1.537-0.439,3.153,0.473,3.586,2.021
				c0.431,1.548-0.473,3.153-2.021,3.586c-72.335,20.179-129.335,24.975-175.777,23.511
				C600.112,927.643,556.411,935.497,520.215,935.497z M489.41,887.506c-14.492,0-28.187,2.123-41.767,7.848
				c-5.979,2.522-9.363,5.574-9.526,8.591c-0.197,3.57,3.82,7.916,11.015,11.925c28.59,15.905,104.909,24.88,182.066-10.832
				c-32.08-1.796-58.913-6.413-82.321-10.432C526.935,890.834,507.55,887.506,489.41,887.506z"/>
		</g>
	</g>
	<g>
		<polygon fill="#1E120D" points="1034.339,495.165 599.998,60.824 165.658,495.165 160.246,489.753 599.998,50 1039.751,489.753 		
			"/>
		<path fill="none" stroke="#1E120D" stroke-width="2.4943" stroke-miterlimit="10" d="M1037.047,492.46"/>
		<path fill="none" stroke="#1E120D" stroke-width="2.4943" stroke-miterlimit="10" d="M162.953,492.46"/>
		<path fill="none" stroke="#1E120D" stroke-width="2.4943" stroke-miterlimit="10" d="M162.953,707.54"/>
		<path fill="none" stroke="#1E120D" stroke-width="2.4943" stroke-miterlimit="10" d="M1037.047,707.54"/>
		<polygon fill="#1E120D" points="599.998,1150 160.246,710.247 165.658,704.835 599.998,1139.176 1034.339,704.835 
			1039.751,710.247 		"/>
	</g>
</g>
</svg>
