<?xml version="1.0" encoding="utf-8"?>
<!--Designed by Vexels.com - 2017 All Rights Reserved - https://vexels.com/terms-and-conditions/-->
<svg version="1.1" id="Layer_1" xmlns="http://www.w3.org/2000/svg" xmlns:xlink="http://www.w3.org/1999/xlink" x="0px" y="0px" viewBox="0 0 1200 1200" enable-background="new 0 0 1200 1200" xml:space="preserve">
	<g>
		<g>
			<path fill="#3D3D3D" d="M416.782,455.588l-21.092,60.046c-17.855,51.127-40.984,117.662-43.822,125.375
				c-26.374,71.811-38.139,105.082-38.954,126.182c-0.807,20.284,6.897,35.702,27.589,35.702c4.467,0,8.528,4.06,8.528,8.927
				c-0.407,4.46-4.06,8.52-8.927,8.52c-31.242-0.815-44.229-23.529-44.229-53.149c0-24.344,14.61-65.729,39.762-131.865l6.897-19.07
				H237.858c-2.03,5.682-3.653,10.957-5.275,16.232c-20.692,63.699-40.984,124.959-112.388,124.959
				C74.752,757.448,50,725.807,50,684.422c0-49.096,42.607-85.206,87.643-86.021c4.867,0,8.52,4.06,8.52,8.52
				c0,4.867-3.652,8.927-8.52,8.927c-36.117,0-70.604,29.619-70.604,68.973c0,32.057,18.67,55.586,53.556,55.586
				c58.431,0,76.686-55.586,95.348-113.195c1.223-3.653,2.438-7.713,3.653-10.957h-17.04c-4.867,0-8.52-4.06-8.52-8.52
				c0-4.867,3.653-8.927,8.52-8.927h22.722l6.897-21.1c9.335-29.212,20.692-66.136,36.517-94.94l1.215-2.438
				c-17.447-4.052-33.272-8.919-48.281-13.387c-25.967-8.112-50.311-15.824-77.493-15.824c-26.782,0-53.149,26.374-53.149,53.556
				c0,30.027,19.469,43.414,47.059,43.414c11.773,0,24.752-3.245,36.924-8.52c1.215-0.407,2.438-0.807,4.06-0.807
				c5.675,0,8.112,5.275,8.112,8.52c0,3.245-1.622,6.082-4.867,7.705c-14.202,6.497-30.027,10.142-44.629,10.142
				c-39.362,0-63.706-23.937-63.706-59.231c0-39.362,34.487-71.819,70.196-71.819c30.027,0,55.179,7.713,82.768,16.232
				c16.632,5.275,34.487,10.949,54.372,14.602c9.327-8.927,17.04-14.602,25.967-19.469c1.215-0.815,2.837-1.223,4.052-1.223
				c6.09,0,8.52,5.275,8.52,8.52s-1.622,6.09-4.867,7.713c-12.98,7.305-25.152,17.855-31.242,30.427
				c-14.602,27.19-25.967,63.299-35.294,92.103l-4.875,15.824h105.09c8.927-25.559,20.692-59.646,31.242-88.858
				c10.949-31.641,19.877-57.608,21.1-60.453c1.215-3.245,4.46-5.275,7.705-5.275C415.567,444.223,418.812,450.313,416.782,455.588z"
				/>
			<path fill="#3D3D3D" d="M477.267,646.283c0,1.215-0.407,2.43-0.815,3.645c-19.477,43.822-40.577,85.206-74.656,85.206
				c-19.477,0-30.027-15.417-29.212-34.079c1.215-31.649,30.027-105.898,47.874-152.149c1.223-3.652,4.468-5.682,7.713-5.682
				c5.275,0,10.55,4.06,8.112,10.957c-39.354,110.765-46.659,129.427-46.659,146.874c0,11.765,3.653,17.04,12.172,17.04
				c25.16,0,43.821-41.792,58.831-75.063c1.622-3.245,4.867-5.275,8.112-5.275c1.223,0,2.03,0.407,3.253,0.815
				C475.237,639.786,477.267,643.031,477.267,646.283z M431.007,508.736c0-7.712,6.49-13.795,14.202-13.795
				c7.713,0,13.795,6.082,13.795,13.795c0,7.713-6.082,13.795-13.795,13.795C437.497,522.531,431.007,516.449,431.007,508.736z"/>
			<path fill="#3D3D3D" d="M631.445,646.283c0,1.215-0.408,2.022-0.807,3.245c-8.528,30.019-34.894,59.638-62.891,59.638
				c-11.765,0-21.907-4.46-27.997-10.55c-16.632,22.315-37.324,38.547-60.861,37.74c-15.417-0.815-24.744-6.09-29.212-17.047
				c-18.254,50.719-34.894,96.97-38.946,109.142c-1.223,3.653-4.468,5.683-8.12,5.683c-6.082,0-10.142-6.082-8.112-11.357
				l45.444-126.997c23.122-63.291,46.659-128.62,51.526-141.192l2.438-6.498c1.215-3.653,4.46-5.675,8.112-5.675
				c6.082,0,10.142,6.082,8.112,11.357l-3.245,8.52c11.357-11.765,24.344-19.877,39.354-19.877c25.567,0,34.087,21.092,34.087,46.251
				c0,27.997-16.64,73.433-31.242,95.348c4.867,5.275,11.765,8.112,19.07,8.112c21.499,0,40.161-26.374,46.659-49.096
				c1.622-3.245,4.46-5.275,7.705-5.275c1.223,0,2.438,0.407,3.652,0.815C629.415,639.786,631.445,643.031,631.445,646.283z
				 M545.025,648.713c-1.215,3.653-1.622,7.305-2.03,10.55c11.765-24.752,19.885-51.119,19.885-71.411
				c0-17.04-3.653-28.397-15.825-28.397c-33.272,0-58.024,62.076-74.248,103.052c-6.09,17.04-8.927,22.315-8.927,35.709
				c0,14.194,4.06,20.692,15.417,21.092c18.662,0.408,36.109-14.602,49.904-35.702c-5.275-12.172-4.06-27.997-0.807-39.354
				c0.807-4.06,4.46-6.497,8.112-6.497C542.188,637.756,546.24,643.031,545.025,648.713z"/>
			<path fill="#3D3D3D" d="M667.562,735.133c-33.671,0-61.261-26.374-61.261-59.239c2.43-36.509,22.722-60.454,55.179-60.454
				c21.1,0,38.139,18.67,38.946,40.984c0,4.867-3.652,8.52-8.52,8.52c-4.867,0-8.52-3.653-8.52-8.52
				c-0.807-13.795-10.957-23.937-21.499-23.937c-22.323,0-36.924,18.662-38.547,43.406c0,24.752,20.692,42.199,44.221,42.199
				c32.864,0,56.402-21.499,57.209-55.179c-0.408-17.855-6.49-29.619-27.997-67.351c-2.837,2.837-5.675,6.082-8.112,9.327
				c-1.623,2.03-4.06,3.253-6.49,3.253c-2.03,0-4.467-0.408-6.09-2.03c-2.022-1.623-2.837-4.468-2.837-6.897
				c0-1.623,0.815-3.653,2.03-5.275c4.867-5.682,8.927-10.142,13.795-15.017c-3.653-8.52-6.09-17.439-6.09-26.774
				c0-21.1,12.987-38.954,29.619-38.954c11.764,0,18.662,9.335,19.477,21.1c0,16.232-10.142,34.087-22.722,48.281
				c21.1,38.954,32.057,53.156,32.457,80.746C741.004,707.137,708.547,735.133,667.562,735.133z M714.629,534.296
				c0-5.675-4.46-4.46-8.52-0.407c-4.867,4.875-6.082,12.172-6.082,17.854c0,4.468,0.807,8.52,2.022,12.987
				C708.547,555.803,714.629,543.223,714.629,534.296z"/>
			<path fill="#3D3D3D" d="M872.069,646.283c0,1.215-0.408,2.43-0.815,3.645c-23.529,50.719-46.251,85.206-83.575,85.206
				c-19.477,0-30.027-14.602-30.027-34.079c0-15.01,10.142-50.312,23.13-83.583l20.692-58.016h-25.567c-4.867,0-8.52-3.653-8.52-8.52
				c0-4.467,3.653-8.52,8.52-8.52h31.242c0.815-1.622,20.692-58.831,21.1-60.462c1.223-3.644,4.468-5.674,8.12-5.674
				c6.082,0,10.142,6.082,8.112,11.357c1.215-2.43-16.232,47.066-19.07,54.779h27.182c4.867,0,8.52,4.052,8.52,8.52
				c0,4.867-3.653,8.52-8.52,8.52H819.32c-2.43,7.705-9.327,26.367-22.722,64.106c-16.632,47.066-21.907,65.729-21.907,77.493
				c0,10.957,4.867,17.04,12.987,17.04c29.212,0,48.689-33.672,67.759-75.463c1.623-2.845,4.867-4.875,8.112-4.875
				c1.215,0,2.43,0.407,3.653,0.815C870.039,640.193,872.069,643.031,872.069,646.283z"/>
			<path fill="#3D3D3D" d="M1000.688,646.683c0,1.223-0.408,2.03-0.807,3.245c-26.375,58.431-57.209,85.206-98.185,85.206
				c-33.679,0-53.964-22.314-53.157-55.586c2.438-51.934,44.629-136.324,92.511-136.324c20.284,0,34.487,10.55,34.487,30.027
				c0,43.006-60.453,68.973-105.49,79.931c-2.845,10.542-4.06,18.254-4.468,26.774c-0.807,23.13,12.172,37.332,36.517,38.139
				c33.272,0.815,59.239-22.722,81.961-75.063c2.03-4.052,6.897-6.082,11.357-4.46
				C998.658,640.193,1000.688,643.438,1000.688,646.683z M958.489,573.25c0-10.957-8.512-12.987-17.439-12.987
				c-27.997,0-51.526,42.199-64.514,73.441C910.216,623.154,958.489,603.269,958.489,573.25z"/>
			<path fill="#3D3D3D" d="M1150,646.283c0,1.215-0.407,2.43-0.807,3.645c-26.374,60.461-46.659,85.206-74.248,85.206h-0.408
				c-19.07,0-28.812-14.202-28.812-34.079c0-8.112,1.223-16.232,4.06-26.375c3.245-12.979,21.1-66.943,24.752-75.871
				c-30.834-10.142-35.302-11.764-44.229-16.232c-1.622,4.875-4.46,10.55-36.916,81.553c-1.623,3.245-4.468,4.867-7.305,4.867
				c-1.623,0-2.845-0.4-4.06-0.807c-2.837-1.623-4.867-4.467-4.867-7.713c0-1.215,0.407-2.43,0.815-3.652l32.457-70.596l4.867-12.172
				c-12.172-8.52-20.692-19.07-20.692-34.079c0-16.632,11.765-26.374,24.752-26.374c14.602,0,23.529,10.55,23.529,26.782
				c0,6.49-1.623,10.142-6.49,25.967c11.357,5.675,25.152,10.142,36.916,14.202c5.682,1.623,10.957,3.245,15.425,4.867
				c4.46,1.623,6.49,6.897,4.867,11.765c-5.275,13.387-24.752,71.411-27.19,81.553c-2.43,8.52-3.245,15.417-3.644,22.315
				c0,10.142,3.245,17.04,12.172,17.04c19.877,0,35.294-22.722,58.423-75.063c1.623-3.245,4.46-5.275,7.705-5.275
				c1.223,0,2.438,0.407,3.653,0.815C1147.97,640.193,1150,643.031,1150,646.283z M1019.358,530.643
				c-5.275,0-7.713,3.245-7.713,7.713c0,6.49,3.653,13.795,9.735,18.662c2.03-5.683,4.468-12.98,4.468-17.04
				C1025.848,533.081,1022.603,530.643,1019.358,530.643z"/>
		</g>
		<path fill="#97BA9C" d="M600.008,1035.223c-50.547,0-100.074-8.59-147.207-25.52c-4.17-1.505-6.337-6.098-4.836-10.267
			c1.493-4.178,6.078-6.341,10.267-4.844c45.385,16.311,93.083,24.58,141.776,24.58c4.315,0,8.614-0.063,12.893-0.196
			c4.476-0.235,8.132,3.347,8.269,7.783c0.137,4.428-3.347,8.128-7.775,8.269C608.951,1035.16,604.487,1035.223,600.008,1035.223z
			 M692.64,1025.159c-3.68,0-6.995-2.548-7.826-6.286c-0.96-4.326,1.767-8.614,6.094-9.578c2.567-0.564,5.126-1.16,7.677-1.771
			c4.307-1.058,8.637,1.607,9.684,5.917c1.039,4.311-1.611,8.645-5.921,9.68c-2.645,0.643-5.299,1.254-7.96,1.85
			C693.8,1025.096,693.216,1025.159,692.64,1025.159z M776.235,997.287c-3.053,0-5.972-1.748-7.313-4.71
			c-1.83-4.037-0.043-8.794,3.994-10.628c48.042-21.773,91.107-52.098,128-90.128c3.092-3.182,8.171-3.253,11.349-0.172
			c3.182,3.088,3.261,8.167,0.172,11.349c-38.3,39.479-83.011,70.964-132.891,93.576C778.469,997.06,777.344,997.287,776.235,997.287
			z M382.996,976.078c-1.387,0-2.794-0.361-4.076-1.113c-2.348-1.387-4.683-2.806-7.003-4.232c-3.774-2.32-4.953-7.266-2.63-11.044
			c2.32-3.77,7.25-4.961,11.04-2.626c2.242,1.38,4.491,2.735,6.76,4.076c3.817,2.257,5.083,7.18,2.826,10.997
			C388.416,974.667,385.744,976.078,382.996,976.078z M312.142,923.674c-1.928,0-3.868-0.69-5.404-2.101
			c-40.624-37.058-73.465-80.785-97.609-129.968c-1.956-3.974-0.314-8.786,3.664-10.738c3.989-1.952,8.79-0.314,10.742,3.668
			c23.259,47.365,54.893,89.485,94.019,125.187c3.276,2.986,3.507,8.057,0.521,11.333
			C316.492,922.796,314.321,923.674,312.142,923.674z M956.851,842.967c-1.517,0-3.049-0.431-4.413-1.325
			c-3.699-2.446-4.718-7.422-2.281-11.122c1.446-2.195,2.877-4.397,4.284-6.623c2.371-3.747,7.324-4.875,11.075-2.485
			c3.743,2.367,4.856,7.328,2.485,11.075c-1.462,2.304-2.939,4.601-4.44,6.874C962.016,841.697,959.457,842.967,956.851,842.967z
			 M1006.845,477.33c-3.394,0-6.548-2.171-7.642-5.581c-0.795-2.492-1.622-4.985-2.473-7.469c-1.434-4.194,0.803-8.755,4.996-10.189
			c4.201-1.419,8.755,0.799,10.193,5.001c0.882,2.579,1.74,5.165,2.575,7.767c1.348,4.225-0.98,8.739-5.2,10.087
			C1008.483,477.204,1007.656,477.33,1006.845,477.33z M225.427,402.431c-1.309,0-2.633-0.321-3.86-0.996
			c-3.884-2.132-5.302-7.015-3.163-10.894c1.317-2.399,2.653-4.781,4.009-7.14c2.21-3.848,7.117-5.15,10.957-2.963
			c3.844,2.21,5.169,7.117,2.963,10.957c-1.309,2.281-2.598,4.57-3.868,6.874C231.008,400.926,228.261,402.431,225.427,402.431z
			 M971.379,396.702c-2.79,0-5.498-1.458-6.98-4.052c-26.151-45.867-60.309-85.974-101.524-119.199
			c-3.452-2.782-3.993-7.83-1.211-11.286c2.774-3.449,7.834-3.997,11.283-1.207c42.787,34.487,78.249,76.122,105.396,123.744
			c2.195,3.848,0.854,8.747-2.998,10.95C974.09,396.364,972.727,396.702,971.379,396.702z M275.637,329.993
			c-1.85,0-3.707-0.635-5.224-1.936c-3.362-2.884-3.75-7.956-0.862-11.318c35.788-41.713,78.489-75.878,126.911-101.548
			c3.915-2.085,8.774-0.572,10.851,3.331c2.073,3.919,0.584,8.778-3.335,10.856c-46.639,24.721-87.773,57.632-122.248,97.817
			C280.144,329.045,277.898,329.993,275.637,329.993z M801.085,231.001c-1.274,0-2.567-0.306-3.774-0.948
			c-2.32-1.238-4.652-2.453-7.003-3.652c-3.946-2.022-5.506-6.858-3.488-10.801c2.014-3.95,6.839-5.502,10.801-3.496
			c2.43,1.246,4.848,2.508,7.254,3.794c3.907,2.085,5.385,6.944,3.3,10.856C806.728,229.464,803.954,231.001,801.085,231.001z
			 M474.229,199.626c-3.433,0-6.611-2.218-7.669-5.675c-1.301-4.232,1.082-8.724,5.318-10.024c2.598-0.8,5.2-1.568,7.818-2.328
			c4.264-1.231,8.704,1.223,9.938,5.486c1.234,4.256-1.219,8.708-5.479,9.938c-2.531,0.729-5.055,1.481-7.567,2.25
			C475.805,199.516,475.009,199.626,474.229,199.626z M719.481,197.737c-0.741,0-1.493-0.102-2.242-0.321
			c-50.194-14.571-103.676-19.642-155.841-14.845c-4.421,0.47-8.316-2.853-8.72-7.266c-0.404-4.413,2.845-8.316,7.262-8.724
			c54.164-4.938,109.664,0.282,161.774,15.425c4.256,1.231,6.705,5.69,5.471,9.946C726.166,195.456,722.961,197.737,719.481,197.737z
			"/>
		<g>
			<g>
				<path fill="#726767" d="M424.297,390.701c-4.964,4.122-11.107,5.54-18.419,4c-7.309-1.539-13.451-5.549-18.417-11.793
					c-4.969-6.251-7.451-13.108-7.451-20.349c0-7.24,2.482-12.47,7.451-15.925c4.966-3.45,11.107-4.293,18.417-2.754
					c7.313,1.539,13.455,4.975,18.419,10.547c4.966,5.574,7.45,11.89,7.45,19.13C431.747,380.798,429.263,386.578,424.297,390.701z
					 M418.214,358.993c-3.349-4.024-7.461-6.498-12.337-7.524c-4.875-1.026-8.991-0.286-12.337,2.318
					c-3.349,2.606-5.027,6.334-5.027,11.275c0,4.947,1.678,9.634,5.027,13.961c3.35,4.333,7.462,7.058,12.337,8.084
					c4.875,1.027,8.988,0.031,12.337-2.877c3.348-2.907,5.027-6.877,5.027-11.824C423.241,367.465,421.566,363.023,418.214,358.993z"
					/>
				<path fill="#726767" d="M495.504,367.35c0,8.108-3.54,13.415-10.614,15.685c5.145,7.026,7.718,10.501,12.863,17.388
					c-4.218,0.208-6.327,0.291-10.545,0.407c-4.695-6.48-7.043-9.748-11.739-16.353c-4.357,0.002-6.536-0.024-10.893-0.139
					c0,6.608,0,9.912-0.001,16.52c-3.318-0.088-4.977-0.15-8.296-0.311c0-19.654,0-29.481,0-49.135
					c7.311,0.356,10.967,0.439,18.277,0.45c7.498,0.012,12.864,1.104,16.097,3.523C493.887,357.803,495.504,361.774,495.504,367.35z
					 M484.467,374.677c1.688-1.49,2.531-3.842,2.531-7.053c0-3.211-0.868-5.391-2.6-6.548c-1.736-1.157-4.828-1.691-9.28-1.692
					c-4.217-0.001-6.325-0.027-10.542-0.139c0,7.028,0,10.542,0,17.57c4.133,0.11,6.199,0.136,10.333,0.139
					C479.592,376.958,482.781,376.166,484.467,374.677z"/>
				<path fill="#726767" d="M521.51,349.597c3.318-0.303,4.978-0.465,8.296-0.808c0.001,19.654,0.001,29.481,0,49.135
					c-3.319,0.343-4.978,0.506-8.296,0.808C521.511,379.078,521.511,369.251,521.51,349.597z"/>
				<path fill="#726767" d="M591.525,365.716c3.318-0.512,4.976-0.769,8.294-1.285c0,6.719,0,10.078,0,16.797
					c-4.64,5.835-11.273,9.425-19.892,10.717c-7.265,1.09-13.346-0.434-18.242-4.535c-4.894-4.098-7.346-9.828-7.346-17.141
					c0-7.312,2.495-13.725,7.486-19.291c4.991-5.561,11.024-8.865,18.101-9.927c7.075-1.061,12.956,0.088,17.643,3.483
					c-1.771,2.806-2.656,4.209-4.427,7.014c-1.924-1.344-3.858-2.183-5.801-2.518c-1.944-0.335-4.206-0.309-6.785,0.078
					c-4.966,0.746-9.136,2.964-12.51,6.652c-3.374,3.694-5.063,8.144-5.063,13.372c0,5.223,1.642,9.192,4.922,11.884
					c3.28,2.692,7.251,3.699,11.913,3c4.665-0.699,8.565-2.309,11.707-4.806C591.525,373.814,591.525,371.115,591.525,365.716z"/>
				<path fill="#726767" d="M624.771,335.328c3.318-0.506,4.978-0.756,8.296-1.25c0.001,19.654,0.001,29.482,0,49.135
					c-3.318,0.494-4.978,0.744-8.296,1.25C624.772,364.809,624.772,354.982,624.771,335.328z"/>
				<path fill="#726767" d="M697.596,326.37c3.318-0.257,4.978-0.374,8.296-0.581c0,19.654,0,29.481,0,49.135
					c-3.599,0.225-5.398,0.353-8.998,0.636c-11.134-13.465-16.701-20.053-27.835-33.075c0,14.339,0,21.509-0.001,35.848
					c-3.318,0.393-4.977,0.598-8.295,1.021c0.001-19.654,0.001-29.481,0-49.135c3.318-0.423,4.978-0.628,8.295-1.021
					c11.416,13.326,17.124,20.071,28.539,33.866C697.597,348.386,697.597,341.047,697.596,326.37z"/>
				<path fill="#726767" d="M740.546,362.822c-1.969,4.445-2.953,6.674-4.921,11.143c-3.543-0.003-5.315,0.015-8.857,0.086
					c8.659-19.826,12.99-29.64,21.649-49.008c3.543,0.117,5.314,0.196,8.857,0.398c8.661,20.149,12.99,30.348,21.652,51.059
					c-3.543-0.433-5.314-0.623-8.857-0.958c-1.969-4.656-2.953-6.977-4.922-11.604C755.307,363.153,750.386,362.948,740.546,362.822z
					 M761.772,356.024c-3.57-8.348-5.355-12.498-8.925-20.757c-3.571,7.938-5.358,11.929-8.929,19.951
					C751.06,355.371,754.63,355.525,761.772,356.024z"/>
				<path fill="#726767" d="M799.802,379.773c-0.002-19.654,0-29.481,0-49.135c3.318,0.64,4.978,0.985,8.296,1.726
					c0,16.506-0.001,24.759-0.001,41.265c8.969,2.003,13.454,3.186,22.423,5.982c0,3.148,0,4.722,0.001,7.871
					C818.234,383.649,812.09,382.143,799.802,379.773z"/>
			</g>
		</g>
		<g>
			<path fill="#726767" d="M507.314,833.595h17.855v49.135h-7.873v-41.756h-9.982V833.595z"/>
			<path fill="#726767" d="M564.812,875.843c4.358,0,7.567-1.476,9.631-4.433c2.062-2.951,3.115-6.931,3.164-11.95
				c-1.174,1.316-2.86,2.543-5.063,3.692c-2.203,1.15-4.64,1.724-7.309,1.724c-4.405,0-8.097-1.465-11.073-4.394
				c-2.977-2.929-4.463-6.82-4.463-11.673c0-4.847,1.606-8.749,4.817-11.701c3.209-2.951,7.251-4.427,12.124-4.427
				c7.873,0,13.309,3.515,16.31,10.54c1.686,4.035,2.529,8.578,2.529,13.641c0,5.057-0.539,9.28-1.617,12.651
				c-1.078,3.371-2.554,6.047-4.427,8.014c-3.656,3.841-8.144,5.765-13.461,5.765c-5.32,0-10.134-1.664-14.445-4.991l4.145-6.119
				c1.078,0.94,2.52,1.785,4.325,2.531C561.8,875.468,563.406,875.843,564.812,875.843z M566.324,857.565
				c2.835,0,5.201-0.785,7.099-2.354c1.898-1.57,2.847-3.609,2.847-6.118c0-2.504-0.912-4.659-2.741-6.467
				c-1.827-1.802-4.112-2.703-6.854-2.703s-5.002,0.807-6.782,2.421c-1.782,1.62-2.672,3.692-2.672,6.224
				c0,2.531,0.807,4.665,2.426,6.395C561.264,856.698,563.488,857.565,566.324,857.565z"/>
			<path fill="#726767" d="M614.229,836.336c3.139-2.482,7.077-3.725,11.811-3.725c4.731,0,8.669,1.244,11.808,3.725
				c3.139,2.482,4.709,5.61,4.709,9.385c0,3.769-1.758,7.113-5.27,10.015c4.731,3.001,7.099,7.218,7.099,12.651
				c0,4.223-1.688,7.76-5.063,10.617c-3.374,2.857-7.801,4.289-13.284,4.289c-5.483,0-9.913-1.431-13.287-4.289
				c-3.374-2.857-5.06-6.395-5.06-10.617c0-5.433,2.366-9.65,7.099-12.651c-3.515-2.902-5.273-6.246-5.273-10.015
				C609.52,841.946,611.09,838.818,614.229,836.336z M619.151,874.047c2.156,1.382,4.452,2.072,6.889,2.072
				c2.435,0,4.731-0.691,6.889-2.072c2.153-1.382,3.233-3.361,3.233-5.936c0-2.581-1.033-4.571-3.095-5.975
				c-2.062-1.41-4.405-2.111-7.028-2.111c-2.625,0-4.969,0.702-7.031,2.111c-2.062,1.404-3.092,3.393-3.092,5.975
				C615.918,870.687,616.996,872.665,619.151,874.047z M619.82,851.696c1.758,1.432,3.83,2.144,6.221,2.144
				c2.39,0,4.463-0.713,6.221-2.144c1.758-1.431,2.636-3.189,2.636-5.273s-0.879-3.83-2.636-5.234
				c-1.758-1.409-3.83-2.111-6.221-2.111c-2.391,0-4.463,0.702-6.221,2.111c-1.758,1.404-2.636,3.151-2.636,5.234
				S618.062,850.264,619.82,851.696z"/>
			<path fill="#726767" d="M688.529,852.785c1.407-1.924,2.109-3.863,2.109-5.837c0-1.968-0.749-3.642-2.25-5.024
				c-1.5-1.382-3.399-2.073-5.693-2.073c-4.032,0-7.381,2.062-10.054,6.185l-6.677-3.863c2.155-3.233,4.532-5.671,7.135-7.312
				c2.601-1.642,5.95-2.46,10.051-2.46c4.101,0,7.697,1.299,10.792,3.902c3.093,2.598,4.637,6.146,4.637,10.645
				c0,2.531-0.655,4.947-1.968,7.241c-1.313,2.299-3.725,5.251-7.24,8.86l-11.527,11.739h22.282v7.942h-33.602v-7.03l14.904-14.973
				C684.757,857.355,687.123,854.708,688.529,852.785z"/>
		</g>
	</g>
</svg>
