<?xml version="1.0" encoding="utf-8"?>
<!--Designed by Vexels.com - 2017 All Rights Reserved - https://vexels.com/terms-and-conditions/-->
<svg version="1.1" id="Layer_1" xmlns="http://www.w3.org/2000/svg" xmlns:xlink="http://www.w3.org/1999/xlink" x="0px" y="0px"
	 viewBox="0 0 1200 1200" enable-background="new 0 0 1200 1200" xml:space="preserve">
<g>
	<g>
		<g>
			<g>
				<g>
					<path d="M305.349,402.992c7.999-19.558,16.75-38.114,24.006-54.376c1.03-1.724,1.271-3.565,1.921-5.199
						c1.466-5.989-16.562-11.159-18.618-9.543c-62.572,49.171-89.651,126.385-120.034,191.219
						c-7.664,16.354-15.502,34.161-23.834,52.983c-2.242,5.073-0.938,2.465-1.123,0.13c17.713-65.633,37.796-130.392,59.859-194.999
						c0.913-2.985,1.413-6.597,1.92-9.588c0.151-0.895-0.162-2.043-1.377-2.855c-3.781-4.19-15.535-7.803-19.776-3.452
						c-1.74,1.786-3.14,3.749-4.533,5.418c-46.302,80.941-86.674,162.992-122.522,247.819c3.31-14.256,7.218-30.294,12.195-47.329
						c1.75-5.99,2.632-8.989,4.395-14.967c7.901-26.788,17.29-54.683,26.291-78.322c-0.009-0.116-0.014-0.174-0.023-0.29
						c12.729-33.329,24.697-58.444,30.929-60.831c1.83-0.701,2.815-2.581,2.769-3.163c-0.116-1.462-2.499-2.962-5.96-3.734
						c-5.041-1.67-12.628-2.295-16.638-0.691c-4.011,1.605-13.795,19.557-24.852,46.142c-9.605,23.094-21.745,53.624-30.503,84.837
						C66.047,591.365,57.017,640.432,50,691.398c0.463,5.839,14.833,1.757,21.587-1.482c0.995-0.477,1.493-0.715,2.488-1.19
						c1.776-0.847,2.77-2.281,3.374-4.025c30.238-87.258,69.04-172.138,112.478-255.903c-0.328,0.714-0.281,1.299-0.235,1.88
						c-0.147,0.052-0.221,0.078-0.368,0.13c-21.039,54.829-41.977,111.423-42.524,169.45c-0.085,9.061,18.22,9.766,27.26,6.188
						c2.146-0.85,4.156-2.22,4.979-3.982c30.208-64.68,64.172-128.517,99.483-191.721c-32.22,73.218-66.411,149.312-67.021,227.724
						c-0.113,14.525,15.487,17.942,33.405,12.183c0.597-0.193,0.895-0.288,1.492-0.479c0.372-0.119,0.726-0.534,1.074-0.944
						c-0.023-0.291-0.055-0.58-0.819-0.637c-10.296-0.773-7.578-28.088-3.163-49.574C257.147,532.553,279.17,467,305.349,402.992z"
						/>
				</g>
				<g>
					<path d="M977.833,489.437c2.886-5.793,6.851-13.456,9.737-19.547c2.88-0.197,3.243-1.361,2.163-3.421
						c-3.243-5.188-15.866-14.9-22.012-15.842c-2.171-0.464-3.611,2.25-12.673,21.323
						C955.409,478.629,972.057,488.246,977.833,489.437z"/>
				</g>
				<g>
					<path d="M1137.868,639.756c-10.629,18.323-30.358,45.186-38.833,33.317c-9.192-12.874,10.19-70.848,18.592-91.664
						c1.747-3.338-0.351-9.039-4.552-13.184c-5.956-6.37-13.689-13.892-15.096-14.6c-14.068-7.074-61.64,39.489-69.5,47.264
						c6.075-19.677,14.281-40,22.457-57.601c1.425,0.32,2.847-0.67,1.425-3.281c-2.488-3.752-8.537-9.75-13.889-13.734
						c-12.124-9.582-18.576-10.928-20.369-8.401c3.224-1.597-24.083,51.522-25.493,53.895
						c-16.297,27.425-27.053,44.773-36.474,41.433c-4.35-1.543-6.524-5.569-6.524-14.74c0-8.188,1.812-18.044,4.348-28.614
						c5.074-21.146,14.125-43.755,20.622-58.042c1.808,0.674,3.611-0.61,1.808-3.253c-4.334-7.852-30.773-25.816-34.766-19.639
						c3.266-1.829-24.302,53.106-25.83,55.734c-0.005,0.009-0.018,0.007-0.021,0.014c-7.656,14.63-27.767,46.64-36.93,44.087
						c-16.129-4.492,0.752-61.488,16.112-94.648c1.826,0.537,2.559-0.879,2.559-1.862c0-3.277-14.639-15.074-21.602-15.685
						c-2.572-0.378-2.938,1.487-3.669,2.602c-7.338-10.191-20.933-17.998-31.983-20.667c-37.216-8.99-61.515,18.244-70.094,49.383
						c-0.043,0.072-0.099,0.122-0.139,0.199c-15.45,29.311-30.814,50.705-37.874,49.714c-4.465-0.626-6.698-4.195-6.698-13.04
						c0-13.431,4.836-32.771,10.786-51.245c0-0.131,0-0.196,0-0.326c4.463-13.446,10.034-27.026,15.606-40.557
						c0.369-1.25,1.109-2.116,1.485-3.365c2.598-6.136,5.573-12.533,8.163-18.321c4.085-9.135,8.164-17.61,12.239-25.725
						c4.077-8.116,8.156-15.554,11.86-22.713c23.327,4.755,67.188,16.134,78.572,27.664c0.292,0.077,0.439,0.115,0.731,0.193
						c1.473,0.391,1.473,0.066,1.473-0.918c0-15.398-34.144-30.573-73.746-39.668c5.555-10.699,16.273-24.852,19.599-24.138
						c1.844,0.397,2.953-1.327,2.953-1.979c0-3.934-13.297-15.613-20.33-17.01c-5.179-1.029-19.995,18.444-30.01,37.701
						c-44.888-6.671-87.791-5.508-87.791-2.559c0,0.326,0,0.657,0.371,1.017c8.576,8.958,10.064,11.095,14.538,11.557
						c0,0,25.005-2.152,65.46,3.485c-9.651,18.408-19.684,39.835-28.979,62.805c0,0.331-0.376,0.28-0.376,0.28
						c-2.226,5.266-4.799,12.507-7.809,20.913c-4.114,11.483-8.548,25.178-11.735,38.594
						c-11.216,23.245-32.269,57.462-41.172,49.223c-9.707-8.987,10.812-75.117,19.761-99.459c1.86-4.072-0.376-8.892-4.846-11.275
						c-6.336-3.874-14.544-8.159-16.034-8.277c-14.919-1.186-64.942,65.202-73.153,76.242c6.347-22.201,14.935-45.936,23.517-66.94
						c1.498-0.275,2.99-1.856,1.498-3.877c-2.613-2.715-8.96-6.195-14.563-7.956c-12.694-4.542-19.412-3.211-21.281,0.061
						c3.356-2.932-24.909,61.246-26.491,64.431c-0.005,0.011-0.018,0.015-0.023,0.025c-16.696,33.302-29.478,56.037-37.677,56.495
						c-4.477,0.25-6.338-2.904-6.337-12.075c0-24.569,16.026-71.679,26.099-96.961c1.869-0.07,2.611-1.731,2.611-2.714
						c0-0.326-0.371-0.97-0.742-1.284c-2.988-3.495-13.802-7.949-19.769-7.627c-0.748,0.041-1.119,0.061-1.49,0.408
						c-2.609,0.477-2.981,2.462-3.357,3.142c-7.456,18.786-14.237,44.406-30.176,76.883c-11.56,23.553-25.673,45.018-39.416,46.704
						c-4.459,0.547-6.687-2.435-6.687-11.605c0-24.569,15.6-72.712,26.011-98.703c1.862-0.195,2.603-1.906,2.602-2.889
						c0-0.326-0.74-0.908-1.116-1.194c-2.227-2.394-8.178-5.04-14.124-5.983c-12.633-2.786-19.307-0.528-21.164,3.002
						c3.338-3.398-24.787,64.82-26.308,68.103c-0.002,0.005-0.008,0.008-0.011,0.014c-13.697,28.742-24.791,42.136-42.118,45.61
						c23.962-44.769,20.909-108.251-26.501-97.549c-33.08,7.467-45.443,59.411-46.176,59.935
						c-35.434,49.876-13.595,90.585,23.052,81.499c16.124-3.999,30.099-15.276,40.782-29.627
						c29.238-6.106,49.376-24.389,62.73-55.978c0.026-0.056,0.067-0.1,0.091-0.158c0.11-0.261,0.24-0.587,0.369-0.908
						c0.119-0.285,0.247-0.553,0.364-0.842c0.01-0.025-0.01-0.048-0.001-0.072c2.994-7.627,15.585-43.744,15.585-43.744
						s-22.832,80.28-11.127,93.939c3.714,4.334,15.206,11.306,23.373,12.267c1.115,0.189,2.606,0.008,3.715-0.124
						c11.513-1.369,27.511-20.706,40.17-40.751c0,0.13,0,0.195,0,0.326c0,9.176,1.852,15.961,5.218,20.221
						c3.649,4.617,15.348,12.418,23.473,13.826c1.471,0.255,2.61,0.182,3.729,0.123c14.937-0.786,30.257-27.932,46.279-66.317
						c0,0,0.003-0.006,0.006-0.01c2.475-5.55,15.677-41.334,15.677-41.334s-20.159,62.014-25.383,96.513
						c0,8.519,25.208,11.449,25.383,8.98c0.217-3.063-0.076-5.029,8.216-18.612c17.734-29.046,58.975-87.218,67.933-91.146
						c-7.089,19.789-25.342,78.668-12.313,96.79c3.378,4.698,12.314,11.627,18.654,14.748c13.311,7.793,27.018-6.748,38.079-24.568
						c0.461,6.155,1.802,11.363,4.411,15.004c1.859,2.839,5.958,6.933,10.421,10.453c4.467,3.521,8.927,6.414,13.016,7.968
						c1.116,0.482,2.608,1.019,3.718,1.178c7.033,1.006,18.993-8.342,31.977-29.712c2.804,20.448,13.525,37.342,33.294,41.377
						c17.381,3.549,39.499-16.145,49.432-26.43c0,6.884,0.866,16.272,5.148,22.928c3.704,5.759,15.064,17.363,23.132,21.575
						c1.1,0.632,2.565,1.042,3.664,1.352c15.387,4.336,37.282-32.099,46.016-52.503c0.017-0.038-0.018-0.093-0.004-0.132
						c3.196-7.075,17.461-41.515,17.461-41.515s-12.138,33.043-15.261,50.885c-3.017,17.237-3.637,33.514,2.545,43.099
						c3.638,6.448,17.806,21.744,26.495,24.853c15.567,5.571,32.152-19.842,45.438-49.196c0.039-0.084,0.04-0.176,0.069-0.262
						c2.817-5.933,14.275-33.477,14.275-33.477s-19.37,53.983-24.407,86.396c0,8.518,24.239,21.447,24.407,19.09
						c0.214-3.024,0.013-5.16,7.873-15.343c16.938-21.939,56.136-63.833,64.595-64.222c-6.695,16.988-24.056,68.497-11.642,91.917
						c3.206,6.048,11.646,16.494,17.626,22.117c20.749,21.564,42.445-17.459,52.052-36.544
						C1152.119,645.393,1139.844,636.347,1137.868,639.756z M307.801,581.722c-22.338,5.651-19.387-28.021-13.173-39.501
						c6.948,13.221,20.851,20.756,36.647,23.345C324.659,573.642,316.954,579.407,307.801,581.722z M339.729,552.189
						c-32.728-6.159-45.172-37.667-12.126-45.393c2.204-0.516,3.672-0.527,3.672-0.527c1.834-0.748,2.206-2.468,2.206-3.125
						c-0.148-0.49-0.222-0.734-0.372-1.223c-3.302-2.848-13.213-3.136-18.349-2.854c0-0.131,0-0.196,0-0.326
						c-0.365-3.188,12.828-32.027,28.647-35.486C358.116,460.035,358.48,515.587,339.729,552.189z M800.025,569.766
						c-6.288-1.279-9.249-10.355-9.249-22.808c0-32.103,19.671-85.345,54.638-76.727c8.096,1.994,15.427,11.137,15.815,19.088
						C862.633,518.142,822.958,574.433,800.025,569.766z"/>
				</g>
			</g>
		</g>
	</g>
	<g>
		<g>
			<path fill="#AAAAAA" d="M396.536,255.735c-1.37,6.198-4.853,11.13-10.439,14.796c-5.586,3.661-11.496,4.885-17.73,3.666
				c-6.224-1.219-11.161-4.597-14.791-10.131c-3.63-5.539-4.759-11.407-3.389-17.605c1.371-6.198,4.843-11.13,10.439-14.796
				c5.586-3.661,11.496-4.885,17.73-3.666c6.224,1.219,11.151,4.597,14.78,10.131C396.767,243.669,397.896,249.537,396.536,255.735z
				 M376.463,235.269c-4.299-0.973-8.305-0.241-12.04,2.202c-3.724,2.443-5.994,5.832-6.82,10.162
				c-0.826,4.331,0,8.389,2.479,12.165c2.479,3.781,5.868,6.161,10.168,7.129c4.299,0.978,8.316,0.241,12.04-2.202
				c3.724-2.443,6.004-5.832,6.831-10.162c0.816-4.33-0.011-8.389-2.479-12.165C384.162,238.616,380.773,236.242,376.463,235.269z"
				/>
		</g>
		<g>
			<path fill="#AAAAAA" d="M457.112,200.582c2.803,6.862,1.58,12.406-3.682,16.637l17.061,10.664l-8.922,3.645l-15.649-9.921
				l-9.226,3.771l5.722,13.98l-7.029,2.866l-16.988-41.585l15.471-6.318c6.339-2.594,11.318-3.379,14.938-2.359
				C452.416,192.988,455.188,195.859,457.112,200.582z M450.177,210.29c0.931-1.815,0.837-4.079-0.272-6.799
				c-1.109-2.714-2.605-4.278-4.488-4.691c-1.883-0.413-4.707,0.151-8.473,1.694l-8.922,3.645l6.077,14.869l8.745-3.572
				C446.809,213.815,449.257,212.099,450.177,210.29z"/>
		</g>
		<g>
			<path fill="#AAAAAA" d="M491.652,175.3l7.364-1.789l10.586,43.661l-7.374,1.784L491.652,175.3z"/>
		</g>
		<g>
			<path fill="#AAAAAA" d="M574.571,185.771l7.552-0.654l1.328,15.303c-3.828,5.021-9.665,7.866-17.521,8.546
				c-6.621,0.57-12.343-1.129-17.176-5.094c-4.843-3.97-7.552-9.284-8.128-15.941c-0.575-6.663,1.224-12.406,5.387-17.239
				c4.163-4.832,9.467-7.526,15.91-8.086c6.443-0.554,11.966,0.863,16.559,4.247l-3.536,6.114c-1.883-1.344-3.734-2.228-5.555-2.652
				c-1.82-0.424-3.902-0.533-6.255-0.329c-4.519,0.392-8.191,2.181-11.015,5.371c-2.824,3.19-4.027,7.165-3.609,11.925
				c0.408,4.759,2.228,8.447,5.471,11.072c3.232,2.625,6.977,3.75,11.224,3.384c4.247-0.366,7.72-1.59,10.418-3.672L574.571,185.771
				z"/>
		</g>
		<g>
			<path fill="#AAAAAA" d="M620.994,162.915l7.573,0.481l-2.845,44.833l-7.563-0.481L620.994,162.915z"/>
		</g>
		<g>
			<path fill="#AAAAAA" d="M704.698,175.624l7.406,1.663l-9.854,43.834l-8.023-1.805l-17.647-37.558l-7.186,31.977l-7.395-1.663
				l9.843-43.829l7.406,1.663l18.096,38.452L704.698,175.624z"/>
		</g>
		<g>
			<path fill="#AAAAAA" d="M746.455,225.928l-8.232,7.537l-7.417-3.264l36.235-33.128l7.406,3.269v49.09l-7.406-3.269v-11.161
				L746.455,225.928z M767.041,227.345v-20.23l-14.937,13.651L767.041,227.345z"/>
		</g>
		<g>
			<path fill="#AAAAAA" d="M800.441,264.809l24.854-37.422l6.318,4.2l-20.879,31.423l17.082,11.344l-3.985,5.994L800.441,264.809z"
				/>
		</g>
	</g>
	<g>
		<g>
			<g>
				<path fill="#757575" d="M404.805,630.494v4.571h-15.366v7.62h13.802v4.325h-13.802v7.704h15.863v4.571h-20.722v-28.792H404.805z
					"/>
			</g>
			<g>
				<path fill="#757575" d="M428.472,634.281c-1.417,0-2.573,0.287-3.483,0.868c-0.905,0.575-1.36,1.449-1.36,2.615
					c0,1.167,0.455,2.061,1.36,2.678c0.91,0.617,2.835,1.282,5.79,1.998c2.95,0.711,5.178,1.716,6.674,3.007
					c1.496,1.287,2.244,3.19,2.244,5.701c0,2.516-0.946,4.555-2.84,6.12c-1.899,1.564-4.383,2.348-7.458,2.348
					c-4.503,0-8.499-1.553-11.987-4.655l3.049-3.666c2.908,2.526,5.931,3.792,9.064,3.792c1.564,0,2.803-0.34,3.724-1.009
					c0.92-0.674,1.381-1.569,1.381-2.678c0-1.114-0.429-1.977-1.297-2.594c-0.863-0.622-2.354-1.182-4.466-1.689
					c-2.118-0.507-3.724-0.978-4.822-1.402c-1.098-0.429-2.071-0.983-2.924-1.668c-1.705-1.292-2.552-3.269-2.552-5.931
					c0-2.667,0.968-4.718,2.903-6.161c1.935-1.438,4.331-2.16,7.186-2.16c1.841,0,3.666,0.304,5.481,0.905
					c1.81,0.607,3.379,1.454,4.697,2.552l-2.6,3.666c-0.847-0.769-2.003-1.402-3.457-1.893
					C431.317,634.526,429.884,634.281,428.472,634.281z"/>
			</g>
			<g>
				<path fill="#757575" d="M464.822,634.939v24.347h-4.859v-24.347h-8.734v-4.446h22.327v4.446H464.822z"/>
			</g>
			<g>
				<path fill="#757575" d="M508.86,634.26c2.777,2.515,4.163,6.009,4.163,10.486c0,4.477-1.344,8.018-4.038,10.628
					c-2.694,2.61-6.81,3.912-12.359,3.912h-9.556v-28.792h9.885C502.118,630.494,506.088,631.749,508.86,634.26z M508.122,644.866
					c0-6.59-3.776-9.885-11.328-9.885h-4.864v19.733h5.398c3.488,0,6.161-0.832,8.013-2.495
					C507.191,650.562,508.122,648.109,508.122,644.866z"/>
			</g>
		</g>
		<g>
			<g>
				<path fill="#757575" d="M690.304,630.494h10.46v28.792h-4.613v-24.467h-5.847V630.494z"/>
			</g>
			<g>
				<path fill="#757575" d="M723.997,655.248c2.552,0,4.435-0.863,5.649-2.594c1.203-1.731,1.82-4.064,1.852-7.003
					c-0.691,0.769-1.674,1.49-2.971,2.16c-1.287,0.675-2.709,1.01-4.278,1.01c-2.584,0-4.749-0.858-6.485-2.573
					c-1.747-1.715-2.615-3.996-2.615-6.836c0-2.845,0.931-5.131,2.814-6.862c1.883-1.726,4.257-2.594,7.113-2.594
					c4.613,0,7.793,2.061,9.55,6.182c0.994,2.359,1.486,5.026,1.486,7.992c0,2.966-0.314,5.434-0.952,7.411
					c-0.628,1.977-1.496,3.546-2.594,4.697c-2.134,2.254-4.77,3.379-7.887,3.379s-5.941-0.973-8.462-2.924l2.427-3.583
					c0.638,0.549,1.475,1.041,2.542,1.48C722.24,655.029,723.181,655.248,723.997,655.248z M724.886,644.537
					c1.663,0,3.044-0.46,4.163-1.381c1.109-0.915,1.663-2.113,1.663-3.583c0-1.47-0.534-2.73-1.601-3.787
					c-1.077-1.056-2.416-1.59-4.017-1.59c-1.611,0-2.939,0.476-3.975,1.422c-1.046,0.947-1.569,2.165-1.569,3.646
					c0,1.485,0.47,2.735,1.422,3.75C721.915,644.03,723.223,644.537,724.886,644.537z"/>
			</g>
			<g>
				<path fill="#757575" d="M752.951,632.099c1.841-1.454,4.153-2.186,6.924-2.186c2.772,0,5.084,0.732,6.925,2.186
					c1.841,1.454,2.751,3.29,2.751,5.497c0,2.212-1.025,4.169-3.086,5.874c2.772,1.757,4.163,4.226,4.163,7.411
					c0,2.474-0.994,4.545-2.971,6.224c-1.977,1.674-4.571,2.51-7.783,2.51c-3.211,0-5.805-0.837-7.782-2.51
					c-1.977-1.679-2.971-3.75-2.971-6.224c0-3.185,1.391-5.654,4.163-7.411c-2.061-1.705-3.086-3.661-3.086-5.874
					C750.2,635.389,751.121,633.553,752.951,632.099z M755.839,654.197c1.266,0.811,2.615,1.219,4.037,1.219
					c1.433,0,2.772-0.408,4.038-1.219c1.266-0.811,1.893-1.967,1.893-3.478c0-1.511-0.607-2.678-1.81-3.504
					c-1.213-0.821-2.584-1.234-4.121-1.234c-1.538,0-2.908,0.413-4.121,1.234c-1.203,0.826-1.81,1.993-1.81,3.504
					C753.945,652.23,754.573,653.386,755.839,654.197z M756.236,641.101c1.025,0.837,2.239,1.255,3.64,1.255
					c1.402,0,2.615-0.418,3.651-1.255c1.025-0.837,1.538-1.867,1.538-3.091s-0.513-2.244-1.538-3.07
					c-1.035-0.821-2.249-1.234-3.651-1.234c-1.402,0-2.615,0.413-3.64,1.234c-1.035,0.826-1.548,1.846-1.548,3.07
					S755.2,640.264,756.236,641.101z"/>
			</g>
			<g>
				<path fill="#757575" d="M796.497,641.739c0.826-1.124,1.234-2.265,1.234-3.421c0-1.151-0.439-2.134-1.318-2.945
					c-0.879-0.811-1.987-1.213-3.337-1.213c-2.354,0-4.32,1.208-5.889,3.624l-3.912-2.27c1.266-1.893,2.657-3.321,4.184-4.284
					c1.527-0.957,3.483-1.438,5.889-1.438s4.508,0.758,6.328,2.286c1.81,1.522,2.709,3.604,2.709,6.24
					c0,1.485-0.376,2.897-1.15,4.242c-0.764,1.349-2.186,3.075-4.237,5.193l-6.757,6.878h13.054v4.655H783.61v-4.122l8.734-8.771
					C794.291,644.417,795.682,642.863,796.497,641.739z"/>
			</g>
		</g>
	</g>
	<g>
		<path fill="#564C4F" d="M918.174,870.699c-6.688-15.859-13.247-38.134-26.6-38.134c-13.359,0-26.528-1.663-38.313-16.688
			c-11.789-15.023-4.949-32.547-18.926-42.561c-13.977-10.016-25.102-23.375-39.075-33.39c-13.972-10.016-23.367,0-29.248,8.351
			c-5.877,8.344-40.29,56.574-40.29,56.574s-18.947-18.367-27.828-29.213c-8.881-10.847-14.13-32.547-25.687-41.732
			c-11.567-9.18-27.273-42.565-36.414-50.906c-9.145-8.342-1.174-36.722-17.791-53.409c-16.62-16.696-22.496-8.352-31.314,4.166
			c-8.821,12.521-13.291,23.374-20.402,27.541c-7.113,4.176-22.12,20.029-32.211,36.723c-10.091,16.696-37.518,47.572-37.518,47.572
			s-38.377-40.06-46.812-39.229c-8.437,0.834-22.854,35.05-47.344,61.76c-24.489,26.71-62.714,65.099-84.102,70.105
			c-6.404,13.35-19.397,25.867-55.047,47.569c-0.069,0.042-0.151,0.09-0.22,0.132c81.446,92.868,200.891,151.579,334.12,151.579
			c129.041,0,245.182-55.054,326.363-142.894C921.334,884.137,920.136,875.353,918.174,870.699z M464.872,889.133
			c-18.051,5.009-42.603,8.355-58.821-4.166c-16.22-12.513-64.052-10.021-88.115-3.344
			c76.08-49.234,131.463-145.647,136.582-141.038c0,0,25.267,21.697,25.982,30.876c0.713,9.182-17.952,20.034-8.496,33.39
			c9.458,13.35,24.044,17.526,23.173,25.866c-0.871,8.345-12.979,28.377-4.098,39.23c8.88,10.846,10.998,22.53,10.998,22.53
			S482.918,884.126,464.872,889.133z M635.027,778.142c-9.302,9.181-17.01-20.862-19.327-6.68
			c-2.319,14.19,9.327,22.53,16.188,36.722c6.869,14.193,0.378,28.374-9.811,30.046c-10.191,1.669-28.214-17.527-35.426-28.37
			c-7.211-10.852-23.155-10.018-35.321-13.366c-12.173-3.333-40.748-33.378-40.748-33.378c5.831-15.852,45.641-53.408,54.979-70.932
			c9.341-17.526,23.343-31.716,34.716-36.725c11.368-5.005,3.4,23.365,7.447,32.55c4.048,9.182,0.064,23.363,6.616,32.547
			C620.894,729.738,644.338,768.957,635.027,778.142z M753.481,850.746c-10.381-12.515-17.348-33.72-17.348-33.72
			s20.471-28.2,24.505-34.797c4.023-6.59,9.076,0.919,10.275,13.438c1.2,12.518-10.65,30.045,9.344,38.388
			c19.988,8.353,46.923,38.189,51.364,59.569C796.148,881.623,763.857,863.266,753.481,850.746z"/>
	</g>
	<g>
		<polygon points="251.482,722.406 262.256,744.237 286.347,747.737 268.914,764.73 273.03,788.724 251.482,777.396 
			229.934,788.724 234.049,764.73 216.617,747.737 240.708,744.237 		"/>
	</g>
	<g>
		<polygon points="937.805,722.406 948.579,744.237 972.67,747.737 955.237,764.73 959.353,788.724 937.805,777.396 
			916.257,788.724 920.372,764.73 902.94,747.737 927.031,744.237 		"/>
	</g>
</g>
</svg>
