<?xml version="1.0" encoding="utf-8"?>
<!--Designed by Vexels.com - 2017 All Rights Reserved - https://vexels.com/terms-and-conditions/-->
<svg version="1.1" id="Layer_1" xmlns="http://www.w3.org/2000/svg" xmlns:xlink="http://www.w3.org/1999/xlink" x="0px" y="0px"
	 viewBox="0 0 1200 1200" enable-background="new 0 0 1200 1200" xml:space="preserve">
<g>
	<g>
		<g>
			<path fill="#564C4F" d="M708.675,322.459c-3.869-19.925-37.239-6.802-37.239-6.802c0.477,19.925-9.957,31.611-24.474,35.984
				c-26.597,6.32-58.226,8.24-89.658,1.434c-37.239-8.746-31.921-37.418-31.921-37.418s-8.705-1.461-19.824-4.853
				c-26.621-5.935-11.119,25.75-11.119,25.75S515.831,374.386,597.93,373C679.568,371.623,712.533,342.385,708.675,322.459z"/>
		</g>
		<g>
			<path fill="#564C4F" d="M613.884,335.096c29.501-1.943,51.262-9.235,57.552-19.439c0,0-0.489-8.264-1.938-39.848
				c-2.421-35.469-36.756-45.679-76.894-44.707c-40.136,0.975-57.063,17.013-61.898,35.96c-4.841,18.948-5.324,48.594-5.324,48.594
				C536.019,333.639,584.384,337.04,613.884,335.096z"/>
		</g>
	</g>
	<g>
		<path fill="#564C4F" d="M693.892,907.681c-14.686,20.535-49.15,38.084-65.789,39.363c-16.644,1.276-16.055-13.688-16.055-13.688
			l-4.242-0.046l-2.673-116.127h37.509c1.683,2.749,4.578,4.682,8.04,4.682c5.293,0,9.587-4.292,9.587-9.59
			c0-5.299-4.294-9.591-9.587-9.591c-2.849,0-5.339,1.306-7.097,3.277h-38.713l-0.383-16.773
			c8.577-2.682,14.841-10.589,14.841-20.044c0-11.656-9.446-21.101-21.099-21.101c-11.657,0-21.104,9.445-21.104,21.101
			c0,9.593,6.447,17.599,15.218,20.162l-0.318,16.655h-36.681c-1.755-1.971-4.245-3.277-7.094-3.277c-5.295,0-9.59,4.293-9.59,9.591
			c0,5.298,4.295,9.59,9.59,9.59c3.459,0,6.352-1.933,8.039-4.682h35.518l-2.231,116.208l-2.694-0.035
			c0,0,0.588,14.964-16.058,13.688c-16.643-1.279-51.103-18.828-65.791-39.363c-2.937-0.642-2.742,5.778-0.588,9.846
			c2.157,4.062,18.798,36.362,18.798,36.362s2.939-4.91,0.391-9.832c-2.543-4.931-3.519-11.775,3.333-4.931
			c6.851,6.85,48.753,31.88,56.973,34.236c8.224,2.347,10.189,8.337,11.164,10.264c0.715,1.419,2.9,2.245,4.016,2.591l0.003,0.195
			c0,0,0.209-0.061,0.338-0.096c0.131,0.035,0.34,0.096,0.34,0.096l0.007-0.195c1.12-0.346,3.299-1.172,4.013-2.591
			c0.976-1.927,2.94-7.917,11.163-10.264c8.222-2.356,50.123-27.386,56.974-34.236c6.853-6.844,5.878,0,3.335,4.931
			c-2.547,4.922,0.388,9.832,0.388,9.832s16.643-32.3,18.799-36.362C696.637,913.459,696.832,907.039,693.892,907.681z
			 M583.419,769.144c0-8.179,6.63-14.806,14.811-14.806c8.178,0,14.806,6.627,14.806,14.806c0,8.181-6.628,14.806-14.806,14.806
			C590.049,783.95,583.419,777.325,583.419,769.144z"/>
	</g>
	<g>
		<g>
			<path d="M873.08,878.749c-1.823,0-3.64-0.694-5.033-2.084L338.219,346.843c-2.775-2.778-2.775-7.282,0-10.06
				c2.787-2.781,7.279-2.781,10.066,0l529.828,529.822c2.775,2.778,2.775,7.282,0,10.06
				C876.719,878.056,874.903,878.749,873.08,878.749z"/>
		</g>
		<g>
			<polygon points="307.131,345.201 313.608,351.678 329.586,355.303 356.746,328.144 353.121,312.166 346.643,305.688 			"/>
		</g>
	</g>
	<g>
		<g>
			<path d="M326.889,878.749c-1.823,0-3.64-0.694-5.033-2.084c-2.775-2.778-2.775-7.282,0-10.06l529.822-529.822
				c2.787-2.781,7.279-2.781,10.066,0c2.775,2.778,2.775,7.282,0,10.06L331.922,876.665
				C330.529,878.056,328.712,878.749,326.889,878.749z"/>
		</g>
		<g>
			<polygon points="853.321,305.688 846.843,312.166 843.218,328.144 870.378,355.303 886.356,351.678 892.833,345.201 			"/>
		</g>
	</g>
	<g>
		<g>
			<g>
				<path d="M144.881,293.714l3.497-5.798l59.597,35.992l-3.764,6.228l-72.768,6.427l50.476,30.486l-3.559,5.886l-59.591-35.998
					l3.758-6.222l72.824-6.514L144.881,293.714z"/>
			</g>
			<g>
				<path d="M255.944,176.48c6.247-1.307,12.369-1.02,18.366,0.852c5.998,1.879,11.13,5.232,15.392,10.06
					c4.268,4.828,6.981,10.359,8.15,16.593c1.163,6.234,0.722,12.381-1.319,18.441c-2.047,6.06-5.562,11.286-10.533,15.678
					c-4.977,4.399-10.602,7.236-16.867,8.518c-6.265,1.282-12.419,0.964-18.46-0.964c-6.041-1.929-11.199-5.301-15.461-10.129
					c-4.262-4.828-6.956-10.334-8.082-16.518c-1.12-6.184-0.647-12.294,1.419-18.329c2.065-6.035,5.587-11.249,10.564-15.647
					C244.092,180.636,249.704,177.786,255.944,176.48z M234.803,202.268c-1.674,4.928-2.028,9.942-1.07,15.031
					c0.952,5.095,3.185,9.631,6.707,13.613c3.515,3.982,7.764,6.782,12.742,8.405c4.983,1.63,10.029,1.929,15.15,0.908
					c5.12-1.026,9.675-3.298,13.656-6.813c3.926-3.472,6.707-7.678,8.331-12.611c1.624-4.934,1.935-9.967,0.933-15.112
					c-0.996-5.139-3.254-9.7-6.775-13.682c-3.516-3.982-7.74-6.763-12.673-8.337c-4.94-1.574-9.942-1.854-15.019-0.827
					c-5.071,1.027-9.575,3.279-13.507,6.75C239.295,193.116,236.47,197.334,234.803,202.268z"/>
			</g>
			<g>
				<path d="M422.796,152.458l-23.076-14.471c-1.879,1.001-3.335,1.729-4.361,2.196l-17.421,7.902l9.301,20.494l-6.259,2.843
					l-28.756-63.405l23.673-10.739c7.926-3.59,14.876-4.542,20.861-2.843c5.979,1.699,10.496,5.904,13.539,12.618
					c2.389,5.257,3.105,10.222,2.152,14.876c-0.946,4.66-3.465,8.76-7.553,12.287l25.154,14.951L422.796,152.458z M392.807,134.558
					c6.047-2.744,10.079-6.228,12.095-10.459c2.022-4.237,1.848-8.953-0.51-14.154c-2.302-5.077-5.693-8.206-10.166-9.388
					c-4.467-1.176-9.731-0.398-15.778,2.345l-17.414,7.895l14.359,31.662L392.807,134.558z"/>
			</g>
			<g>
				<path d="M490.145,59.575l52.274-8.026l0.952,6.196l-22.74,3.497l9.631,62.708l-6.794,1.045l-9.631-62.708l-22.74,3.49
					L490.145,59.575z"/>
			</g>
			<g>
				<path d="M638.96,50l6.819,0.846l-3.944,31.631l43.191,5.382l3.944-31.625l6.819,0.852l-8.611,69.085l-6.819-0.852l3.901-31.332
					l-43.19-5.382l-3.901,31.332l-6.825-0.852L638.96,50z"/>
			</g>
			<g>
				<path d="M875.861,122.6l6.539,3.179l-51.708,52.386l-6.452-3.136l9.047-63.492L788.77,157.79l-6.358-3.092l9.339-72.98
					l6.719,3.26l-9.475,64.836l45.038-47.546l6.265,3.049l-9.475,64.83L875.861,122.6z"/>
			</g>
			<g>
				<path d="M946.47,268.759l6.794-19.119l-27.979-26.654l-18.69,7.777l-5.338-5.083l70.74-28.763l5.189,4.946l-25.303,72.046
					L946.47,268.759z M931.495,220.373l24.084,22.945l13.855-38.804L931.495,220.373z"/>
			</g>
			<g>
				<path d="M1081.231,338.752l-52.218,0.199l-21.24,12.804l-3.547-5.886l21.241-12.804l24.339-46.432l3.702,6.14l-19.934,39.47
					l43.956,0.367L1081.231,338.752z"/>
			</g>
		</g>
		<g>
			<g>
				<path d="M228.002,918.589c1.058,6.297,0.523,12.4-1.605,18.317c-2.115,5.917-5.674,10.913-10.664,14.975
					c-5.002,4.063-10.639,6.551-16.91,7.46c-6.284,0.914-12.406,0.224-18.379-2.066c-5.973-2.29-11.05-6.01-15.243-11.161
					c-4.193-5.152-6.794-10.882-7.827-17.197c-1.02-6.309-0.448-12.449,1.717-18.404c2.177-5.96,5.761-10.975,10.751-15.038
					c5.002-4.063,10.614-6.533,16.836-7.404c6.221-0.871,12.319-0.149,18.254,2.165c5.948,2.308,11.012,6.041,15.206,11.193
					C224.332,906.575,226.945,912.299,228.002,918.589z M203.103,896.415c-4.865-1.866-9.855-2.426-14.982-1.68
					c-5.126,0.747-9.755,2.793-13.874,6.147c-4.119,3.353-7.093,7.485-8.922,12.393c-1.829,4.909-2.339,9.942-1.518,15.1
					c0.809,5.158,2.899,9.799,6.246,13.918c3.31,4.069,7.404,7.018,12.269,8.841c4.853,1.817,9.88,2.333,15.057,1.549
					c5.176-0.79,9.83-2.862,13.949-6.216c4.119-3.347,7.068-7.46,8.847-12.325c1.767-4.871,2.252-9.861,1.431-14.969
					c-0.821-5.114-2.887-9.706-6.197-13.775C212.063,901.281,207.957,898.288,203.103,896.415z"/>
			</g>
			<g>
				<path d="M303.483,1067.909l0.286-27.232c-1.829-1.083-3.223-1.941-4.156-2.576l-15.828-10.726l-12.63,18.634l-5.687-3.857
					l39.059-57.631l21.514,14.583c7.205,4.878,11.647,10.316,13.327,16.307c1.667,5.985,0.435,12.033-3.696,18.13
					c-3.235,4.785-7.093,7.989-11.56,9.613c-4.467,1.624-9.283,1.611-14.422-0.031l0.386,29.26L303.483,1067.909z M303.085,1032.993
					c5.487,3.72,10.577,5.344,15.243,4.853c4.654-0.491,8.586-3.099,11.796-7.827c3.123-4.616,4.032-9.14,2.7-13.569
					c-1.332-4.43-4.741-8.511-10.241-12.232l-15.828-10.732l-19.499,28.775L303.085,1032.993z"/>
			</g>
			<g>
				<path d="M426.597,1051.16l6.446,2.383l-24.14,65.302l-6.446-2.383L426.597,1051.16z"/>
			</g>
			<g>
				<path d="M564.058,1117.42l6.047,0.659l-2.762,25.347c-3.683,2.47-7.839,4.274-12.468,5.401
					c-4.629,1.132-9.258,1.443-13.874,0.939c-6.545-0.709-12.394-2.949-17.558-6.719c-5.164-3.77-9.071-8.536-11.709-14.304
					c-2.65-5.768-3.621-11.852-2.924-18.254c0.697-6.402,2.962-12.101,6.782-17.097c3.808-4.99,8.685-8.754,14.596-11.28
					c5.923-2.526,12.182-3.429,18.789-2.707c4.679,0.51,9.133,1.829,13.339,3.957c4.206,2.134,7.839,4.865,10.875,8.2l-4.479,4.423
					c-2.551-2.949-5.599-5.338-9.146-7.161c-3.546-1.823-7.292-2.949-11.249-3.385c-5.351-0.579-10.415,0.187-15.181,2.302
					c-4.778,2.121-8.723,5.245-11.846,9.382c-3.123,4.131-4.977,8.841-5.55,14.123c-0.585,5.344,0.199,10.39,2.365,15.131
					c2.152,4.747,5.338,8.667,9.581,11.771c4.231,3.099,9.034,4.94,14.372,5.525c3.297,0.36,6.645,0.174,10.029-0.56
					c3.384-0.734,6.582-1.941,9.569-3.615L564.058,1117.42z"/>
			</g>
			<g>
				<path d="M661.6,1078.672l6.819-0.908l9.233,69.004l-6.806,0.908L661.6,1078.672z"/>
			</g>
			<g>
				<path d="M802.421,1039.158l6.284-2.532l26.007,64.581l-6.744,2.719l-62.03-38.58l22.025,54.688l-6.371,2.569l-26.007-64.581
					l6.744-2.712l62.117,38.543L802.421,1039.158z"/>
			</g>
			<g>
				<path d="M969.372,1013.189l-18.018-9.32l-30.212,24.103l5.176,19.573l-5.761,4.598l-18.901-73.988l5.599-4.473l67.953,34.847
					L969.372,1013.189z M919.4,1021.47l25.994-20.755l-36.558-18.988L919.4,1021.47z"/>
			</g>
			<g>
				<path d="M984.54,895.545l4.082-5.531l51.03,37.715l18.229-24.675l4.965,3.671l-22.311,30.2L984.54,895.545z"/>
			</g>
		</g>
	</g>
	<g>
		<g>
			<path fill="#757575" d="M281.326,598.954l-21.746,33.511l-21.171-33.511v52.857h-8.545v-83.083l29.717,46.847l30.695-46.847
				v83.083h-8.949V598.954z"/>
		</g>
		<g>
			<path fill="#757575" d="M310.625,640.772c1.649,1.031,3.971,2,6.966,2.907c2.995,0.91,6.399,1.366,10.221,1.366
				c4.86,0,8.809-1.086,11.847-3.264c3.038-2.175,4.556-5.597,4.556-10.267c0-3.086-0.869-5.775-2.604-8.07
				c-1.738-2.295-3.906-4.412-6.51-6.35c-2.604-1.938-5.403-3.837-8.397-5.698c-2.995-1.858-5.794-3.916-8.398-6.172
				c-2.604-2.255-4.774-4.846-6.508-7.775c-1.738-2.926-2.605-6.449-2.605-10.562c0-6.648,2.192-11.574,6.576-14.777
				c4.381-3.205,10.089-4.808,17.121-4.808c4.338,0,8.201,0.356,11.588,1.07c3.385,0.711,6.118,1.622,8.201,2.729l-3.123,7.833
				c-1.563-0.871-3.798-1.662-6.706-2.372c-2.909-0.714-6.272-1.07-10.089-1.07c-4.688,0-8.16,1.052-10.416,3.147
				c-2.258,2.095-3.385,4.729-3.385,7.892c0,2.772,0.867,5.221,2.604,7.359c1.735,2.135,3.906,4.153,6.51,6.052
				c2.604,1.901,5.403,3.818,8.397,5.756c2.995,1.941,5.794,4.095,8.398,6.47c2.603,2.372,4.772,5.064,6.51,8.07
				c1.735,3.008,2.604,6.568,2.604,10.682c0,6.965-2.258,12.423-6.77,16.38c-4.514,3.956-10.894,5.935-19.139,5.935
				c-5.207,0-9.483-0.437-12.824-1.307c-3.343-0.868-6.011-1.859-8.007-2.966L310.625,640.772z"/>
		</g>
		<g>
			<rect x="229.864" y="550.266" fill="#757575" width="124.116" height="8.545"/>
		</g>
	</g>
	<g>
		<g>
			<path fill="#757575" d="M896.411,599.018l-21.746,33.511l-21.171-33.511v52.857h-8.545v-83.083l29.717,46.847l30.695-46.847
				v83.083h-8.949V599.018z"/>
		</g>
		<g>
			<polygon fill="#757575" points="960.52,568.792 960.52,624.083 922.651,568.792 922.651,585.678 922.651,651.875 
				931.197,651.875 931.197,596.584 969.065,651.875 969.065,634.989 969.065,568.792 			"/>
		</g>
		<g>
			<rect x="844.949" y="550.33" fill="#757575" width="124.116" height="8.545"/>
		</g>
	</g>
	<path fill="#AAAAAA" d="M599.999,1048.562c-4.239,0-8.466-0.058-12.681-0.178c-2.251-0.061-4.023-1.937-3.96-4.188
		c0.061-2.251,1.961-4.05,4.188-3.96c17.686,0.486,35.699-0.077,53.3-1.696c2.237-0.204,4.225,1.444,4.435,3.686
		c0.204,2.243-1.446,4.228-3.686,4.435C627.866,1047.923,613.872,1048.562,599.999,1048.562z M533.835,1043.671
		c-0.202,0-0.403-0.014-0.608-0.045l-2.686-0.409c-2.227-0.348-3.748-2.431-3.402-4.655c0.345-2.224,2.447-3.732,4.655-3.402
		l2.638,0.403c2.227,0.332,3.761,2.407,3.429,4.634C537.558,1042.219,535.82,1043.671,533.835,1043.671z M694.41,1038.512
		c-1.879,0-3.57-1.309-3.981-3.222c-0.472-2.2,0.929-4.369,3.132-4.841l2.604-0.571c2.234-0.473,4.374,0.908,4.862,3.1
		c0.486,2.2-0.902,4.376-3.1,4.862l-2.657,0.582C694.984,1038.483,694.695,1038.512,694.41,1038.512z M478.597,1031.779
		c-0.369,0-0.743-0.048-1.115-0.154c-17.373-4.923-34.627-10.972-51.284-17.976c-2.075-0.873-3.049-3.264-2.176-5.34
		c0.873-2.073,3.254-3.055,5.34-2.176c16.349,6.876,33.287,12.816,50.344,17.646c2.166,0.613,3.424,2.866,2.811,5.035
		C482.007,1030.608,480.373,1031.779,478.597,1031.779z M748.762,1023.057c-1.677,0-3.249-1.043-3.843-2.712
		c-0.751-2.123,0.358-4.453,2.479-5.207c16.683-5.921,33.193-12.944,49.07-20.868c2.009-1.006,4.459-0.191,5.467,1.826
		c1.006,2.014,0.188,4.462-1.826,5.467c-16.174,8.076-32.989,15.229-49.983,21.261
		C749.675,1022.983,749.216,1023.057,748.762,1023.057z M379.51,990.108c-0.687,0-1.383-0.172-2.02-0.536l-2.37-1.367
		c-1.945-1.136-2.601-3.633-1.468-5.576c1.139-1.943,3.636-2.601,5.576-1.468l2.306,1.33c1.956,1.117,2.633,3.61,1.518,5.563
		C382.299,989.37,380.924,990.108,379.51,990.108z M844.874,975.089c-1.319,0-2.614-0.639-3.4-1.823
		c-1.245-1.876-0.733-4.406,1.144-5.65l2.219-1.478c1.866-1.255,4.4-0.762,5.656,1.112c1.256,1.868,0.757,4.4-1.112,5.656
		l-2.256,1.505C846.432,974.869,845.649,975.089,844.874,975.089z M332.335,958.966c-0.857,0-1.719-0.268-2.455-0.823
		c-14.395-10.876-28.284-22.75-41.286-35.293c-1.622-1.561-1.667-4.143-0.104-5.762c1.563-1.622,4.145-1.667,5.762-0.103
		c12.768,12.315,26.407,23.974,40.543,34.651c1.797,1.359,2.152,3.915,0.796,5.712C334.79,958.409,333.569,958.966,332.335,958.966z
		 M889.923,941.006c-1.147,0-2.285-0.48-3.092-1.417c-1.468-1.706-1.277-4.278,0.43-5.749
		c13.421-11.558,26.288-24.064,38.239-37.169c1.521-1.664,4.095-1.781,5.759-0.266c1.664,1.518,1.783,4.095,0.265,5.759
		c-12.171,13.347-25.274,26.084-38.945,37.854C891.81,940.683,890.865,941.006,889.923,941.006z M255.013,884.367
		c-1.186,0-2.36-0.515-3.166-1.505l-1.701-2.105c-1.412-1.754-1.136-4.318,0.616-5.733c1.752-1.414,4.318-1.136,5.733,0.616
		l1.68,2.078c1.42,1.746,1.155,4.315-0.592,5.735C256.826,884.067,255.915,884.367,255.013,884.367z M962.319,861.609
		c-0.815,0-1.635-0.241-2.349-0.748c-1.839-1.298-2.277-3.843-0.977-5.68l1.55-2.195c1.298-1.842,3.838-2.28,5.68-0.987
		c1.842,1.295,2.282,3.84,0.987,5.679l-1.561,2.206C964.856,861.009,963.598,861.609,962.319,861.609z M222.215,838.376
		c-1.362,0-2.694-0.682-3.466-1.924c-9.528-15.335-18.212-31.402-25.808-47.759c-0.947-2.041-0.061-4.466,1.98-5.414
		c2.036-0.947,4.467-0.064,5.414,1.98c7.458,16.059,15.985,31.835,25.34,46.888c1.186,1.914,0.6,4.427-1.311,5.616
		C223.693,838.177,222.95,838.376,222.215,838.376z M992.116,813.574c-0.65,0-1.308-0.154-1.921-0.483
		c-1.985-1.064-2.734-3.532-1.67-5.518c8.374-15.635,15.866-31.941,22.272-48.473c0.815-2.105,3.182-3.142,5.273-2.327
		c2.099,0.812,3.142,3.174,2.328,5.273c-6.524,16.84-14.157,33.451-22.686,49.375C994.977,812.794,993.57,813.574,992.116,813.574z
		 M176.988,740.95c-1.722,0-3.323-1.099-3.88-2.824l-0.825-2.585c-0.679-2.147,0.507-4.437,2.654-5.117
		c2.15-0.687,4.438,0.51,5.117,2.654l0.815,2.543c0.69,2.142-0.486,4.44-2.627,5.133C177.824,740.886,177.402,740.95,176.988,740.95
		z M1030.957,713.348c-0.332,0-0.666-0.04-1.003-0.125c-2.182-0.552-3.504-2.768-2.951-4.952l0.647-2.588
		c0.536-2.187,2.734-3.535,4.931-2.983c2.187,0.536,3.522,2.747,2.983,4.931l-0.658,2.641
		C1034.439,712.119,1032.78,713.348,1030.957,713.348z M163.078,686.184c-1.924,0-3.636-1.367-4.002-3.328
		c-3.307-17.705-5.565-35.835-6.717-53.89c-0.143-2.248,1.563-4.186,3.809-4.329c2.362-0.133,4.186,1.563,4.329,3.808
		c1.13,17.729,3.349,35.532,6.595,52.913c0.414,2.213-1.046,4.342-3.259,4.756C163.58,686.163,163.327,686.184,163.078,686.184z
		 M1041.279,657.794c-0.165,0-0.327-0.008-0.494-0.029c-2.234-0.271-3.827-2.301-3.559-4.536c2.112-17.53,3.185-35.436,3.185-53.229
		l-0.003-0.963c0-2.251,1.826-4.077,4.077-4.077c2.251,0,4.076,1.826,4.076,4.077l0.003,0.929c0,18.151-1.091,36.389-3.243,54.24
		C1045.071,656.276,1043.312,657.794,1041.279,657.794z M156.215,578.968c-0.077,0-0.154-0.003-0.231-0.005
		c-2.248-0.128-3.967-2.051-3.843-4.299l0.159-2.702c0.133-2.245,2.046-3.962,4.31-3.827c2.248,0.133,3.962,2.062,3.827,4.31
		l-0.154,2.675C160.161,577.29,158.362,578.968,156.215,578.968z M1041.154,549.407c-2.025,0-3.782-1.508-4.039-3.57l-0.334-2.659
		c-0.289-2.234,1.29-4.276,3.522-4.562c2.248-0.303,4.276,1.29,4.565,3.522l0.337,2.686c0.279,2.235-1.306,4.273-3.538,4.552
		C1041.494,549.397,1041.324,549.407,1041.154,549.407z M162.922,522.867c-0.247,0-0.497-0.021-0.746-0.069
		c-2.213-0.409-3.678-2.534-3.267-4.748c3.28-17.766,7.686-35.5,13.095-52.708c0.674-2.15,2.954-3.36,5.109-2.667
		c2.15,0.674,3.344,2.962,2.667,5.109c-5.308,16.895-9.634,34.306-12.856,51.748C166.563,521.495,164.848,522.867,162.922,522.867z
		 M1030.713,493.875c-1.82,0-3.477-1.226-3.946-3.071c-4.379-17.166-9.865-34.245-16.306-50.763
		c-0.818-2.097,0.22-4.462,2.317-5.279c2.089-0.823,4.459,0.218,5.279,2.317c6.563,16.827,12.15,34.224,16.609,51.714
		c0.557,2.182-0.759,4.4-2.943,4.955C1031.385,493.835,1031.045,493.875,1030.713,493.875z M195.138,420.351
		c-0.563,0-1.133-0.117-1.68-0.364c-2.052-0.929-2.959-3.344-2.03-5.396l1.141-2.49c0.947-2.044,3.37-2.925,5.414-1.98
		c2.041,0.947,2.927,3.371,1.98,5.414l-1.11,2.421C198.172,419.462,196.691,420.351,195.138,420.351z M991.707,393.814
		c-1.457,0-2.866-0.783-3.599-2.158l-1.26-2.333c-1.078-1.977-0.345-4.453,1.632-5.528c1.974-1.075,4.453-0.345,5.528,1.633
		l1.292,2.391c1.062,1.985,0.308,4.456-1.677,5.515C993.013,393.66,992.355,393.814,991.707,393.814z M221.771,370.48
		c-0.733,0-1.476-0.196-2.142-0.61c-1.916-1.184-2.508-3.697-1.322-5.611c9.498-15.351,20.04-30.282,31.328-44.38
		c1.404-1.759,3.973-2.043,5.73-0.634c1.757,1.406,2.041,3.973,0.634,5.73c-11.083,13.843-21.431,28.504-30.76,43.574
		C224.47,369.795,223.135,370.48,221.771,370.48z M961.849,345.874c-1.271,0-2.524-0.592-3.317-1.707
		c-10.311-14.414-21.604-28.353-33.568-41.426c-1.521-1.661-1.407-4.238,0.255-5.759c1.659-1.521,4.236-1.409,5.759,0.255
		c12.185,13.315,23.687,27.509,34.183,42.191c1.311,1.831,0.887,4.376-0.945,5.685C963.5,345.628,962.672,345.874,961.849,345.874z
		 M288.92,286.589c-1.054,0-2.11-0.406-2.906-1.218c-1.579-1.606-1.558-4.185,0.048-5.765l1.951-1.903
		c1.616-1.569,4.201-1.524,5.764,0.095c1.566,1.619,1.524,4.199-0.095,5.765l-1.903,1.855
		C290.985,286.199,289.953,286.589,288.92,286.589z M889.307,266.623c-0.939,0-1.882-0.324-2.651-0.982l-2.033-1.736
		c-1.717-1.457-1.927-4.03-0.47-5.746c1.454-1.716,4.023-1.928,5.746-0.47l2.065,1.764c1.709,1.465,1.906,4.038,0.441,5.747
		C891.598,266.14,890.457,266.623,889.307,266.623z M331.698,249.673c-1.231,0-2.45-0.556-3.251-1.614
		c-1.362-1.794-1.009-4.351,0.786-5.712c14.398-10.916,29.595-21.053,45.163-30.131c1.945-1.135,4.443-0.477,5.576,1.469
		c1.133,1.944,0.475,4.44-1.468,5.575c-15.29,8.912-30.208,18.866-44.346,29.584C333.42,249.404,332.555,249.673,331.698,249.673z
		 M844.173,232.606c-0.772,0-1.55-0.217-2.24-0.672c-14.815-9.759-30.372-18.706-46.241-26.589c-2.017-1.002-2.84-3.447-1.839-5.465
		c1.003-2.016,3.455-2.836,5.465-1.836c16.165,8.03,32.013,17.142,47.101,27.083c1.879,1.238,2.399,3.766,1.162,5.646
		C846.795,231.962,845.498,232.606,844.173,232.606z M424.477,195.594c-1.579,0-3.084-0.924-3.748-2.466
		c-0.889-2.069,0.066-4.466,2.134-5.357l2.484-1.06c2.078-0.877,4.467,0.088,5.345,2.16c0.879,2.073-0.088,4.465-2.16,5.345
		l-2.447,1.044C425.56,195.486,425.013,195.594,424.477,195.594z M747.915,184.796c-0.451,0-0.908-0.076-1.356-0.233l-2.529-0.884
		c-2.129-0.735-3.257-3.058-2.521-5.185c0.735-2.127,3.055-3.259,5.186-2.52l2.577,0.9c2.123,0.75,3.238,3.079,2.487,5.202
		C751.169,183.749,749.595,184.796,747.915,184.796z M477.687,176.631c-1.773,0-3.405-1.168-3.917-2.958
		c-0.618-2.166,0.634-4.422,2.8-5.04c17.344-4.954,35.189-8.891,53.038-11.704c2.2-0.348,4.31,1.168,4.661,3.393
		c0.35,2.224-1.168,4.31-3.392,4.662c-17.522,2.76-35.041,6.627-52.066,11.489C478.435,176.579,478.058,176.631,477.687,176.631z
		 M693.492,169.44c-0.284,0-0.57-0.031-0.86-0.092c-17.296-3.704-35.033-6.385-52.716-7.974c-2.242-0.202-3.899-2.183-3.697-4.426
		c0.202-2.241,2.187-3.899,4.424-3.696c18.013,1.619,36.078,4.351,53.698,8.123c2.2,0.471,3.604,2.638,3.132,4.84
		C697.064,168.129,695.371,169.44,693.492,169.44z M583.805,159.879c-2.184,0-3.994-1.731-4.071-3.932
		c-0.08-2.249,1.68-4.139,3.928-4.218l2.707-0.089c2.359-0.071,4.132,1.705,4.196,3.955c0.066,2.251-1.701,4.128-3.952,4.196
		l-2.659,0.086C583.903,159.877,583.852,159.879,583.805,159.879z"/>
</g>
</svg>
