<?xml version="1.0" encoding="utf-8"?>
<!--Designed by Vexels.com - 2017 All Rights Reserved - https://vexels.com/terms-and-conditions/-->
<svg version="1.1" id="Layer_1" xmlns="http://www.w3.org/2000/svg" xmlns:xlink="http://www.w3.org/1999/xlink" x="0px" y="0px"
	 viewBox="0 0 1200 1200" enable-background="new 0 0 1200 1200" xml:space="preserve">
<g>
	<g>
		<path fill="#757575" d="M393.867,353.312c-0.296,5.189-2.469,9.628-6.508,13.322c-4.049,3.687-8.667,5.449-13.861,5.269
			c-5.193-0.173-9.619-2.262-13.277-6.268c-3.649-4.004-5.332-8.596-5.032-13.784c0.296-5.191,2.469-9.632,6.513-13.324
			c4.04-3.689,8.663-5.449,13.852-5.272c5.198,0.173,9.623,2.267,13.277,6.268C392.489,343.527,394.168,348.126,393.867,353.312z
			 M374.984,339.375c-3.604-0.224-6.755,0.889-9.448,3.353c-2.698,2.457-4.094,5.494-4.201,9.1c-0.099,3.613,1.1,6.78,3.595,9.513
			c2.496,2.738,5.543,4.213,9.143,4.442c3.604,0.229,6.755-0.889,9.453-3.351c2.693-2.46,4.089-5.494,4.192-9.103
			c0.103-3.609-1.095-6.78-3.586-9.513C381.631,341.078,378.588,339.604,374.984,339.375z"/>
		<path fill="#757575" d="M428.419,304.966c3.286,5.108,3.124,9.754-0.48,13.953l15.333,6.03l-6.639,4.271l-14.085-5.651
			l-6.858,4.417l6.688,10.402l-5.22,3.358l-19.898-30.94l11.504-7.401c4.722-3.039,8.614-4.412,11.675-4.129
			C423.5,299.557,426.162,301.458,428.419,304.966z M424.286,313.822c0.476-1.6,0.063-3.411-1.239-5.431
			c-1.297-2.022-2.738-3.059-4.314-3.108c-1.575-0.049-3.761,0.828-6.566,2.63l-6.639,4.271l7.114,11.069l6.508-4.19
			C422.1,317.17,423.814,315.415,424.286,313.822z"/>
		<path fill="#757575" d="M444.708,283.102l5.602-2.675l15.867,33.19l-5.602,2.675L444.708,283.102z"/>
		<path fill="#757575" d="M505.003,279.689l5.898-1.95l3.95,11.944c-2.101,4.717-6.217,8.095-12.343,10.119
			c-5.166,1.708-10.05,1.439-14.655-0.81c-4.601-2.249-7.765-5.97-9.484-11.168c-1.715-5.196-1.374-10.113,1.032-14.754
			c2.401-4.637,6.118-7.785,11.145-9.448c5.032-1.661,9.7-1.573,14,0.256l-1.661,5.539c-1.755-0.718-3.393-1.068-4.924-1.064
			c-1.531,0.007-3.214,0.314-5.045,0.92c-3.532,1.165-6.118,3.286-7.765,6.36c-1.643,3.077-1.854,6.468-0.624,10.182
			c1.225,3.719,3.375,6.313,6.454,7.79c3.075,1.477,6.266,1.674,9.588,0.572c3.313-1.093,5.849-2.727,7.608-4.895L505.003,279.689z"
			/>
		<path fill="#757575" d="M529.259,254.329l6.095-1.201l7.087,36.101l-6.095,1.196L529.259,254.329z"/>
		<path fill="#757575" d="M589.499,247.107l6.198-0.377l2.244,36.718l-6.724,0.408l-22.443-25.515l1.643,26.79l-6.203,0.375
			l-2.24-36.718l6.194-0.377l23.004,26.119L589.499,247.107z"/>
		<path fill="#757575" d="M625.928,276.414l-4.565,7.92l-6.594-0.716l20.095-34.822l6.594,0.723l12.132,38.325l-6.594-0.716
			l-2.756-8.721L625.928,276.414z M642.351,272.429l-5.009-15.786l-8.281,14.341L642.351,272.429z"/>
		<path fill="#757575" d="M670.117,291.61l9.291-35.589l6.01,1.569l-7.805,29.889l16.248,4.237l-1.49,5.705L670.117,291.61z"/>
	</g>
	<g>
		<g>
			<g>
				<path fill="#757575" d="M600.002,203.404c-3.057,0-5.534-2.478-5.534-5.534v-84.768c0-3.057,2.478-5.534,5.534-5.534
					s5.534,2.478,5.534,5.534v84.768C605.537,200.927,603.059,203.404,600.002,203.404z M600.002,81.718
					c-3.057,0-5.534-2.478-5.534-5.534V55.534c0-3.057,2.478-5.534,5.534-5.534s5.534,2.478,5.534,5.534v20.649
					C605.537,79.241,603.059,81.718,600.002,81.718z"/>
			</g>
			<g>
				<path fill="#757575" d="M600.002,1150c-3.057,0-5.534-2.478-5.534-5.535v-20.652c0-3.057,2.478-5.534,5.534-5.534
					s5.534,2.478,5.534,5.534v20.652C605.537,1147.522,603.059,1150,600.002,1150z M600.002,1092.435
					c-3.057,0-5.534-2.478-5.534-5.534v-84.77c0-3.057,2.478-5.534,5.534-5.534s5.534,2.478,5.534,5.534v84.77
					C605.537,1089.957,603.059,1092.435,600.002,1092.435z"/>
			</g>
			<g>
				<path fill="#757575" d="M1144.465,605.535h-20.652c-3.057,0-5.534-2.478-5.534-5.534s2.478-5.534,5.534-5.534h20.652
					c3.057,0,5.534,2.478,5.534,5.534S1147.521,605.535,1144.465,605.535z M1086.899,605.535h-84.77
					c-3.057,0-5.534-2.478-5.534-5.534s2.478-5.534,5.534-5.534h84.77c3.057,0,5.534,2.478,5.534,5.534
					S1089.956,605.535,1086.899,605.535z"/>
			</g>
			<g>
				<path fill="#757575" d="M197.871,605.535h-84.77c-3.057,0-5.534-2.478-5.534-5.534s2.478-5.534,5.534-5.534h84.77
					c3.056,0,5.534,2.478,5.534,5.534S200.928,605.535,197.871,605.535z M76.187,605.535H55.535c-3.057,0-5.534-2.478-5.534-5.534
					s2.478-5.534,5.534-5.534h20.652c3.057,0,5.534,2.478,5.534,5.534S79.244,605.535,76.187,605.535z"/>
			</g>
			<g>
				<path fill="#757575" d="M884.35,321.185c-1.418,0-2.832-0.539-3.914-1.62c-2.163-2.161-2.163-5.667,0-7.828l59.94-59.94
					c2.163-2.163,5.665-2.163,7.828,0c2.163,2.161,2.163,5.667,0,7.828l-59.94,59.94
					C887.182,320.647,885.769,321.185,884.35,321.185z M970.395,235.14c-1.418,0-2.832-0.539-3.914-1.62
					c-2.164-2.161-2.164-5.667,0-7.828l14.601-14.601c2.164-2.163,5.664-2.163,7.828,0c2.163,2.161,2.163,5.667,0,7.828
					l-14.601,14.601C973.227,234.602,971.814,235.14,970.395,235.14z"/>
			</g>
			<g>
				<path fill="#757575" d="M215.004,990.527c-1.418,0-2.832-0.539-3.914-1.62c-2.163-2.163-2.163-5.664,0-7.828l14.601-14.601
					c2.163-2.164,5.664-2.164,7.828,0c2.163,2.163,2.163,5.664,0,7.828l-14.601,14.601
					C217.836,989.989,216.422,990.527,215.004,990.527z M255.71,949.825c-1.419,0-2.832-0.539-3.914-1.62
					c-2.163-2.163-2.163-5.664,0-7.828l59.94-59.942c2.163-2.163,5.664-2.163,7.828,0c2.163,2.161,2.163,5.667,0,7.828
					l-59.94,59.942C258.543,949.287,257.128,949.825,255.71,949.825z"/>
			</g>
			<g>
				<path fill="#757575" d="M984.996,990.527c-1.418,0-2.832-0.539-3.914-1.62l-14.601-14.601c-2.164-2.163-2.164-5.664,0-7.828
					c2.163-2.164,5.664-2.164,7.828,0l14.601,14.601c2.163,2.164,2.163,5.664,0,7.828
					C987.829,989.989,986.415,990.527,984.996,990.527z M944.29,949.825c-1.419,0-2.832-0.539-3.914-1.62l-59.94-59.942
					c-2.163-2.161-2.163-5.667,0-7.828c2.163-2.163,5.664-2.163,7.828,0l59.94,59.942c2.163,2.163,2.163,5.664,0,7.828
					C947.122,949.287,945.708,949.825,944.29,949.825z"/>
			</g>
			<g>
				<path fill="#757575" d="M315.65,321.185c-1.418,0-2.832-0.539-3.914-1.62l-59.94-59.94c-2.163-2.161-2.163-5.667,0-7.828
					c2.163-2.163,5.665-2.163,7.828,0l59.94,59.94c2.163,2.161,2.163,5.667,0,7.828C318.482,320.647,317.068,321.185,315.65,321.185
					z M229.605,235.14c-1.418,0-2.832-0.539-3.914-1.62l-14.601-14.601c-2.163-2.161-2.163-5.667,0-7.828
					c2.163-2.163,5.664-2.163,7.828,0l14.601,14.601c2.163,2.161,2.163,5.667,0,7.828
					C232.437,234.602,231.023,235.14,229.605,235.14z"/>
			</g>
		</g>
		<g>
			<g>
				<path fill="#757575" d="M446.113,234.018c-2.168,0-4.233-1.286-5.112-3.418l-26.608-64.24c-1.171-2.826,0.171-6.062,2.994-7.233
					c2.81-1.149,6.069,0.168,7.231,2.996l26.608,64.24c1.172,2.826-0.17,6.062-2.994,7.233
					C447.541,233.881,446.822,234.018,446.113,234.018z"/>
			</g>
			<g>
				<path fill="#757575" d="M780.499,1041.292c-2.168,0-4.233-1.284-5.112-3.416l-26.608-64.24c-1.171-2.823,0.17-6.064,2.994-7.231
					c2.81-1.162,6.069,0.166,7.231,2.994l26.608,64.24c1.171,2.823-0.17,6.064-2.994,7.231
					C781.926,1041.158,781.208,1041.292,780.499,1041.292z"/>
			</g>
			<g>
				<path fill="#757575" d="M971.522,451.649c-2.168,0-4.233-1.286-5.112-3.418c-1.171-2.826,0.171-6.062,2.994-7.233l64.235-26.608
					c2.805-1.147,6.064,0.169,7.231,2.996c1.172,2.826-0.171,6.062-2.994,7.233l-64.235,26.608
					C972.949,451.512,972.231,451.649,971.522,451.649z"/>
			</g>
			<g>
				<path fill="#757575" d="M164.243,786.032c-2.168,0-4.233-1.286-5.113-3.418c-1.171-2.826,0.171-6.062,2.994-7.233l64.24-26.608
					c2.814-1.156,6.064,0.168,7.231,2.996c1.171,2.826-0.17,6.062-2.994,7.233l-64.24,26.608
					C165.67,785.895,164.952,786.032,164.243,786.032z"/>
			</g>
			<g>
				<path fill="#757575" d="M753.891,234.018c-0.709,0-1.427-0.137-2.119-0.422c-2.823-1.171-4.165-4.408-2.994-7.233l26.608-64.24
					c1.167-2.828,4.434-4.147,7.231-2.996c2.823,1.171,4.165,4.408,2.994,7.233l-26.608,64.24
					C758.124,232.732,756.059,234.018,753.891,234.018z"/>
			</g>
			<g>
				<path fill="#757575" d="M419.505,1041.292c-0.709,0-1.427-0.135-2.119-0.422c-2.823-1.167-4.165-4.408-2.994-7.231l26.608-64.24
					c1.167-2.828,4.435-4.161,7.231-2.994c2.823,1.167,4.165,4.408,2.994,7.231l-26.608,64.24
					C423.738,1040.009,421.673,1041.292,419.505,1041.292z"/>
			</g>
			<g>
				<path fill="#757575" d="M1035.757,786.032c-0.709,0-1.427-0.137-2.119-0.422l-64.235-26.608
					c-2.823-1.171-4.165-4.408-2.994-7.233c1.167-2.828,4.43-4.154,7.231-2.996l64.235,26.608c2.823,1.171,4.165,4.408,2.994,7.233
					C1039.99,784.746,1037.925,786.032,1035.757,786.032z"/>
			</g>
			<g>
				<path fill="#757575" d="M228.483,451.649c-0.709,0-1.427-0.137-2.119-0.422l-64.24-26.608c-2.823-1.171-4.165-4.408-2.994-7.233
					c1.167-2.828,4.426-4.145,7.231-2.996l64.24,26.608c2.823,1.171,4.165,4.408,2.994,7.233
					C232.716,450.363,230.651,451.649,228.483,451.649z"/>
			</g>
		</g>
	</g>
	<g>
		<path fill="#757575" d="M420.807,886.97c-1.553,0-2.828,0.319-3.824,0.951c-0.992,0.633-1.49,1.589-1.49,2.873
			c0,1.284,0.498,2.262,1.49,2.94c0.996,0.678,3.115,1.409,6.356,2.195c3.245,0.785,5.687,1.885,7.33,3.304
			c1.643,1.418,2.464,3.506,2.464,6.261c0,2.761-1.037,5-3.12,6.719c-2.082,1.719-4.811,2.581-8.187,2.581
			c-4.946,0-9.336-1.706-13.165-5.112l3.348-4.026c3.196,2.774,6.513,4.161,9.951,4.161c1.719,0,3.084-0.368,4.094-1.109
			c1.01-0.736,1.517-1.719,1.517-2.94c0-1.221-0.476-2.172-1.427-2.85c-0.947-0.678-2.585-1.297-4.906-1.854
			c-2.325-0.556-4.089-1.073-5.292-1.539c-1.207-0.467-2.28-1.077-3.214-1.831c-1.872-1.418-2.805-3.591-2.805-6.513
			c0-2.927,1.064-5.18,3.191-6.764c2.123-1.585,4.753-2.374,7.891-2.374c2.02,0,4.026,0.332,6.019,0.996
			c1.988,0.66,3.708,1.598,5.157,2.801l-2.85,4.026c-0.938-0.844-2.204-1.535-3.802-2.078
			C423.936,887.244,422.36,886.97,420.807,886.97z"/>
		<path fill="#757575" d="M453.308,882.809h5.341v31.622h-5.341V882.809z"/>
		<path fill="#757575" d="M504.702,882.809h5.337v31.622h-5.79l-17.914-23.071v23.071h-5.341v-31.622h5.341l18.367,23.614V882.809z"
			/>
		<path fill="#757575" d="M546.813,909.592c1.84,0,3.425-0.31,4.753-0.929c1.324-0.62,2.711-1.607,4.161-2.963l3.438,3.528
			c-3.348,3.708-7.41,5.566-12.191,5.566s-8.748-1.539-11.899-4.614c-3.151-3.079-4.727-6.966-4.727-11.675
			c0-4.704,1.607-8.622,4.816-11.76c3.214-3.137,7.267-4.704,12.168-4.704s8.995,1.809,12.285,5.426l-3.393,3.712
			c-1.508-1.45-2.935-2.46-4.278-3.034c-1.342-0.57-2.917-0.857-4.726-0.857c-3.196,0-5.88,1.032-8.052,3.097
			c-2.172,2.069-3.259,4.704-3.259,7.918c0,3.214,1.082,5.898,3.236,8.052C541.301,908.511,543.86,909.592,546.813,909.592z"/>
		<path fill="#757575" d="M601.461,882.809v5.023h-16.872v8.367h15.153v4.753h-15.153v8.456h17.415v5.023h-22.752v-31.622H601.461z"
			/>
		<path fill="#757575" d="M645.296,882.809h11.491v31.622h-5.068v-26.873h-6.423V882.809z"/>
		<path fill="#757575" d="M686.824,909.996c2.805,0,4.87-0.947,6.198-2.85c1.324-1.899,2.006-4.462,2.033-7.689
			c-0.754,0.844-1.836,1.638-3.254,2.374c-1.418,0.741-2.985,1.109-4.704,1.109c-2.837,0-5.211-0.943-7.128-2.828
			c-1.917-1.885-2.873-4.385-2.873-7.509c0-3.12,1.032-5.633,3.102-7.532c2.065-1.899,4.664-2.85,7.801-2.85
			c5.068,0,8.564,2.262,10.494,6.787c1.086,2.594,1.629,5.516,1.629,8.775s-0.346,5.97-1.042,8.142
			c-0.691,2.172-1.643,3.891-2.85,5.157c-2.352,2.473-5.238,3.712-8.663,3.712c-3.42,0-6.522-1.073-9.296-3.214l2.671-3.937
			c0.691,0.606,1.62,1.149,2.783,1.629C684.885,909.759,685.922,909.996,686.824,909.996z M687.798,898.237
			c1.822,0,3.348-0.507,4.569-1.517c1.221-1.01,1.831-2.32,1.831-3.936c0-1.611-0.588-2.998-1.764-4.161
			c-1.176-1.158-2.648-1.742-4.412-1.742c-1.764,0-3.218,0.521-4.363,1.562c-1.149,1.041-1.719,2.374-1.719,4.004
			c0,1.629,0.521,2.998,1.557,4.116C684.539,897.68,685.971,898.237,687.798,898.237z"/>
		<path fill="#757575" d="M718.445,891.903v-9.094h22.254v4.749l-13.389,26.873h-5.88l13.075-26.779h-11.221v4.251H718.445z"/>
		<path fill="#757575" d="M772.321,895.162c0.907-1.239,1.36-2.491,1.36-3.757c0-1.266-0.485-2.343-1.45-3.236
			c-0.965-0.889-2.186-1.333-3.663-1.333c-2.594,0-4.749,1.329-6.468,3.981l-4.3-2.487c1.387-2.082,2.918-3.649,4.592-4.704
			c1.674-1.059,3.829-1.584,6.468-1.584c2.639,0,4.955,0.835,6.944,2.509c1.993,1.674,2.989,3.959,2.989,6.854
			c0,1.629-0.426,3.182-1.27,4.659c-0.844,1.477-2.397,3.38-4.659,5.701l-7.419,7.554h14.341v5.112h-21.621v-4.524l9.588-9.637
			C769.893,898.102,771.419,896.396,772.321,895.162z"/>
	</g>
	<path fill="#757575" d="M355.503,752.666c-0.543-1.078-1.121-2.213-1.704-3.361c-3.368-6.623-6.835-13.443-9.395-20.49
		c-8.66,5.747-12.213,12.393-13.659,17.158c-3.228,10.156,0.102,20.361,5.032,24.011c1.754,1.362,3.48,1.747,5.472,1.244
		l1.421-0.588c5.673-3.009,11.077-7.219,15.721-12.241c-0.446-0.941-0.943-1.904-1.458-2.902
		C356.45,754.563,355.963,753.62,355.503,752.666z"/>
	<path fill="#757575" d="M360.832,691.358c-0.062-0.385-0.151-0.647-0.227-0.812c-0.086,0.028-0.194,0.067-0.326,0.122
		c-3.444,1.425-5.609,3.231-7.021,5.854c-2.125,4.129-2.206,10.283-0.23,18.305C357.439,709.218,361.982,698.418,360.832,691.358z"
		/>
	<path fill="#757575" d="M358.854,652.67c-15.568,1.352-31.017,6.649-47.21,16.055c-15.995,9.713-27.992,20.759-36.674,33.768
		c-14.487,21.71-12.87,41.923,4.808,60.078c28.26,29.022,62.682,49.694,102.311,61.441c6.492,1.925,11.573,2.695,15.646,2.315
		c2.463-0.23,4.558-0.882,6.371-1.951c4.789-2.863,7.938-8.879,10.211-19.506c8.642-40.417,6.958-80.535-5.007-119.237
		C401.825,661.425,384.85,650.335,358.854,652.67z M392.479,721.142c-0.035,0.056-0.072,0.111-0.111,0.165
		c-2.161,2.958-5.543,4.466-8.995,5.752c-1.208,7.113-5.98,18.767-14.392,30.001c2.353,7.017,3.203,12.111,2.67,15.953
		c-0.019,0.143-0.051,0.286-0.093,0.424c-0.36,1.181-1.27,2.177-2.434,2.662l-0.192,0.079c-0.378,0.157-0.788,0.226-1.196,0.206
		c-1.782-0.092-3.209-1.275-3.471-2.873c-0.01-0.059-0.017-0.118-0.023-0.177c-0.207-2.121-1.305-5.108-2.569-8.031
		c-4.912,4.907-10.23,8.817-15.856,11.653c-0.595,0.469-1.172,0.709-1.578,0.877l-0.773,0.319c-2.277,0.863-4.564,1.288-6.788,1.288
		c-4.021,0-7.839-1.387-11.031-4.082c-7.435-6.18-10.029-17.685-6.438-28.617c3.299-10.044,11.141-18.671,22.742-25.055
		c-2.92-10.343-2.674-18.653,0.742-25.348c2.986-5.786,8.204-10.038,15.514-12.65c3.455-1.435,5.635-0.474,6.768,0.435
		c1.229,0.714,2.636,2.255,3.176,5.568c1.315,8.071-4.339,25.984-12.819,33.076c1.503,4.505,3.423,9.178,5.287,13.715
		c0.725,1.764,1.445,3.516,2.136,5.245c1.093,2.398,2.155,4.858,3.162,7.329c4.602-6.855,7.672-13.581,9.213-18.698
		c-0.606,0.399-1.096,0.836-1.361,1.305c-0.69,1.107-1.547,1.463-2.059,1.676c-0.394,0.162-1.501,0.612-2.794,0.028
		c-0.902-0.41-1.579-1.183-1.861-2.122c-0.303-1.005-0.134-2.129,0.464-3.082c2.56-4.086,7.163-5.833,11.658-7.271
		c2.69-0.966,6.139-2.202,7.367-3.751c1.071-1.576,3.064-2.198,4.703-1.454c0.21,0.097,0.407,0.218,0.587,0.363
		C393.331,717.258,393.596,719.354,392.479,721.142z"/>
	<g>
		<path fill="#1E120D" d="M466.298,581.446c0.001,0.01,0.001,0.021,0.003,0.032c0.853,12.111,3.719,20.043,8.517,23.576
			c1.829,1.346,3.892,2.032,6.069,2.032c0.834,0,1.685-0.101,2.547-0.303l0.931-0.22c0.19-0.045,0.379-0.104,0.561-0.176
			c14.856-5.847,30.895-51.602,38.637-79.532c1.163,0.689,2.397,1.317,3.695,1.879c8.751,3.93,25.032,7.134,46.702-6.436
			c-1.905,8.536-2.312,16.352-0.728,22.332c0.99,3.738,5.061,14.436,19.006,14.436c2.355,0,4.991-0.305,7.943-1
			c18.956-4.466,52.628-37.312,72.062-57.691c-2.856,24.79-3.565,56.188,8.875,66.854c0.052,0.044,0.104,0.087,0.158,0.128
			c1.545,1.198,2.979,1.553,4.138,1.553c0.5,0,0.947-0.066,1.33-0.159c2.859-0.693,4.062-3.278,4.556-4.344
			c5.078-11.654,11.414-25.031,18.852-39.81c2.426,0.909,4.966,1.394,7.592,1.448c3.357,0.311,6.131,0.11,9.521-0.689
			c37.935-8.938,98.299-73.158,98.904-73.806c0.202-0.216,0.38-0.453,0.532-0.707c1.382-2.328,2.178-6.913-0.508-9.364
			c-0.757-0.689-3.546-2.705-7.693,0.309c-0.28,0.203-0.535,0.441-0.754,0.707l-0.287,0.347c-0.241,0.226-0.605,0.581-1.235,1.192
			c-41.322,40.155-76.146,63.707-93.205,62.965c-1.144-0.056-2.281-0.264-3.329-0.595c25.155-45.802,35.048-52.53,38.171-53.265
			c2.613-0.615,5.476-3.385,5.544-6.791c0.036-1.823-0.749-3.519-2.151-4.652c-1.453-1.174-3.393-1.624-5.19-1.2
			c-32.331,7.618-54.028,52.527-65.587,84.433c0.472-12.629,2.589-29.054,6.256-47.966c31.344-27.865,63.366-64.694,88.011-101.246
			c14.985-22.223,39.568-62.897,35.867-85.491c-1.48-10.906-9.581-17.085-21.612-16.531c-0.255,0.012-0.508,0.048-0.755,0.106
			l-3.752,0.062c-0.297,0.004-0.593,0.041-0.884,0.109l-3.182,0.75c-24.452,4.834-49.103,29.635-71.312,71.759
			c-18.989,36.679-35.216,85.518-43.406,130.644c-0.085,0.468-0.172,0.954-0.259,1.448c-10.624,11.926-57.507,61.779-77.055,66.386
			c-2.449,0.576-2.6,0.615-3.298-1.954c-3.847-15.628,14.7-61.364,29.646-73.151c2.035-1.468,3.693-2.153,4.323-1.794
			c0.163,0.093,0.344,0.178,0.53,0.251c0.229,0.317,0.504,0.601,0.814,0.841c1.495,1.158,2.378,6.164,0.177,12.473
			c-2.141,5.755-5.65,8.801-8.267,9.755c-1.661,0.486-3.254,1.764-4.115,3.323c-0.687,1.244-0.911,2.615-0.656,3.934
			c0.127,1.666,0.871,3.149,2.094,4.137c1.42,1.148,3.279,1.523,5.229,1.062c0.095-0.022,0.188-0.048,0.28-0.077
			c7.378-2.3,14.012-9.36,17.298-18.386c4.06-10.811,2.846-21.537-3.02-26.689c-0.387-0.339-0.829-0.599-1.299-0.772l-0.741-0.765
			c-0.338-0.348-0.733-0.634-1.169-0.844c-8.157-3.936-17.644-2.048-26.645,5.261c-11.208,8.745-21.617,24.041-28.579,39.822
			c-17.893,16.303-34.785,21.854-47.866,15.627c-1.974-0.951-3.841-2.476-5.815-4.091c-0.004-0.003-0.01-0.007-0.013-0.011
			c3.831-15.476,6.109-29.302,6.283-38.233c0.135-6.789-0.47-10.98-2.017-13.937c-2.241-5.098-6.764-7.257-12.458-5.912
			c-8.031,1.893-14.276,7.967-17.091,16.54c-1.405,3.861-1.712,7.659-1.826,11.361C473.292,499.407,464.68,555.591,466.298,581.446z
			 M753.157,322.613c13.611-20.731,26.516-32.291,39.454-35.34l1.89-0.445l3.721-0.054c0.063-0.001,0.126-0.003,0.189-0.007
			c7.208-0.435,8.811,3.159,9.395,6.228c4.323,26.723-48.912,107.345-106.337,162.813
			C714.085,402.905,733.069,353.819,753.157,322.613z M513.982,474.389c1.374-3.784,3.338-6.115,5.979-7.089
			c0.576,1.624,0.817,4.352,0.74,8.318c-0.123,6.26-1.202,14.605-3.15,24.466c-2.167-4.411-3.636-9.308-4.108-13.982l0.012-0.688
			c0.005-0.283-0.017-0.566-0.071-0.845C512.647,480.697,513.225,477.389,513.982,474.389z M504.465,503.605
			c2.189,5.21,5.14,10.105,8.527,14.099c-8.469,32.316-21.012,62.19-27.955,72.669c-0.977-10.491,0.256-34.563,6.989-58.33
			c0.005-0.02,0.011-0.04,0.016-0.059C496.358,515.843,500.928,507.705,504.465,503.605z"/>
		<path fill="#1E120D" d="M933.286,457.957c-2.505-2.222-5.852-3.114-9.665-2.581c-0.214,0.03-0.426,0.076-0.633,0.139
			c-15.503,1.614-30.72,15.132-45.239,40.197c-25.845,44.884-43.335,114.462-49.308,163.974
			c-30.278,42.008-55.807,68.61-70.107,73.032l-1.175,0.364c-0.426-0.175-0.759-0.417-1.045-0.747
			c-4.47-7.036-6.137-30.85,0.078-68.63c49.858-49.967,87.975-113.586,83.408-139.378c-0.011-0.062-0.024-0.125-0.038-0.187
			c-1.93-8.57-8.236-13.357-17.156-13.093c-16.604,0.384-32.633,12.312-47.674,35.505c-16.42,26.188-29.859,64.377-36.871,104.774
			c-1.131,6.513-2.044,12.817-2.749,18.875c-11.557,9.722-22.661,13.047-31.986,9.367c-1.554-0.622-3.089-1.681-4.705-2.825
			c2.298-13.169,3.397-24.873,3.029-32.405c-0.286-5.841-1.064-9.433-2.592-11.934c-2.343-4.46-6.565-6.119-11.601-4.563
			c-6.888,2.129-11.967,7.784-13.897,15.389c-0.955,3.313-1.025,6.487-0.92,9.566c-21.72,16.015-25.755,63.953-22.885,85.731
			l0.005,0.032c1.45,10.374,4.427,17.057,8.849,19.866c1.551,0.986,3.238,1.484,4.982,1.484c0.961,0,1.938-0.151,2.92-0.456
			l0.773-0.24c0.188-0.058,0.37-0.129,0.547-0.213c12.288-5.838,23.181-44.841,28.205-69.065c0.821,0.383,1.675,0.731,2.557,1.045
			c7.107,2.62,19.617,4.355,35.338-5.325c-1.357,22.831,0.819,40.742,6.448,50.436c3.709,6.241,9.497,9.639,15.943,9.289
			c1.565,0.131,3.081-0.34,4.45-0.762l0.773-0.24c18.418-5.697,44.089-34.645,64.904-61.776c-1.416,20.972-1.384,47.532,6.12,59.65
			c0.035,0.056,0.071,0.111,0.107,0.165c3.439,5.003,7.956,7.724,12.67,7.724c0.571,0,1.144-0.04,1.719-0.12
			c1.421,0.08,2.603-0.288,3.437-0.546l0.773-0.239c0.083-0.025,0.166-0.054,0.247-0.084c3.32-1.261,12.137-4.608,46.347-67.293
			c15.933-29.197,30.749-59.093,36.38-70.592c0.125-0.255,0.223-0.521,0.292-0.796c0.58-2.279,0.318-4.17-0.78-5.622
			c-0.727-0.963-1.74-1.608-2.915-1.874c-2.448-0.91-5.325,0.155-7.231,2.807c-0.142,0.198-0.267,0.407-0.371,0.627
			c-31.252,65.409-67.006,127.933-74.975,131.164l-0.445,0.138c-0.09-0.092-0.169-0.184-0.227-0.253
			c-4.961-7.233-6.233-36.992,2.024-87.459c42.226-61.274,86.764-144.143,88.535-177.41c0.003-0.048,0.004-0.095,0.004-0.143
			C938.088,465.696,936.516,460.821,933.286,457.957z M790.25,554.484c10.83-19.382,21.453-29.791,31.578-30.943
			c4.167-0.125,5.313,1.415,5.825,3.835c2.885,15.662-21.435,65.672-67.652,115.506C767.29,608.731,778.29,576.424,790.25,554.484z
			 M666.901,742.842c-1.149-9.218-1.421-27.616,2.764-47.485c0,0,0.008-0.04,0.012-0.06c2.505-12.839,5.562-19.82,8.135-23.614
			c2.052,3.877,4.607,7.469,7.429,10.418C680.299,707.951,672.151,732.49,666.901,742.842z M688.366,664.727
			c-1.565-3.068-2.71-6.385-3.266-9.613l-0.027-0.539c-0.013-0.286-0.056-0.57-0.129-0.847c-0.66-2.516-0.686-4.94-0.08-8.328
			c0.991-3.422,2.516-4.91,3.673-5.601c0.414,1.325,0.691,3.382,0.827,6.137C689.601,650.789,689.258,657.178,688.366,664.727z
			 M925.855,472.921c-1.454,23.544-31.646,85.712-70.734,146.834c8.887-42.189,23.147-91.9,40.609-123.321
			c10.224-18.178,19.97-28.11,28.181-28.723c0.121-0.009,0.241-0.023,0.359-0.043c0.202-0.033,0.357-0.043,0.47-0.043
			c0.272,0,0.264,0.024,0.264,0.024C925.028,467.672,926.008,468.643,925.855,472.921z"/>
		<path fill="#1E120D" d="M925.416,713.219c-0.671,0.737-68.451,73.818-188.232,79.573c-83.998,4.045-137.046-13.565-166.754-29.04
			c-18.637-9.709-30.645-19.806-37.459-26.591c31.804-14.479,84.375-48.528,119.343-103.265
			c9.605-15.255,19.71-36.209,13.251-49.499c-3.865-7.418-12.582-10.489-23.927-8.433c-0.048,0.008-0.096,0.018-0.145,0.029
			c-22.763,4.984-58.868,31.157-92.692,78.894c3.758-21.211,2.4-34.517-4.06-42.085c-5.214-5.87-13.569-7.077-24.824-3.598
			c-19.441,6.013-39.805,27.628-55.238,51.766c-19.749-4.891-43.596-13.475-70.925-28.178
			c-34.281-18.444-58.723-46.707-69.981-61.494c37.9-13.326,105.634-49.451,152.891-113.317
			c12.441-17.047,25.937-40.672,19.587-56.413c-0.015-0.036-0.03-0.071-0.046-0.107c-3.813-8.736-13.57-12.901-26.747-11.43
			c-0.049,0.005-0.098,0.011-0.147,0.019c-27.526,4.075-73.014,32.756-117.283,87.845c6.967-26.341,6.759-42.918-0.407-52.578
			c-5.472-7.087-14.96-9.098-28.2-5.979c-21.096,4.971-46.416,25.841-69.469,57.261c-20.849,28.416-34.551,58.465-34.906,76.551
			c-0.148,7.54,1.762,12.784,5.835,16.024c2.947,2.646,8.506,5.236,18.387,2.911c2.613-0.617,5.474-3.387,5.542-6.788
			c0.036-1.825-0.748-3.522-2.152-4.656c-1.454-1.174-3.396-1.623-5.188-1.198c-4.383,1.031-6.899,0.451-7.724-0.359
			c-0.114-0.113-0.236-0.219-0.363-0.317c-0.366-0.283-1.552-1.594-1.455-6.553c0.297-15.155,13.147-42.628,31.974-68.361
			c20.717-28.315,43.638-47.706,61.316-51.871c3.26-0.767,5.454-0.515,6.518,0.75c10.007,11.915-9.882,74.648-23.031,116.118
			c-0.394,1.2-0.788,2.38-1.178,3.549c-1.32,3.957-2.579,7.731-3.677,11.666c-5.556,1.107-9.894,1.275-12.221,1.249
			c-0.43-0.05-0.757-0.122-0.991-0.19c-0.715-1.315-1.777-2.281-3.073-2.774c-1.464-0.556-3.086-0.461-4.618,0.264
			c-2.564,0.906-4.405,3.538-4.464,6.5c-0.039,1.978,0.683,8.492,11.596,9.27c0.08,0.006,0.159,0.009,0.239,0.01
			c2.472,0.051,5.711-0.289,9.433-0.925c-8.945,29.552-15.417,53.224-14.411,67.255c0.023,1.862,0.769,3.475,2.114,4.562
			c1.022,0.825,2.273,1.251,3.626,1.251c0.521,0,1.058-0.063,1.602-0.191c3.25-0.768,5.476-3.496,5.539-6.791
			c0.003-0.139-0.002-0.279-0.013-0.418c-1.032-12.484,8.083-38.092,17.347-62.174c12.507,16.134,37.346,43.869,72.349,62.702
			c26.66,14.343,50.194,23.125,70.125,28.395c-12.015,21.412-19.625,43.237-18.957,56.853c0.321,6.576,2.321,11.052,6.114,13.673
			c2.768,2.154,7.803,4.104,16.256,1.487c2.448-0.754,4.888-3.461,4.733-6.689c-0.084-1.742-0.944-3.306-2.358-4.296
			c-1.453-1.015-3.325-1.311-4.995-0.796c-3.641,1.125-5.482,0.668-5.947,0.269c-0.123-0.104-0.252-0.202-0.386-0.292
			c-0.115-0.078-1.131-0.872-1.33-4.955c-0.573-11.699,7.233-32.313,18.939-52.383c16.252,3.43,29.613,4.453,39.715,4.453
			c5.91,0,10.7-0.347,14.319-0.761c-2.981,14.201-6.541,28.847-9.562,41.272c-0.266,1.046-0.533,2.078-0.797,3.099
			c-0.851,3.286-1.664,6.427-2.347,9.68c-4.376,1.157-7.826,1.524-9.715,1.64c-0.182-0.01-0.339-0.027-0.469-0.046
			c-0.749-1.072-1.763-1.834-2.95-2.194c-1.428-0.434-2.954-0.242-4.352,0.532c-2.331,1.029-3.876,3.593-3.74,6.343
			c0.089,1.814,1.143,7.732,10.961,7.757c0.087,0,0.161-0.003,0.24-0.007c1.901-0.106,4.303-0.489,7.037-1.113
			c-5.732,25.067-9.71,45.12-8.058,56.869c0.149,1.729,0.983,3.241,2.312,4.173c0.914,0.64,2.007,0.968,3.154,0.968
			c0.617,0,1.25-0.095,1.878-0.288c2.931-0.911,4.875-3.662,4.726-6.69c-0.007-0.14-0.02-0.28-0.041-0.419
			c-1.607-10.547,4.849-33.251,11.381-54.392c0.077-0.028,0.148-0.074,0.224-0.105c7.43,7.451,20.16,18.161,39.754,28.499
			c28.121,14.835,76.082,31.524,149.498,31.524c7.873,0,16.042-0.193,24.508-0.599c65.192-3.133,115.124-25.603,145.532-43.899
			c33.056-19.892,50.514-38.901,51.242-39.701c2.293-2.523,2.109-6.426-0.414-8.72C931.615,710.513,927.71,710.696,925.416,713.219z
			 M340.661,514.024c50.814-75.422,99.056-100.379,112.917-106.325c4.391-1.429,12.016-3.092,15.473,1.066
			c3.417,6.105,0.016,22.298-15.325,45.053c-0.18,0.182-0.343,0.38-0.489,0.594c-34.685,51.168-88.31,87.716-129.138,103.107
			L340.661,514.024z M477.116,663.686c13.515-20.27,30.323-38.031,45.424-42.701c1.692-0.523,3.917-0.932,4.908,0.093
			c4.852,5.032,3.167,23.335-0.774,44.719C520.646,666.797,503.465,668.659,477.116,663.686z M540.736,689.038
			c38.413-66.397,77.533-90.204,88.887-96.034c3.463-1.392,9.461-3.155,12.373-0.176c3.092,4.823,1.094,18.388-10.351,38.182
			c-0.151,0.18-0.288,0.373-0.407,0.578c-25.932,44.543-68.24,78.145-101.549,93.734L540.736,689.038z"/>
	</g>
</g>
</svg>
