<svg class="sourceSVG" xmlns="http://www.w3.org/2000/svg" xmlns:xlink="http://www.w3.org/1999/xlink">
	<defs>
		<path id="alarm" transform="translate(-389 -2309)" d="M420.74 2319.5a15.72 15.72 0 0 0-8.24-8.24 5.87 5.87 0 0 1 8.24 8.24zm-.24 6.5c0 3.85-1.51 7.34-3.96 9.94l2.03 2.03a1.48 1.48 0 1 1-2.1 2.1l-2.18-2.18a14.42 14.42 0 0 1-16.57 0l-2.16 2.17a1.5 1.5 0 1 1-2.12-2.12l2.01-2.01a14.5 14.5 0 1 1 25.05-9.93zm-14.5-11.5a11.5 11.5 0 1 0 0 23 11.5 11.5 0 0 0 0-23zm6 13h-6a1.5 1.5 0 0 1-1.5-1.5v-8a1.5 1.5 0 0 1 3 0v6.5h4.5a1.5 1.5 0 0 1 0 3zm-20.71-7.8a6 6 0 0 1 8.42-8.42 16.06 16.06 0 0 0-8.42 8.43z"/>
		<path id="line-graph" transform="translate(-790 -2307)" d="M821.5 2341h-29a1.5 1.5 0 0 1-1.5-1.5v-29c0-.83.67-1.5 1.5-1.5h29c.83 0 1.5.67 1.5 1.5v29c0 .83-.67 1.5-1.5 1.5zm-1.5-29h-26v26h26zm-23.78 13.24l4-2.5a1.49 1.49 0 0 1 1.62.03l6.64 4.42 7.63-5.4c.25-.18.56-.28.89-.28a1.5 1.5 0 0 1 .88 2.71l-8.5 6a1.5 1.5 0 0 1-1.74.01l-6.66-4.43-3.13 1.96a1.5 1.5 0 0 1-1.63-2.52z"/>
		<path id="computer-ok" transform="translate(-1189 -2309)" d="M1220 2333h-9.5v2.5l2 2v.5h-13v-.5l2-2v-2.5h-9.5a1.5 1.5 0 0 1-1.5-1.5v-20c0-.83.67-1.5 1.5-1.5h28c.83 0 1.5.67 1.5 1.5v20c0 .83-.67 1.5-1.5 1.5zm-.5-21h-27v17h27zm-16.5 7c.41 0 .79.17 1.06.44l.94.94 2.94-2.94a1.5 1.5 0 1 1 2.12 2.12l-4 4a1.5 1.5 0 0 1-2.12 0l-2-2a1.5 1.5 0 0 1 1.06-2.56z"/>
		<path id="book" transform="translate(-389 -2478)" d="M422.06 2504.89l-14.47 5.99a1.5 1.5 0 0 1-1.18 0l-14.47-6a1.5 1.5 0 0 1-.94-1.38v-23a1.5 1.5 0 0 1 2.07-1.39l.02.01 13.91 5.76 13.91-5.76h.01a1.5 1.5 0 0 1 2.07 1.39v22.99a1.5 1.5 0 0 1-.93 1.39zm-16.56-17.39l-11.5-4.76v19.76l11.5 4.76zm14.5-4.76l-11.5 4.76v19.76l11.5-4.76zm-9.12 6.9l5.5-2.5a1.5 1.5 0 0 1 1.24 2.73l-5.5 2.5a1.5 1.5 0 0 1-1.24-2.73zm0 5.5l5.5-2.5a1.5 1.5 0 0 1 1.24 2.73l-5.5 2.5a1.5 1.5 0 0 1-1.24-2.73zm0 5.5l5.5-2.5a1.5 1.5 0 0 1 1.24 2.73l-5.5 2.5a1.5 1.5 0 0 1-1.24-2.73zM397 2487c.22 0 .43.05.62.13l5.5 2.5a1.5 1.5 0 1 1-1.24 2.74l-5.5-2.5a1.5 1.5 0 0 1 .62-2.87zm0 5.5c.22 0 .43.05.62.13l5.5 2.5a1.5 1.5 0 1 1-1.24 2.73l-5.5-2.5a1.5 1.5 0 0 1 .62-2.86zm0 5.5c.22 0 .43.05.62.13l5.5 2.5a1.5 1.5 0 1 1-1.24 2.74l-5.5-2.5a1.5 1.5 0 0 1 .62-2.87z"/>
		<path id="home" transform="translate(-788 -2478)" d="M822 2495.5a1.5 1.5 0 0 1-2.52 1.1l-13.44-13.44-.04-.04-13.45 13.45a1.5 1.5 0 0 1-2.55-1.07c0-.43.18-.8.46-1.08l14.46-14.46a1.5 1.5 0 0 1 1.08-.46h.09a2.52 2.52 0 0 1 .07 0c.37.05.7.22.94.48l5.9 5.9v-1.38a1.5 1.5 0 1 1 3 0v4.38l5.6 5.6c.24.27.4.62.4 1.02zm-3 2.5v10.5c0 .83-.67 1.5-1.5 1.5h-3v-12h-6v12h-14a1.5 1.5 0 0 1-1.5-1.5V2498l13-13zm-15.5 0h-6v6h6z"/>
		<path id="image" transform="translate(-1188 -2478)" d="M1220.5 2511h-29a1.5 1.5 0 0 1-1.5-1.5v-29c0-.83.67-1.5 1.5-1.5h29c.83 0 1.5.67 1.5 1.5v29c0 .83-.67 1.5-1.5 1.5zm-1.5-29h-26v26h26zm-17 1.5a1.5 1.5 0 0 1 0 3h-4.5v4.5a1.5 1.5 0 1 1-3 0v-7.5zm-7.5 15.5a1.5 1.5 0 1 1 3 0v4.5h4.5a1.5 1.5 0 1 1 0 3h-7.5zm15.5-15.5h7.5v7.5a1.5 1.5 0 1 1-3 0v-4.5h-4.5a1.5 1.5 0 1 1 0-3zm0 20h4.5v-4.5a1.5 1.5 0 1 1 3 0v7.5h-7.5a1.5 1.5 0 0 1 0-3z"/>
		<path id="picture" transform="translate(-974 -3933)" d="M1006 3959c0 .65-.42 1.2-1 1.4v1.69a1.5 1.5 0 1 1-1.9 1.9h-1.7c-.2.59-.75 1-1.4 1a1.5 1.5 0 0 1-1.4-1h-1.7c-.2.59-.75 1-1.4 1a1.5 1.5 0 0 1-1.4-1h-1.7c-.2.59-.75 1-1.4 1a1.5 1.5 0 0 1-1.4-1h-1.7c-.2.59-.75 1-1.4 1a1.5 1.5 0 0 1-1.4-1h-1.7c-.2.59-.75 1-1.4 1a1.5 1.5 0 0 1-1.4-1h-1.7a1.5 1.5 0 1 1-1.9-1.9v-1.68a1.5 1.5 0 0 1 0-2.82v-1.68a1.5 1.5 0 0 1 0-2.82v-1.68a1.5 1.5 0 0 1 0-2.82v-1.68a1.5 1.5 0 0 1 0-2.82v-1.68a1.5 1.5 0 0 1 0-2.82v-1.68a1.5 1.5 0 1 1 1.9-1.91h1.7a1.5 1.5 0 0 1 2.8 0h1.7a1.5 1.5 0 0 1 2.8 0h1.7a1.5 1.5 0 0 1 2.8 0h1.7a1.5 1.5 0 0 1 2.8 0h1.7a1.5 1.5 0 0 1 2.8 0h1.7a1.5 1.5 0 1 1 1.9 1.9v1.69a1.5 1.5 0 0 1 0 2.82v1.68a1.5 1.5 0 0 1 0 2.82v1.68c.58.2 1 .76 1 1.4 0 .66-.42 1.21-1 1.42v1.68a1.5 1.5 0 0 1 0 2.82v1.68c.58.2 1 .76 1 1.4zm-4-20h-22v22h22zm-13 16l7-8.5 4.5 7v6h-19l6-6zm-3-7a3 3 0 1 1 0-6 3 3 0 0 1 0 6z"/>
		<path id="equalizer" transform="translate(-974 -4182)" d="M1002.5 4200.5h-3a1.5 1.5 0 0 1-1.5-1.5v-6c0-.83.67-1.5 1.5-1.5h3c.83 0 1.5.67 1.5 1.5v6c0 .83-.67 1.5-1.5 1.5zm-3-15a1.5 1.5 0 0 1 3 0v4.5h-3zm-8 23h-3a1.5 1.5 0 0 1-1.5-1.5v-6c0-.83.67-1.5 1.5-1.5h3c.83 0 1.5.67 1.5 1.5v6c0 .83-.67 1.5-1.5 1.5zm-3-23a1.5 1.5 0 0 1 3 0v12.5h-3zm-8 19h-3a1.5 1.5 0 0 1-1.5-1.5v-6c0-.83.67-1.5 1.5-1.5h3c.83 0 1.5.67 1.5 1.5v6c0 .83-.67 1.5-1.5 1.5zm-3-19a1.5 1.5 0 0 1 3 0v8.5h-3zm3 29a1.5 1.5 0 1 1-3 0v-8.5h3zm11 0a1.5 1.5 0 1 1-3 0v-4.5h3zm11 0a1.5 1.5 0 1 1-3 0V4202h3z"/>
		<path id="bullseye" transform="translate(-974 -4252)" d="M991 4286a16 16 0 1 1 0-32 16 16 0 0 1 0 32zm0-29a13 13 0 1 0 0 26 13 13 0 0 0 0-26zm0 22.5a9.5 9.5 0 1 1 0-19 9.5 9.5 0 0 1 0 19zm0-16a6.5 6.5 0 1 0 0 13 6.5 6.5 0 0 0 0-13zm0 9.5a3 3 0 1 1 0-6 3 3 0 0 1 0 6z"/>
		<path id="speech" transform="translate(-513 -4533)" d="M574 4571h-2v5c0 .2-.02.4-.06.6-.03.14-.08.27-.12.4l-.06.17c-.04.11-.11.22-.17.32l-.1.19c-.1.14-.21.27-.34.4l-.03.04c-.53.53-1.27.86-2.08.87H569c-.83 0-1.58-.33-2.12-.87l-7.12-7.12H532a3 3 0 0 1-3-3v-30a3 3 0 0 1 3-3h42a3 3 0 0 1 3 3v30a3 3 0 0 1-3 3zm-15.49 3l6.33 6.32A5.97 5.97 0 0 0 569 4582v2a3 3 0 0 1-3 3h-31.76l-8.12 8.12a3 3 0 0 1-2.12.88h-.04a3 3 0 0 1-2.08-.88l-.03-.04a2.93 2.93 0 0 1-.34-.4l-.1-.19c-.06-.1-.13-.21-.17-.32l-.06-.17c-.04-.13-.1-.26-.12-.4a3 3 0 0 1-.06-.6v-6h-4a3 3 0 0 1-3-3v-34a3 3 0 0 1 3-3h9v21a6 6 0 0 0 6 6z"/>
		<path id="users" transform="translate(-522 -1482)" d="M555.95 1505.5s0-3.61-2.65-4.92c-1.67-.83-1.03-.2-3.09-1.05a29.16 29.16 0 0 1-2.54-1.13l-.02-1.94s.77-.59 1.01-2.43c.48.14.64-.56.67-1 .03-.44.28-1.79-.3-1.67a12 12 0 0 0 .17-2.15c-.15-1.5-1.2-3.09-3.85-3.2-2.25.11-3.71 1.7-3.86 3.2-.04.44.05 1.25.17 2.15-.6-.12-.34 1.23-.31 1.66.03.45.18 1.15.67 1.02.24 1.84 1 2.43 1 2.43l-.01 1.95c.7.16.8.03 2.2.73 3.3 1.64 3.3 6.14 3.3 6.14 0 .6-.41 1.08-.97 1.2h7.41a1 1 0 0 0 1-.98zm-17.72-7.9l-.02-2.14s.84-.64 1.1-2.67c.54.16.71-.61.74-1.1.03-.48.32-1.96-.33-1.83.13-1 .24-1.89.19-2.36-.16-1.66-1.32-3.4-4.23-3.52-2.47.12-4.08 1.86-4.24 3.52-.05.48.05 1.37.18 2.36-.65-.13-.37 1.35-.34 1.83.03.49.2 1.26.74 1.11.26 2.02 1.1 2.67 1.1 2.67l-.02 2.15s-.53.33-2.8 1.26c-2.26.94-1.55.2-3.39 1.1-2.91 1.45-2.91 5.43-2.91 5.43 0 .6.49 1.09 1.1 1.09h21.14c.6 0 1.09-.49 1.09-1.1 0 0 0-3.97-2.91-5.41-1.84-.91-1.13-.21-3.4-1.15a32.7 32.7 0 0 1-2.8-1.24z"/>
	</defs>
</svg>